<?xml version="1.0" encoding="UTF-8"?>
<svg fill="none" viewBox="0 0 140 140" xmlns="http://www.w3.org/2000/svg">
<circle cx="70" cy="70" r="70" fill="#EFEFEF"/>
<circle transform="translate(11.666 17.5)" cx="46.667" cy="46.667" r="46.667" fill="#fff"/>
<path transform="translate(10.975 17.308)" d="m107.01 114.87l5.421-5.421c0.785-0.785 0.78-2.06-0.011-2.839l-30.195-29.717c-2.529 2.9723-5.424 5.6234-8.6154 7.8838l30.583 30.104c0.783 0.771 2.04 0.766 2.817-0.011z" fill="#BCD5EC"/>
<path transform="translate(10.975 17.308)" d="m73.609 84.775l30.583 30.104c0.783 0.771 2.04 0.766 2.817-0.011l5.421-5.421c0.785-0.785 0.78-2.06-0.011-2.839l-30.195-29.717m-8.6154 7.8838c-7.6105 5.3904-16.906 8.5583-26.942 8.5583-25.773 0-46.667-20.893-46.667-46.667s20.893-46.667 46.667-46.667c14.826 0 28.036 6.9134 36.585 17.692m-9.6424 67.083c3.1914-2.2604 6.0864-4.9115 8.6154-7.8838m0 0c6.9282-8.1428 11.109-18.695 11.109-30.224 0-2.9232-0.2687-5.7835-0.7829-8.5578" stroke="#1B212B" stroke-linecap="round" stroke-width="3"/>
<path transform="translate(37.916 11.875)" d="M0 69.7917L21.875 45L37.9167 56.6667L91.125 0" stroke="#2472BA" stroke-width="5"/>
</svg>
