<?xml version="1.0" encoding="UTF-8"?>
<svg fill="none" viewBox="0 0 140 140" xmlns="http://www.w3.org/2000/svg">
<circle cx="70" cy="70" r="70" fill="#EFEFEF"/>
<path transform="translate(11.666 14.584)" d="m0 58.333h14.583m-14.583 0c0-32.217 26.117-58.333 58.333-58.333m-58.333 58.333c0 10.625 2.8408 20.587 7.8043 29.167l12.641-7.2917m81.638-21.876h14.584c0-32.217-26.117-58.333-58.334-58.333m58.334 58.333c0 10.625-2.841 20.587-7.805 29.167l-12.64-7.2917m-37.888-65.626v-14.583m-50.518 29.167l12.63 7.2917m59.764-16.014l7.2917-12.63m-58.333 0l7.2917 12.63m59.764 16.014l12.63-7.2917" stroke="#1B212B" stroke-linecap="square" stroke-linejoin="round" stroke-width="3"/>
<path transform="translate(92.686 61.189) rotate(45)" d="m8.75 32.083c-4.8325 0-8.75 3.9175-8.75 8.75s3.9175 8.75 8.75 8.75c4.8325 0 8.75-3.9175 8.75-8.75s-3.9175-8.75-8.75-8.75zv-32.083" stroke="#1E72BD" stroke-width="5"/>
</svg>
