<?xml version="1.0" encoding="UTF-8"?>
<svg fill="none" viewBox="0 0 144 145" xmlns="http://www.w3.org/2000/svg">
<circle transform="translate(2 2)" cx="70" cy="70" r="70" fill="#EFEFEF"/>
<path transform="translate(142 48.667) scale(-1 1)" d="m0 5c0-2.7614 2.2386-5 5-5h95c2.761 0 5 2.2386 5 5v60c0 2.7614-2.239 5-5 5h-50.417l-23.333 24.792v-24.792h-21.25c-2.7614 0-5-2.2386-5-5v-60z" fill="#BCD5EC"/>
<path transform="translate(142 48.667) scale(-1 1)" d="m26.25 70h1.5c0-0.8284-0.6716-1.5-1.5-1.5v1.5zm23.333 0v-1.5c-0.4136 0-0.8088 0.1708-1.0923 0.472l1.0923 1.028zm-23.333 24.792h-1.5c0 0.6149 0.3754 1.1676 0.947 1.3943 0.5717 0.2267 1.2238 0.0815 1.6453-0.3663l-1.0923-1.028zm80.25-45.208c0-0.8284-0.672-1.5-1.5-1.5s-1.5 0.6716-1.5 1.5h3zm-80.25-48.083c0.8284 0 1.5-0.67157 1.5-1.5s-0.6716-1.5-1.5-1.5v3zm-24.75 63.5v-60h-3v60h3zm24.75 3.5h-21.25v3h21.25v-3zm73.75 0h-50.417v3h50.417v-3zm-51.509 0.472l-23.333 24.792 2.1846 2.0561 23.333-24.792-2.1846-2.056zm-20.741 25.82v-24.792h-3v24.792h3zm75.75-45.208v15.417h3v-15.417h-3zm-98.5-48.083h21.25v-3h-21.25v3zm-6.5 63.5c0 3.5899 2.9102 6.5 6.5 6.5v-3c-1.933 0-3.5-1.567-3.5-3.5h-3zm101.5 6.5c3.59 0 6.5-2.9101 6.5-6.5h-3c0 1.933-1.567 3.5-3.5 3.5v3zm-98.5-66.5c0-1.933 1.567-3.5 3.5-3.5v-3c-3.5898 0-6.5 2.9102-6.5 6.5h3z" fill="#1B212B"/>
<path transform="translate(2 2)" d="m0 5c0-2.7614 2.2386-5 5-5h95c2.761 0 5 2.2386 5 5v60c0 2.7614-2.239 5-5 5h-50.417l-23.333 24.792v-24.792h-21.25c-2.7614 0-5-2.2386-5-5v-60z" fill="#fff"/>
<path transform="translate(2 2)" d="m26.25 70h1.5c0-0.8284-0.6716-1.5-1.5-1.5v1.5zm23.333 0v-1.5c-0.4136 0-0.8088 0.1708-1.0923 0.472l1.0923 1.028zm-23.333 24.792h-1.5c0 0.6149 0.3754 1.1676 0.947 1.3943 0.5717 0.2267 1.2238 0.0815 1.6453-0.3663l-1.0923-1.028zm-21.25-93.292h95v-3h-95v3zm98.5 3.5v60h3v-60h-3zm-102 60v-60h-3v60h3zm24.75 3.5h-21.25v3h21.25v-3zm73.75 0h-50.417v3h50.417v-3zm-51.509 0.472l-23.333 24.792 2.1846 2.0561 23.333-24.792-2.1846-2.056zm-20.741 25.82v-24.792h-3v24.792h3zm-29.25-29.792c0 3.5899 2.9102 6.5 6.5 6.5v-3c-1.933 0-3.5-1.567-3.5-3.5h-3zm105 0c0 1.933-1.567 3.5-3.5 3.5v3c3.59 0 6.5-2.9101 6.5-6.5h-3zm-3.5-63.5c1.933 0 3.5 1.567 3.5 3.5h3c0-3.5898-2.91-6.5-6.5-6.5v3zm-95-3c-3.5898 0-6.5 2.9102-6.5 6.5h3c0-1.933 1.567-3.5 3.5-3.5v-3z" fill="#1B212B"/>
<path transform="translate(74.916 77.833)" d="m0 4.023h14.583m14.583 0h-5.609m-8.9744-4.023v4.023m0 0h8.9744m0 0c-1.1218 5.0287-5.8333 16.494-15.705 22.126m0-16.092c1.8697 5.364 8.5256 16.695 20.192 19.109" stroke="#1B212B" stroke-linecap="round" stroke-linejoin="round" stroke-width="3"/>
<path transform="translate(37 19.5)" d="m0 35l3.6458-8.75m25.521 8.75l-3.6459-8.75m0 0l-10.938-26.25-10.937 26.25m21.875 0h-21.875" stroke="#1B212B" stroke-linecap="round" stroke-linejoin="round" stroke-width="3"/>
</svg>
