<svg fill="none" viewBox="0 0 400 259" xmlns="http://www.w3.org/2000/svg"><g filter="url(#b)"><path d="M379.85 103.68l.15-.087L200.56-.007 20 104.243l.15.087-.15.087.148.085-.148.086.15.086-.15.087.148.086-.148.085.15.087-.15.087.15.087-.15.087.148.085-.148.086.15.087-.15.087.148.085-.148.086.15.087-.15.086.15.087-.15.087.148.086-.148.085.15.087-.15.087.15.087-.15.087.148.085-.148.086.15.087-.15.086.148.086-.148.086.15.087-.15.086.15.087-.15.087.148.085-.148.086.15.087-.15.087.148.085-.148.086.15.087-.15.086.15.087-.15.087.148.086-.148.085.15.087-.15.087.148.085-.148.086.15.087-.15.087.15.087-.15.087.148.085-.148.086.15.087-.15.086.148.086-.148.085.15.087-.15.087.15.087-.15.087.148.085-.148.086.15.087-.15.087.15.086-.15.087.148.086-.148.086.15.086-.15.087.148.086-.148.085.15.087-.15.087.15.087-.15.087.148.085-.148.086.15.087-.15.086.148.086-.148.086.15.086-.15.087.15.087-.15.087.148.085-.148.086.15.087-.15.087.148.085-.148.086.15.087-.15.087.15.087-.15.086.148.086-.148.085.15.087-.15.087.15.087-.15.087.148.085-.148.086.15.087-.15.087.148.085-.148.086.15.087-.15.087.15.086-.15.087.148.086-.148.085 179.44 103.6L380 114.126l-.148-.086.148-.086-.15-.086.15-.087-.148-.086.148-.085-.15-.087.15-.087-.15-.087.15-.087-.148-.085.148-.086-.15-.086.15-.087-.148-.086.148-.086-.15-.086.15-.087-.15-.087.15-.087-.148-.085.148-.086-.15-.087.15-.087-.148-.085.148-.086-.15-.087.15-.087-.15-.086.15-.087-.148-.086.148-.085-.15-.087.15-.087-.148-.086.148-.085-.15-.087.15-.087-.15-.087.15-.087-.148-.085.148-.086-.15-.087.15-.086-.15-.087.15-.087-.148-.086.148-.085-.15-.087.15-.087-.148-.085.148-.086-.15-.087.15-.087-.15-.086.15-.087-.148-.086.148-.085-.15-.087.15-.087-.148-.086.148-.085-.15-.087.15-.087-.15-.087.15-.087-.148-.085.148-.086-.15-.087.15-.087-.148-.085.148-.086-.15-.087.15-.086-.15-.087.15-.087-.148-.086.148-.085-.15-.087.15-.087-.148-.085.148-.086-.15-.087.15-.087-.15-.087.15-.086-.148-.086.148-.085-.15-.087.15-.087-.15-.087.15-.087-.148-.085.148-.086-.15-.087.15-.087-.148-.085.148-.086-.15-.087.15-.086-.15-.087.15-.087-.148-.086.148-.085-.15-.087.15-.087-.148-.085.148-.086-.15-.087.15-.087-.15-.087.15-.087-.148-.085.148-.086-.15-.087.15-.086-.148-.086.148-.085-.15-.087.15-.087-.15-.087z" fill="#F0EFEF"/><path d="M380 103.597L199.438 207.846 20 104.249 200.565 0 380 103.597z" fill="#fff"/><g filter="url(#a)"><path d="M259.17 91.77c.051-4.168-1.347-8.316-4.191-12.438-2.924-4.238-7.509-8.16-13.761-11.768-6.25-3.608-13.045-6.255-20.386-7.944a94.031 94.031 0 0 0-22.15-2.416c-7.425.076-14.63.972-21.618 2.688-6.988 1.716-13.213 4.15-18.678 7.306-5.539 3.198-9.811 6.825-12.819 10.88-3.008 4.054-4.578 8.226-4.713 12.514-.008.245-.011.49-.009.735v.42a23.05 23.05 0 0 0 0 .367v.394a22.95 22.95 0 0 0 0 .367v.762.761.762a17.78 17.78 0 0 0 0 .395v.367.761.762.762.761.762.761.762.762.762.762c-.044 4.16 1.354 8.296 4.192 12.409 2.926 4.237 7.512 8.16 13.762 11.769 5.95 3.434 12.504 6.03 19.658 7.783a93.83 93.83 0 0 0 21.756 2.707A91.655 91.655 0 0 0 222 135.744c7.175-1.694 13.79-4.29 19.856-7.791 5.465-3.155 9.68-6.75 12.65-10.783 2.968-4.032 4.52-8.194 4.657-12.48.008-.254.01-.507.008-.76a22.83 22.83 0 0 0 0-.37v-.386-.378-.383-.38-.38-.384-.379-.38-.38-.384-.38-.379-.38-.384-.379-.381-.383-.379a24.03 24.03 0 0 0 0-.38v-.38-.384-.379-.38-.384-.379-.38-.38-.383-.38-.38-.36zm-24.072 2.238c.033-1.543-.316-3.116-1.048-4.718-.844-1.846-2.3-3.635-4.361-5.365.86.445 1.71.91 2.547 1.393 5.134 2.965 8.98 6.136 11.535 9.513 1.132 1.494 2.026 2.995 2.682 4.503a19.373 19.373 0 0 1-1.782 3.153c-2.221 3.214-5.577 6.119-10.067 8.711-.442.255-.887.504-1.335.746.981-1.424 1.568-2.89 1.757-4.4.057-.45.081-.901.072-1.356a9.97 9.97 0 0 0 0-.387c.002-.125.002-.25 0-.375a9.857 9.857 0 0 0 0-.384 9.612 9.612 0 0 0 0-.38 9.755 9.755 0 0 0 0-.383 9.562 9.562 0 0 0 0-.378 9.658 9.658 0 0 0 0-.381 9.785 9.785 0 0 0 0-.383 9.572 9.572 0 0 0 0-.379 9.668 9.668 0 0 0 0-.38 9.796 9.796 0 0 0 0-.384 9.577 9.577 0 0 0 0-.38 9.592 9.592 0 0 0 0-.378 9.688 9.688 0 0 0 0-.382 9.796 9.796 0 0 0 0-.383 9.572 9.572 0 0 0 0-.379 9.668 9.668 0 0 0 0-.38 9.796 9.796 0 0 0 0-.384 9.572 9.572 0 0 0 0-.379 9.612 9.612 0 0 0 0-.38 9.694 9.694 0 0 0 0-.38 9.796 9.796 0 0 0 0-.384 9.572 9.572 0 0 0 0-.379 9.658 9.658 0 0 0 0-.38 9.796 9.796 0 0 0 0-.384 9.572 9.572 0 0 0 0-.379 9.612 9.612 0 0 0 0-.38 9.694 9.694 0 0 0 0-.38 9.785 9.785 0 0 0 0-.384 9.572 9.572 0 0 0 0-.379 9.673 9.673 0 0 0 0-.38 9.177 9.177 0 0 0 0-.372zm-64.188 17.638c-.371-.395-.72-.797-1.044-1.205-1.854-2.324-2.829-4.68-2.93-7.072-.008-.2-.01-.4-.006-.6a9.898 9.898 0 0 1 0-.385 9.476 9.476 0 0 1 0-.377 9.806 9.806 0 0 1 0-.384 9.719 9.719 0 0 1 0-.382 9.587 9.587 0 0 1 0-.379 9.607 9.607 0 0 1 0-.38 9.699 9.699 0 0 1 0-.38 9.755 9.755 0 0 1 0-.383 9.587 9.587 0 0 1 0-.38 9.683 9.683 0 0 1 0-.38 9.76 9.76 0 0 1 0-.383 9.597 9.597 0 0 1 0-.38 9.607 9.607 0 0 1 0-.38 9.694 9.694 0 0 1 0-.38 9.76 9.76 0 0 1 0-.383 9.597 9.597 0 0 1 0-.38 9.683 9.683 0 0 1 0-.38 9.76 9.76 0 0 1 0-.383 9.582 9.582 0 0 1 0-.38 9.623 9.623 0 0 1 0-.38 9.785 9.785 0 0 1 0-.382 9.617 9.617 0 0 1 0-.38 9.724 9.724 0 0 1 0-.382 9.919 9.919 0 0 1 0-.386 9.395 9.395 0 0 1 0-.371 9.314 9.314 0 0 1 0-.367 9.613 9.613 0 0 1 0-.394 9.97 9.97 0 0 1 0-.387 9.597 9.597 0 0 1 0-.38 9.617 9.617 0 0 1 0-.38 9.785 9.785 0 0 1 0-.382 9.5 9.5 0 0 1 0-.392c-.041-2.315.74-4.64 2.342-6.978a16.744 16.744 0 0 1 2.09-2.465 49.874 49.874 0 0 0-5.72 2.829c-4.567 2.636-7.979 5.573-10.235 8.806a19.54 19.54 0 0 0-1.823 3.19c.665 1.515 1.573 3.025 2.722 4.531 2.592 3.4 6.42 6.56 11.478 9.48 1.02.59 2.063 1.152 3.126 1.686zm58.385-27.923c-4.22-2.144-8.714-3.822-13.478-5.032a79.833 79.833 0 0 0-2.034-.489l-.069.04c.126.054.253.108.379.164l-.376.217.376.163-.376.217.376.163-.379.218.379.165-.376.217.376.163-.376.217c.126.053.25.108.376.163l-.376.217.376.163-.379.218.379.165-.376.217.376.163-.376.217.376.163-.379.218.379.165-.376.217c.126.053.25.108.376.163l-.376.217.376.163-.376.217.376.163-.379.218.379.165-.376.217.376.163-.376.217c.126.053.25.108.376.163l-.379.218.379.165-.376.217.376.163-.376.217.376.163-.376.217.376.163-.379.218.379.165-.376.217c.126.053.25.108.376.163l-.376.217.376.163-.379.218.379.165-7.637 4.409c-3.426-1.287-7.134-1.809-11.128-1.564-3.994.244-7.598 1.295-10.818 3.154-1.068.617-1.988 1.25-2.76 1.901 1.31 1.285 2.943 2.493 4.9 3.621a37.443 37.443 0 0 0 7.93 3.41c2.831.858 5.72 1.38 8.665 1.567 2.946.187 5.82.032 8.623-.467 2.801-.5 5.323-1.399 7.571-2.696a18.917 18.917 0 0 0 2.346-1.578l-.15-.113.282-.163a14.417 14.417 0 0 0-.282-.218l.282-.163a14.037 14.037 0 0 0-.282-.217l.282-.163a14.415 14.415 0 0 0-.282-.217l.284-.164a14.226 14.226 0 0 0-.284-.219l.282-.163a13.727 13.727 0 0 0-.282-.216l.282-.164a14.415 14.415 0 0 0-.282-.217l.284-.164a14.226 14.226 0 0 0-.284-.218l.282-.163a14.417 14.417 0 0 0-.282-.218l.282-.163a14.415 14.415 0 0 0-.282-.217l.282-.163a13.727 13.727 0 0 0-.282-.217l.284-.164a14.61 14.61 0 0 0-.284-.218l.282-.163a14.415 14.415 0 0 0-.282-.217l.282-.164a14.035 14.035 0 0 0-.282-.217l.284-.164a15.016 15.016 0 0 0-.284-.218l.282-.163a14.037 14.037 0 0 0-.282-.218l.282-.163a14.09 14.09 0 0 0-.282-.216l.282-.164a14.415 14.415 0 0 0-.282-.217l.284-.164a14.61 14.61 0 0 0-.284-.218l.282-.163a14.415 14.415 0 0 0-.282-.217l.282-.164a14.417 14.417 0 0 0-.282-.217l.284-.164a14.226 14.226 0 0 0-.284-.218l.282-.163a14.417 14.417 0 0 0-.282-.217l.282-.163a14.037 14.037 0 0 0-.282-.217l.282-.164a14.415 14.415 0 0 0-.282-.217l.284-.164a14.226 14.226 0 0 0-.284-.218l.282-.163a13.727 13.727 0 0 0-.282-.217l.282-.163a14.415 14.415 0 0 0-.282-.217l.284-.165a14.226 14.226 0 0 0-.284-.218l.283-.164a13.727 13.727 0 0 0-.282-.216l7.66-4.424z" clip-rule="evenodd" fill="#A6A6A6" fill-rule="evenodd"/></g><path d="M254.97 79.332c2.924 4.238 4.319 8.503 4.184 12.789-.136 4.287-1.689 8.448-4.656 12.48s-7.186 7.629-12.651 10.783c-6.065 3.502-12.681 6.098-19.856 7.792a91.65 91.65 0 0 1-21.786 2.462 93.83 93.83 0 0 1-21.756-2.707c-7.154-1.754-13.707-4.349-19.658-7.783-6.25-3.608-10.835-7.531-13.761-11.77-2.924-4.237-4.32-8.5-4.184-12.788.136-4.287 1.705-8.46 4.713-12.513 3.008-4.056 7.281-7.683 12.82-10.881 5.464-3.155 11.69-5.59 18.677-7.306 6.988-1.716 14.193-2.611 21.618-2.688a94.035 94.035 0 0 1 22.15 2.417c7.341 1.688 14.136 4.335 20.386 7.943 6.252 3.608 10.837 7.531 13.761 11.77zm-39.161-13.21a75.77 75.77 0 0 0-17.785-2.36c-5.97-.075-11.739.527-17.304 1.809-5.565 1.281-10.596 3.217-15.086 5.812-4.566 2.636-7.979 5.574-10.235 8.807-2.256 3.236-3.32 6.575-3.187 10.023.13 3.448 1.493 6.869 4.086 10.267 2.592 3.4 6.42 6.56 11.478 9.48 4.761 2.75 9.974 4.895 15.637 6.434a74.836 74.836 0 0 0 17.39 2.587 73.088 73.088 0 0 0 17.585-1.582c5.79-1.238 11.193-3.307 16.207-6.2 4.49-2.594 7.845-5.498 10.066-8.713 2.218-3.214 3.263-6.545 3.133-9.99-.13-3.448-1.474-6.858-4.032-10.235-2.554-3.377-6.401-6.548-11.535-9.513-5.058-2.92-10.531-5.128-16.42-6.627zm18.233 23.168c.885 1.938 1.21 3.833.977 5.685-.233 1.854-1.064 3.643-2.492 5.37-1.428 1.726-3.377 3.3-5.845 4.729-3.594 2.074-7.482 3.589-11.666 4.544a52.007 52.007 0 0 1-12.825 1.285c-4.365-.1-8.652-.717-12.863-1.852s-8.1-2.731-11.67-4.794c-3.348-1.933-5.949-4.062-7.8-6.386-1.855-2.323-2.83-4.68-2.93-7.072-.1-2.391.679-4.794 2.335-7.21 1.656-2.416 4.317-4.683 7.984-6.8 5.167-2.982 11.033-4.716 17.603-5.202 6.57-.486 12.982.643 19.234 3.39l-7.636 4.41c-3.426-1.288-7.135-1.809-11.128-1.564-3.994.244-7.6 1.295-10.818 3.154-2.395 1.382-4.045 2.85-4.95 4.404-.904 1.552-1.23 3.113-.977 4.688.253 1.572 1.083 3.133 2.492 4.68 1.41 1.548 3.266 2.99 5.574 4.32a37.446 37.446 0 0 0 7.93 3.41c2.831.857 5.72 1.379 8.666 1.566 2.945.187 5.82.033 8.622-.467s5.323-1.398 7.571-2.696c3.37-1.944 5.21-4.08 5.52-6.407.312-2.326-.796-4.436-3.323-6.328l7.748-4.474c2.223 1.808 3.781 3.681 4.666 5.617z" fill="#1B212B"/></g><defs><filter id="b" x="0" y="0" width="400" height="258.38" color-interpolation-filters="sRGB" filterUnits="userSpaceOnUse"><feFlood flood-opacity="0" result="BackgroundImageFix"/><feColorMatrix in="SourceAlpha" values="0 0 0 0 0 0 0 0 0 0 0 0 0 0 0 0 0 0 255 0"/><feOffset dy="20"/><feGaussianBlur stdDeviation="10"/><feColorMatrix values="0 0 0 0 0 0 0 0 0 0 0 0 0 0 0 0 0 0 0.25 0"/><feBlend in2="BackgroundImageFix" result="effect1_dropShadow"/><feBlend in="SourceGraphic" in2="effect1_dropShadow" result="shape"/></filter><filter id="a" x="120.84" y="57.198" width="158.33" height="121.01" color-interpolation-filters="sRGB" filterUnits="userSpaceOnUse"><feFlood flood-opacity="0" result="BackgroundImageFix"/><feColorMatrix in="SourceAlpha" values="0 0 0 0 0 0 0 0 0 0 0 0 0 0 0 0 0 0 255 0"/><feOffset dy="20"/><feGaussianBlur stdDeviation="10"/><feColorMatrix values="0 0 0 0 0 0 0 0 0 0 0 0 0 0 0 0 0 0 0.25 0"/><feBlend in2="BackgroundImageFix" result="effect1_dropShadow"/><feBlend in="SourceGraphic" in2="effect1_dropShadow" result="shape"/></filter></defs></svg>