<svg fill="none" viewBox="0 0 400 259" xmlns="http://www.w3.org/2000/svg"><g filter="url(#b)"><path d="M379.85 103.68l.15-.087L200.56-.007 20 104.243l.15.087-.15.087.148.085-.148.086.15.086-.15.087.148.086-.148.085.15.087-.15.087.15.087-.15.087.148.085-.148.086.15.087-.15.087.148.085-.148.086.15.087-.15.086.15.087-.15.087.148.086-.148.085.15.087-.15.087.15.087-.15.087.148.085-.148.086.15.087-.15.086.148.086-.148.086.15.087-.15.086.15.087-.15.087.148.085-.148.086.15.087-.15.087.148.085-.148.086.15.087-.15.086.15.087-.15.087.148.086-.148.085.15.087-.15.087.148.085-.148.086.15.087-.15.087.15.087-.15.087.148.085-.148.086.15.087-.15.086.148.086-.148.085.15.087-.15.087.15.087-.15.087.148.085-.148.086.15.087-.15.087.15.086-.15.087.148.086-.148.086.15.086-.15.087.148.086-.148.085.15.087-.15.087.15.087-.15.087.148.085-.148.086.15.087-.15.086.148.086-.148.086.15.086-.15.087.15.087-.15.087.148.085-.148.086.15.087-.15.087.148.085-.148.086.15.087-.15.087.15.087-.15.086.148.086-.148.085.15.087-.15.087.15.087-.15.087.148.085-.148.086.15.087-.15.087.148.085-.148.086.15.087-.15.087.15.086-.15.087.148.086-.148.085 179.44 103.6L380 114.126l-.148-.086.148-.086-.15-.086.15-.087-.148-.086.148-.085-.15-.087.15-.087-.15-.087.15-.087-.148-.085.148-.086-.15-.086.15-.087-.148-.086.148-.086-.15-.086.15-.087-.15-.087.15-.087-.148-.085.148-.086-.15-.087.15-.087-.148-.085.148-.086-.15-.087.15-.087-.15-.086.15-.087-.148-.086.148-.085-.15-.087.15-.087-.148-.086.148-.085-.15-.087.15-.087-.15-.087.15-.087-.148-.085.148-.086-.15-.087.15-.086-.15-.087.15-.087-.148-.086.148-.085-.15-.087.15-.087-.148-.085.148-.086-.15-.087.15-.087-.15-.086.15-.087-.148-.086.148-.085-.15-.087.15-.087-.148-.086.148-.085-.15-.087.15-.087-.15-.087.15-.087-.148-.085.148-.086-.15-.087.15-.087-.148-.085.148-.086-.15-.087.15-.086-.15-.087.15-.087-.148-.086.148-.085-.15-.087.15-.087-.148-.085.148-.086-.15-.087.15-.087-.15-.087.15-.086-.148-.086.148-.085-.15-.087.15-.087-.15-.087.15-.087-.148-.085.148-.086-.15-.087.15-.087-.148-.085.148-.086-.15-.087.15-.086-.15-.087.15-.087-.148-.086.148-.085-.15-.087.15-.087-.148-.085.148-.086-.15-.087.15-.087-.15-.087.15-.087-.148-.085.148-.086-.15-.087.15-.086-.148-.086.148-.085-.15-.087.15-.087-.15-.087z" fill="#F0EFEF"/></g><path d="M380 103.597L199.438 207.846 20 104.249 200.565 0 380 103.597z" fill="#fff"/><path d="M346.24 105.826L203.3 188.351c-2.08 1.2-5.712 1.051-8.115-.336l-36.164-20.88c-2.402-1.387-2.663-3.483-.583-4.686l142.94-82.525c2.08-1.2 5.712-1.05 8.115.337l36.164 20.88c2.405 1.387 2.666 3.486.586 4.686z" fill="#F0EFEF"/><path d="M295.91 100.35l-102.09 58.944c-.893.516-2.457.451-3.489-.144-1.031-.597-1.145-1.498-.25-2.014l102.09-58.944c.894-.516 2.458-.45 3.489.144 1.035.597 1.146 1.499.253 2.014zM305.25 105.746L203.16 164.69c-.893.516-2.457.451-3.489-.143-1.031-.598-1.145-1.499-.25-2.015l102.09-58.944c.894-.516 2.458-.45 3.489.144 1.032.597 1.146 1.499.25 2.014zM314.6 111.15l-102.09 58.94c-.893.516-2.457.45-3.488-.144-1.032-.597-1.146-1.498-.25-2.014l102.09-58.944c.893-.516 2.457-.45 3.488.144 1.035.597 1.146 1.498.253 2.017z" fill="#D1D3D4"/><path d="M211.66 28.128L68.72 110.654c-2.08 1.2-5.712 1.05-8.114-.337l-6.258-3.614c-2.403-1.387-2.663-3.483-.584-4.685l142.94-82.522c2.08-1.2 5.712-1.05 8.115.336l6.257 3.614c2.4 1.384 2.661 3.483.581 4.683z" fill="#1B212B"/><path d="M72.774 101.838l-6.168 3.562c-.893.516-2.457.45-3.489-.144-1.031-.597-1.145-1.498-.25-2.014l6.169-3.562c.893-.516 2.457-.45 3.488.144 1.032.597 1.146 1.499.25 2.014zM85.94 94.236l-6.168 3.562c-.893.516-2.457.45-3.489-.144-1.031-.597-1.145-1.498-.25-2.014l6.169-3.562c.893-.516 2.457-.45 3.488.144 1.032.597 1.143 1.499.25 2.014zM99.107 86.635l-6.168 3.562c-.893.516-2.457.45-3.489-.144-1.031-.597-1.145-1.498-.25-2.014l6.169-3.562c.893-.516 2.457-.45 3.488.144 1.032.597 1.143 1.499.25 2.014zM202.551 26.91l-6.168 3.561c-.893.516-2.457.45-3.489-.144-1.031-.597-1.145-1.498-.25-2.014l6.169-3.562c.893-.516 2.457-.45 3.488.144 1.032.597 1.143 1.499.25 2.014z" fill="#D1D3D4"/><g filter="url(#a)"><path d="M74.79 104.148c-.017-.778.444-1.523 1.404-2.078l142.94-82.525c2.08-1.2 5.712-1.05 8.115.336l66.067 38.146c1.335.769 2.01 1.757 1.99 2.69V63.532c.018.779-.443 1.524-1.403 2.078l-142.94 82.525c-2.08 1.2-5.713 1.05-8.115-.337L76.78 109.655c-1.335-.772-2.01-1.761-1.987-2.695v-2.723-.09z" fill="#F0EFEF"/></g><path d="M293.9 62.711l-142.94 82.527c-2.08 1.2-5.712 1.051-8.115-.336l-66.068-38.146c-2.402-1.387-2.663-3.483-.583-4.686l142.94-82.525c2.08-1.2 5.712-1.05 8.115.337l66.067 38.146c2.406 1.384 2.666 3.483.587 4.683z" fill="#fff" stroke="#D1D3D4" stroke-dasharray="5 5"/><path d="M217.425 60.251c-.38-.032-9.447-.757-21.01-.114-1.113.063-2.21.136-3.293.218l-.016 3.105c9.415-.77 17.809-.5 21.52-.307.692 4.436 1.976 20.443-13.381 29.31-2.492 1.438-5.308 2.625-8.313 3.6l-.02 3.444c4.676-1.32 8.729-2.956 12.07-4.886 8.232-4.754 13.377-12 14.875-20.956 1.116-6.676-.141-11.91-.196-12.13-.165-.665-1.077-1.192-2.237-1.284zm-57.302 8.473c-8.228 4.751-13.373 11.997-14.872 20.953-1.118 6.676.141 11.91.195 12.13.166.668 1.076 1.195 2.235 1.29.383.03 9.447.757 21.01.111 2.87-.16 5.636-.39 8.296-.695l.016-3.133c-11.348 1.371-22.166 1.037-26.524.81-.7-4.434-2.003-20.427 13.381-29.31 3.837-2.215 8.446-3.833 13.324-5.003l.02-3.282c-6.834 1.482-12.6 3.542-17.083 6.13z" fill="#1B75BC"/><path d="M193.06 71.293l-.01 1.818c.824.337 1.612.717 2.35 1.143 7.042 4.067 7.01 10.702-.081 14.796-.744.43-1.534.815-2.365 1.151l-.01 1.82a23.439 23.439 0 0 0 4.243-1.893c8.125-4.691 8.163-12.3.092-16.959-1.287-.746-2.71-1.37-4.219-1.876zm-25.153 1.927c-8.123 4.689-8.16 12.298-.09 16.959 2.645 1.526 5.835 2.552 9.214 3.073l.009-1.593c-2.69-.484-5.221-1.339-7.344-2.566-7.042-4.067-7.01-10.702.079-14.793 2.136-1.232 4.675-2.098 7.373-2.59l.008-1.593c-3.388.532-6.589 1.566-9.249 3.103z" fill="#1B75BC"/><path d="M174.078 87.644c-.519.299-1.36.301-1.876.003-5.668-3.274-5.639-8.614.065-11.907.519-.299 1.36-.302 1.876-.003.516.299.513.782-.005 1.083-4.667 2.696-4.691 7.064-.052 9.744.513.296.51.779-.008 1.08zM187.88 49.91l-.06 10.954-.017 3.136-.032 6.049-.008 1.585-.109 20.057-.008 1.585-.024 4.26-.02 3.277-.065 11.88c-.005.423-.3.806-.784 1.083-.483.277-1.143.45-1.879.453-1.466 0-2.647-.681-2.644-1.525l.076-14.095.027-4.952.008-1.529.228-42.21c.009-.847 1.198-1.534 2.66-1.536 1.472 0 2.653.684 2.65 1.528z" fill="#1B75BC"/><defs><filter id="b" x="0" y="0" width="400" height="258.38" color-interpolation-filters="sRGB" filterUnits="userSpaceOnUse"><feFlood flood-opacity="0" result="BackgroundImageFix"/><feColorMatrix in="SourceAlpha" values="0 0 0 0 0 0 0 0 0 0 0 0 0 0 0 0 0 0 255 0"/><feOffset dy="20"/><feGaussianBlur stdDeviation="10"/><feColorMatrix values="0 0 0 0 0 0 0 0 0 0 0 0 0 0 0 0 0 0 0.25 0"/><feBlend in2="BackgroundImageFix" result="effect1_dropShadow"/><feBlend in="SourceGraphic" in2="effect1_dropShadow" result="shape"/></filter><filter id="a" x="64.79" y="18.735" width="240.51" height="150.21" color-interpolation-filters="sRGB" filterUnits="userSpaceOnUse"><feFlood flood-opacity="0" result="BackgroundImageFix"/><feColorMatrix in="SourceAlpha" values="0 0 0 0 0 0 0 0 0 0 0 0 0 0 0 0 0 0 255 0"/><feOffset dy="10"/><feGaussianBlur stdDeviation="5"/><feColorMatrix values="0 0 0 0 0 0 0 0 0 0 0 0 0 0 0 0 0 0 0.25 0"/><feBlend in2="BackgroundImageFix" result="effect1_dropShadow"/><feBlend in="SourceGraphic" in2="effect1_dropShadow" result="shape"/></filter></defs></svg>