<svg width="400" height="259" viewBox="0 0 400 259" fill="none" xmlns="http://www.w3.org/2000/svg">
<rect width="360" height="218.379" fill="black" fill-opacity="0" transform="translate(20)"/>
<g filter="url(#filter0_d)">
<path d="M379.85 103.684L380 103.597L200.564 0L20 104.249L20.1504 104.336L20 104.423L20.1479 104.508L20 104.594L20.1504 104.68L20 104.767L20.1479 104.853L20 104.938L20.1504 105.025L20 105.112L20.1504 105.199L20 105.286L20.1479 105.371L20 105.457L20.1504 105.544L20 105.631L20.1484 105.716L20 105.802L20.1504 105.889L20 105.975L20.1504 106.062L20 106.149L20.1479 106.235L20 106.32L20.1504 106.407L20 106.494L20.1504 106.581L20 106.668L20.1479 106.753L20 106.839L20.1504 106.926L20 107.012L20.1484 107.098L20 107.184L20.1504 107.271L20 107.357L20.1504 107.444L20 107.531L20.1479 107.616L20 107.702L20.1504 107.789L20 107.876L20.1484 107.961L20 108.047L20.1504 108.134L20 108.22L20.1504 108.307L20 108.394L20.1479 108.48L20 108.565L20.1504 108.652L20 108.739L20.1484 108.824L20 108.91L20.1504 108.997L20 109.084L20.1504 109.171L20 109.258L20.1484 109.343L20 109.429L20.1504 109.516L20 109.602L20.1484 109.688L20 109.773L20.1504 109.86L20 109.947L20.1504 110.034L20 110.121L20.1484 110.206L20 110.292L20.1504 110.379L20 110.466L20.1504 110.552L20 110.639L20.1484 110.725L20 110.811L20.1504 110.897L20 110.984L20.1484 111.07L20 111.155L20.1504 111.242L20 111.329L20.1504 111.416L20 111.503L20.1484 111.588L20 111.674L20.1504 111.761L20 111.847L20.1484 111.933L20 112.019L20.1504 112.105L20 112.192L20.1504 112.279L20 112.366L20.1484 112.451L20 112.537L20.1504 112.624L20 112.711L20.1479 112.796L20 112.882L20.1504 112.969L20 113.056L20.1504 113.143L20 113.229L20.1479 113.315L20 113.4L20.1504 113.487L20 113.574L20.1504 113.661L20 113.748L20.1484 113.833L20 113.919L20.1504 114.006L20 114.093L20.1479 114.178L20 114.264L20.1504 114.351L20 114.438L20.1504 114.524L20 114.611L20.1484 114.697L20 114.782L199.438 218.379L380 114.131L379.852 114.045L380 113.959L379.85 113.873L380 113.786L379.852 113.7L380 113.615L379.85 113.528L380 113.441L379.85 113.354L380 113.267L379.852 113.182L380 113.096L379.85 113.01L380 112.923L379.852 112.837L380 112.751L379.85 112.665L380 112.578L379.85 112.491L380 112.404L379.852 112.319L380 112.233L379.85 112.146L380 112.059L379.852 111.974L380 111.888L379.85 111.801L380 111.714L379.85 111.628L380 111.541L379.852 111.455L380 111.37L379.85 111.283L380 111.196L379.852 111.11L380 111.025L379.85 110.938L380 110.851L379.85 110.764L380 110.677L379.852 110.592L380 110.506L379.85 110.419L380 110.333L379.85 110.246L380 110.159L379.852 110.073L380 109.988L379.85 109.901L380 109.814L379.852 109.729L380 109.643L379.85 109.556L380 109.469L379.85 109.383L380 109.296L379.852 109.21L380 109.125L379.85 109.038L380 108.951L379.852 108.865L380 108.78L379.85 108.693L380 108.606L379.85 108.519L380 108.432L379.852 108.347L380 108.261L379.85 108.174L380 108.087L379.852 108.002L380 107.916L379.85 107.829L380 107.743L379.85 107.656L380 107.569L379.852 107.483L380 107.398L379.85 107.311L380 107.224L379.852 107.139L380 107.053L379.85 106.966L380 106.879L379.85 106.792L380 106.706L379.852 106.62L380 106.535L379.85 106.448L380 106.361L379.85 106.274L380 106.187L379.852 106.102L380 106.016L379.85 105.929L380 105.842L379.852 105.757L380 105.671L379.85 105.584L380 105.498L379.85 105.411L380 105.324L379.852 105.238L380 105.153L379.85 105.066L380 104.979L379.852 104.894L380 104.808L379.85 104.721L380 104.634L379.85 104.547L380 104.46L379.852 104.375L380 104.289L379.85 104.202L380 104.116L379.852 104.03L380 103.945L379.85 103.858L380 103.771L379.85 103.684Z" fill="#F0EFEF"/>
</g>
<path d="M380 103.597L199.438 207.846L20 104.249L200.565 0L380 103.597Z" fill="white"/>
<rect width="190.607" height="110.045" fill="black" fill-opacity="0" transform="translate(127.696 62.9004)"/>
<path d="M316.9 89.6101L173.96 172.135C171.88 173.335 168.248 173.186 165.845 171.798L129.684 150.921C127.281 149.534 127.021 147.438 129.1 146.236L272.038 63.7108C274.117 62.5109 277.75 62.6602 280.152 64.0475L316.316 84.9271C318.719 86.3116 318.979 88.4102 316.9 89.6101Z" fill="#F0EFEF"/>
<path d="M266.57 84.1343L164.477 143.078C163.584 143.594 162.02 143.529 160.988 142.934C159.957 142.337 159.843 141.436 160.739 140.92L262.829 81.9761C263.722 81.4602 265.286 81.5254 266.318 82.1199C267.352 82.7172 267.463 83.6185 266.57 84.1343Z" fill="#D1D3D4"/>
<path d="M275.914 89.5313L173.824 148.473C172.931 148.988 171.367 148.923 170.336 148.329C169.304 147.731 169.19 146.83 170.086 146.314L272.176 87.3703C273.069 86.8545 274.633 86.9197 275.665 87.5142C276.696 88.1142 276.81 89.0155 275.914 89.5313Z" fill="#D1D3D4"/>
<path d="M285.261 94.9258L183.168 153.87C182.275 154.386 180.711 154.32 179.68 153.726C178.648 153.129 178.534 152.227 179.43 151.711L281.523 92.7676C282.416 92.2517 283.98 92.3169 285.012 92.9114C286.043 93.5087 286.155 94.41 285.261 94.9258Z" fill="#D1D3D4"/>
<rect width="168.178" height="100.185" fill="black" fill-opacity="0" transform="translate(181 92)"/>
<path d="M181.001 177.416C180.982 176.637 181.444 175.891 182.404 175.335L325.342 92.8105C327.421 91.6106 331.053 91.7597 333.456 93.1469L347.19 101.077C348.527 101.847 349.2 102.838 349.177 103.772C349.178 103.803 349.178 103.834 349.177 103.865C349.178 103.897 349.178 103.928 349.177 103.959C349.178 103.99 349.178 104.021 349.177 104.052C349.178 104.084 349.178 104.116 349.177 104.148V104.237C349.178 104.271 349.178 104.305 349.177 104.339V104.428C349.178 104.459 349.178 104.49 349.177 104.521C349.178 104.552 349.178 104.583 349.177 104.615C349.178 104.646 349.178 104.677 349.177 104.708C349.178 104.739 349.178 104.77 349.177 104.802C349.178 104.833 349.178 104.864 349.177 104.895C349.178 104.927 349.178 104.959 349.177 104.991V105.079C349.178 105.114 349.178 105.148 349.177 105.182V105.269C349.178 105.3 349.178 105.332 349.177 105.364C349.178 105.395 349.178 105.426 349.177 105.457C349.178 105.488 349.178 105.519 349.177 105.55C349.178 105.581 349.178 105.613 349.177 105.644C349.178 105.675 349.178 105.706 349.177 105.737C349.178 105.769 349.178 105.8 349.177 105.832C349.178 105.863 349.178 105.894 349.177 105.925C349.178 105.956 349.178 105.988 349.177 106.019V106.109C349.178 106.143 349.178 106.177 349.177 106.211V106.3C349.178 106.331 349.178 106.362 349.177 106.393C349.178 106.424 349.178 106.456 349.177 106.487C349.178 106.518 349.178 106.549 349.177 106.58C349.178 106.611 349.178 106.642 349.177 106.673C349.178 106.705 349.178 106.736 349.177 106.768C349.197 107.548 348.736 108.295 347.774 108.849L204.837 191.374C202.757 192.574 199.125 192.425 196.722 191.038L182.988 183.108C181.652 182.336 180.978 181.346 181.001 180.411C181 180.38 181 180.349 181.001 180.317C181 180.286 181 180.254 181.001 180.223C181 180.192 181 180.161 181.001 180.131C181 180.099 181 180.067 181.001 180.036C181 180.005 181 179.974 181.001 179.943C181 179.912 181 179.88 181.001 179.849C181 179.818 181 179.787 181.001 179.756C181 179.724 181 179.693 181.001 179.661V179.57C181 179.538 181 179.507 181.001 179.476C181 179.444 181 179.413 181.001 179.381C181 179.35 181 179.32 181.001 179.289C181 179.257 181 179.226 181.001 179.194C181 179.163 181 179.133 181.001 179.102C181 179.07 181 179.039 181.001 179.007C181 178.976 181 178.945 181.001 178.914C181 178.883 181 178.851 181.001 178.82C181 178.789 181 178.758 181.001 178.727C181 178.695 181 178.664 181.001 178.632C181 178.601 181 178.57 181.001 178.54C181 178.508 181 178.476 181.001 178.445C181 178.414 181 178.383 181.001 178.352C181 178.321 181 178.289 181.001 178.258C181 178.227 181 178.196 181.001 178.165C181 178.133 181 178.102 181.001 178.07C181 178.039 181 178.008 181.001 177.978C181 177.946 181 177.915 181.001 177.883C181 177.852 181 177.821 181.001 177.79C181 177.759 181 177.727 181.001 177.696V177.604C181 177.573 181 177.542 181.001 177.51C181 177.479 181 177.447 181.001 177.416Z" fill="#165B9C"/>
<path d="M347.774 105.76L204.836 188.288C202.757 189.488 199.124 189.338 196.722 187.951L182.988 180.021C180.585 178.634 180.324 176.538 182.404 175.335L325.341 92.8104C327.421 91.6105 331.053 91.7598 333.456 93.1471L347.19 101.077C349.593 102.462 349.853 104.56 347.774 105.76Z" fill="#2472BA"/>
<rect width="26.2359" height="15.1459" fill="black" fill-opacity="0" transform="translate(197.471 165.749)"/>
<path d="M207.709 180.371L197.471 180.895L198.386 174.99L200.973 174.996L200.216 179.293L207.701 178.881L207.709 180.371Z" fill="white"/>
<path d="M214.732 178.137L212.772 179.269L205.167 168.217L207.136 167.082L214.732 178.137Z" fill="white"/>
<path d="M213.478 166.276L223.707 165.749L222.8 171.659L220.221 171.648L220.962 167.351L213.494 167.763L213.478 166.276Z" fill="white"/>
<rect width="190.608" height="137.311" fill="black" fill-opacity="0" transform="translate(76 26)"/>
<path d="M76.0008 111.268C75.9787 110.488 76.4399 109.739 77.4039 109.183L220.344 26.809C222.423 25.6112 226.056 25.7602 228.458 27.145L264.622 47.9864C265.96 48.7568 266.633 49.7486 266.607 50.6831C266.608 50.719 266.608 50.7548 266.607 50.7906C266.608 50.826 266.608 50.8613 266.607 50.8964C266.608 50.932 266.608 50.9674 266.607 51.0028C266.608 51.0388 266.608 51.0746 266.607 51.1104C266.608 51.1458 266.608 51.1811 266.607 51.2163C266.608 51.2518 266.608 51.2873 266.607 51.3227C266.608 51.3586 266.608 51.3945 266.607 51.4303C266.608 51.4656 266.608 51.5007 266.607 51.5358C266.608 51.5715 266.608 51.6071 266.607 51.6426C266.608 51.6783 266.608 51.7139 266.607 51.7495C266.608 51.7852 266.608 51.8208 266.607 51.8564C266.608 51.892 266.608 51.9275 266.607 51.9629C266.608 51.9984 266.608 52.0339 266.607 52.0693C266.608 52.1051 266.608 52.1407 266.607 52.1763C266.608 52.2118 266.608 52.2471 266.607 52.2824C266.608 52.3181 266.608 52.3537 266.607 52.3891C266.608 52.4247 266.608 52.4603 266.607 52.4957C266.608 52.5316 266.608 52.5673 266.607 52.603C266.608 52.6386 266.608 52.6741 266.607 52.7095C266.608 52.7449 266.608 52.7802 266.607 52.8155C266.608 52.8513 266.608 52.8871 266.607 52.9228C266.608 52.9583 266.608 52.9938 266.607 53.0293C266.608 53.0647 266.608 53.1001 266.607 53.1353C266.608 53.1712 266.608 53.207 266.607 53.2428C266.608 53.2783 266.608 53.3137 266.607 53.3491C266.608 53.3845 266.608 53.4199 266.607 53.4552C266.608 53.4911 266.608 53.5269 266.607 53.5627C266.608 53.5981 266.608 53.6334 266.607 53.6686C266.608 53.7041 266.608 53.7396 266.607 53.775C266.608 53.8109 266.608 53.8468 266.607 53.8826C266.608 53.9179 266.608 53.9532 266.607 53.9884C266.608 54.0239 266.608 54.0594 266.607 54.0948C266.608 54.1307 266.608 54.1665 266.607 54.2023C266.608 54.2377 266.608 54.2729 266.607 54.3081C266.608 54.3437 266.608 54.3791 266.607 54.4145C266.608 54.4504 266.608 54.4863 266.607 54.5221C266.608 54.5575 266.608 54.5928 266.607 54.6279C266.608 54.6635 266.608 54.699 266.607 54.7344C266.608 54.7703 266.608 54.806 266.607 54.8416C266.608 54.8773 266.608 54.9128 266.607 54.9483C266.608 54.9839 266.608 55.0194 266.607 55.0548C266.608 55.0903 266.608 55.1258 266.607 55.1612C266.608 55.1969 266.608 55.2325 266.607 55.2681C266.608 55.3037 266.608 55.3392 266.607 55.3746C266.608 55.4101 266.608 55.4456 266.607 55.481C266.608 55.5168 266.608 55.5524 266.607 55.588C266.608 55.6235 266.608 55.6588 266.607 55.6941C266.608 55.7298 266.608 55.7653 266.607 55.8008C266.608 55.8364 266.608 55.872 266.607 55.9074C266.608 55.9432 266.608 55.979 266.607 56.0147C266.608 56.0503 266.608 56.0857 266.607 56.1212C266.608 56.1566 266.608 56.1919 266.607 56.2272C266.608 56.263 266.608 56.2988 266.607 56.3345C266.608 56.37 266.608 56.4055 266.607 56.441C266.608 56.4763 266.608 56.5117 266.607 56.5469C266.608 56.5845 266.608 56.6219 266.607 56.6592C266.607 56.6917 266.607 56.7241 266.607 56.7565C266.608 56.7933 266.608 56.83 266.607 56.8667C266.608 56.9042 266.608 56.9417 266.607 56.9791C266.607 57.0132 266.607 57.0473 266.606 57.0813C266.628 57.8616 266.167 58.6094 265.203 59.1646L122.263 141.541C120.184 142.739 116.551 142.59 114.149 141.205L77.9876 120.364C76.6482 119.592 75.9744 118.6 76.0008 117.665C75.9998 117.63 75.9998 117.594 76.0008 117.558C75.9998 117.523 75.9998 117.487 76.0008 117.452C75.9998 117.416 75.9998 117.381 76.0008 117.345C75.9998 117.31 75.9998 117.274 76.0008 117.239C75.9998 117.203 75.9998 117.167 76.0008 117.132C75.9998 117.096 75.9998 117.061 76.0008 117.026C75.9998 116.99 75.9998 116.954 76.0008 116.919C75.9998 116.883 75.9998 116.848 76.0008 116.812C75.9998 116.777 75.9998 116.741 76.0008 116.706C75.9998 116.67 75.9998 116.635 76.0008 116.599C75.9998 116.563 75.9998 116.528 76.0008 116.493C75.9998 116.457 75.9998 116.422 76.0008 116.386C75.9998 116.351 75.9998 116.315 76.0008 116.279C75.9998 116.244 75.9998 116.208 76.0008 116.173C75.9998 116.137 75.9998 116.102 76.0008 116.066C75.9998 116.031 75.9998 115.995 76.0008 115.96C75.9998 115.924 75.9998 115.888 76.0008 115.853C75.9998 115.817 75.9998 115.782 76.0008 115.747C75.9998 115.711 75.9998 115.675 76.0008 115.64C75.9998 115.604 75.9998 115.569 76.0008 115.533C75.9998 115.497 75.9998 115.461 76.0008 115.425C75.9998 115.39 75.9998 115.355 76.0008 115.319C75.9998 115.284 75.9998 115.248 76.0008 115.213C75.9998 115.177 75.9998 115.142 76.0008 115.106C75.9998 115.07 75.9998 115.035 76.0008 114.999C75.9998 114.964 75.9998 114.928 76.0008 114.893C75.9998 114.857 75.9998 114.822 76.0008 114.786C75.9998 114.751 75.9998 114.715 76.0008 114.68C75.9998 114.644 75.9998 114.609 76.0008 114.573C75.9998 114.538 75.9998 114.502 76.0008 114.466C75.9998 114.431 75.9998 114.395 76.0008 114.36C75.9998 114.324 75.9998 114.289 76.0008 114.254C75.9998 114.218 75.9998 114.182 76.0008 114.147C75.9998 114.111 75.9998 114.076 76.0008 114.04C75.9998 114.005 75.9998 113.969 76.0008 113.934C75.9998 113.898 75.9998 113.863 76.0008 113.827C75.9998 113.791 75.9998 113.756 76.0008 113.72C75.9998 113.685 75.9998 113.649 76.0008 113.614C75.9998 113.578 75.9998 113.543 76.0008 113.507C75.9998 113.472 75.9998 113.436 76.0008 113.4C75.9998 113.365 75.9998 113.329 76.0008 113.294C75.9998 113.258 75.9998 113.223 76.0008 113.187C75.9998 113.152 75.9998 113.116 76.0008 113.081C75.9998 113.045 75.9998 113.01 76.0008 112.974C75.9998 112.939 75.9998 112.903 76.0008 112.868C75.9998 112.832 75.9998 112.797 76.0008 112.761C75.9998 112.726 75.9998 112.69 76.0008 112.655C75.9998 112.619 75.9998 112.583 76.0008 112.548C75.9998 112.512 75.9998 112.477 76.0008 112.441C75.9998 112.406 75.9998 112.37 76.0008 112.335C75.9998 112.299 75.9998 112.264 76.0008 112.228C75.9998 112.193 75.9998 112.157 76.0008 112.121C75.9998 112.085 75.9998 112.05 76.0008 112.014C75.9998 111.978 75.9998 111.943 76.0008 111.908C75.9998 111.872 75.9998 111.837 76.0008 111.801C75.9998 111.765 75.9998 111.73 76.0008 111.694C75.9998 111.659 75.9998 111.623 76.0008 111.588C75.9998 111.552 75.9998 111.517 76.0008 111.481C75.9998 111.446 75.9998 111.41 76.0008 111.374C75.9998 111.339 75.9998 111.303 76.0008 111.268Z" fill="#165B9C"/>
<path d="M265.203 52.6609L122.263 135.038C120.184 136.235 116.551 136.086 114.149 134.702L77.9875 113.86C75.5849 112.475 75.3243 110.383 77.4039 109.183L220.344 26.809C222.423 25.6112 226.056 25.7602 228.458 27.145L264.622 47.9864C267.022 49.3684 267.283 51.4632 265.203 52.6609Z" fill="url(#paint0_linear)"/>
<rect width="160.701" height="92.7787" fill="black" fill-opacity="0" transform="translate(52.3604 18.6846)"/>
<path d="M211.658 28.1281L68.7201 110.653C66.6405 111.853 63.0081 111.703 60.6055 110.316L54.3479 106.703C51.9453 105.316 51.6847 103.22 53.7642 102.017L196.704 19.495C198.784 18.2951 202.416 18.4444 204.819 19.8316L211.077 23.4451C213.476 24.8296 213.737 26.9282 211.658 28.1281Z" fill="#1B212B"/>
<path d="M72.7734 101.838L66.6054 105.4C65.7122 105.916 64.1485 105.85 63.1168 105.256C62.0852 104.659 61.9712 103.757 62.8671 103.242L69.0351 99.6797C69.9283 99.1639 71.492 99.229 72.5236 99.8236C73.5553 100.421 73.6693 101.322 72.7734 101.838Z" fill="#D1D3D4"/>
<path d="M85.9399 94.2364L79.7719 97.7982C78.8787 98.314 77.315 98.2489 76.2833 97.6543C75.2517 97.0571 75.1377 96.1558 76.0336 95.6399L82.2016 92.0781C83.0948 91.5623 84.6585 91.6275 85.6901 92.222C86.7218 92.8193 86.8331 93.7206 85.9399 94.2364Z" fill="#D1D3D4"/>
<path d="M99.1069 86.6351L92.9389 90.1969C92.0457 90.7127 90.4819 90.6475 89.4503 90.053C88.4187 89.4557 88.3047 88.5544 89.2006 88.0386L95.3686 84.4768C96.2618 83.961 97.8255 84.0261 98.8571 84.6207C99.8888 85.2179 100 86.1192 99.1069 86.6351Z" fill="#D1D3D4"/>
<defs>
<filter id="filter0_d" x="0" y="0" width="400" height="258.379" filterUnits="userSpaceOnUse" color-interpolation-filters="sRGB">
<feFlood flood-opacity="0" result="BackgroundImageFix"/>
<feColorMatrix in="SourceAlpha" type="matrix" values="0 0 0 0 0 0 0 0 0 0 0 0 0 0 0 0 0 0 255 0"/>
<feOffset dy="20"/>
<feGaussianBlur stdDeviation="10"/>
<feColorMatrix type="matrix" values="0 0 0 0 0 0 0 0 0 0 0 0 0 0 0 0 0 0 0.25 0"/>
<feBlend mode="normal" in2="BackgroundImageFix" result="effect1_dropShadow"/>
<feBlend mode="normal" in="SourceGraphic" in2="effect1_dropShadow" result="shape"/>
</filter>
<linearGradient id="paint0_linear" x1="75.9962" y1="80.9237" x2="266.6" y2="80.9164" gradientUnits="userSpaceOnUse">
<stop stop-color="#2472BA"/>
<stop offset="1" stop-color="#2472BA" stop-opacity="0.7"/>
</linearGradient>
</defs>
</svg>
