<svg fill="none" viewBox="0 0 400 268" xmlns="http://www.w3.org/2000/svg"><g filter="url(#b)"><path d="M380 123.944l-180.56 104.06L20 124.594l180.56-104.06L380 123.944z" fill="#F0EFEF"/><path d="M380 123.771l-180.56 104.06L20 124.421l180.56-104.06L380 123.771z" fill="#F0EFEF"/><path d="M380 123.598L199.438 227.656 20 124.245 200.565 20.187 380 123.598z" fill="#F0EFEF"/><path d="M380 123.426l-180.56 104.06L20 124.076l180.56-104.06L380 123.426z" fill="#F0EFEF"/><path d="M380 123.253l-180.56 104.06L20 123.903l180.56-104.06L380 123.253z" fill="#F0EFEF"/><path d="M380 123.082l-180.56 104.06L20 123.732l180.56-104.06L380 123.082z" fill="#F0EFEF"/><path d="M380 122.909l-180.56 104.06L20 123.559l180.56-104.06L380 122.909z" fill="#F0EFEF"/><path d="M380 122.735l-180.56 104.06L20 123.385l180.56-104.06L380 122.735z" fill="#F0EFEF"/><path d="M380 122.565l-180.56 104.06L20 123.215l180.56-104.06L380 122.565z" fill="#F0EFEF"/><path d="M380 122.391l-180.56 104.06L20 123.041l180.56-104.06L380 122.391z" fill="#F0EFEF"/><path d="M380 122.22L199.44 226.28 20 122.87 200.56 18.81 380 122.22z" fill="#F0EFEF"/><path d="M380 122.047l-180.56 104.06L20 122.697l180.56-104.06L380 122.047z" fill="#F0EFEF"/><path d="M380 121.874l-180.56 104.06L20 122.524l180.56-104.06L380 121.874z" fill="#F0EFEF"/><path d="M380 121.703l-180.56 104.06L20 122.353l180.56-104.06L380 121.703z" fill="#F0EFEF"/><path d="M380 121.53L199.44 225.59 20 122.18 200.56 18.12 380 121.53z" fill="#F0EFEF"/><path d="M380 121.359l-180.56 104.06L20 122.009l180.56-104.06L380 121.359z" fill="#F0EFEF"/><path d="M380 121.185l-180.56 104.06L20 121.835l180.56-104.06L380 121.185z" fill="#F0EFEF"/><path d="M380 121.012l-180.56 104.06L20 121.662l180.56-104.06L380 121.012z" fill="#F0EFEF"/><path d="M380 120.841l-180.56 104.06L20 121.491l180.56-104.06L380 120.841z" fill="#F0EFEF"/><path d="M380 120.668l-180.56 104.06L20 121.318l180.56-104.06L380 120.668z" fill="#F0EFEF"/><path d="M380 120.494l-180.56 104.06L20 121.144l180.56-104.06L380 120.494z" fill="#F0EFEF"/><path d="M380 120.324l-180.56 104.06L20 120.974l180.56-104.06L380 120.324z" fill="#F0EFEF"/><path d="M380 120.15L199.44 224.21 20 120.8 200.56 16.74 380 120.15z" fill="#F0EFEF"/><path d="M380 119.98L199.44 224.04 20 120.63 200.56 16.57 380 119.98z" fill="#F0EFEF"/><path d="M380 119.806l-180.56 104.06L20 120.456l180.56-104.06L380 119.806z" fill="#F0EFEF"/><path d="M380 119.633l-180.56 104.06L20 120.283l180.56-104.06L380 119.633z" fill="#F0EFEF"/><path d="M380 119.462l-180.56 104.06L20 120.112l180.56-104.06L380 119.462z" fill="#F0EFEF"/><path d="M380 119.289l-180.56 104.06L20 119.939l180.56-104.06L380 119.289z" fill="#F0EFEF"/><path d="M380 119.118l-180.56 104.06L20 119.768l180.56-104.06L380 119.118z" fill="#F0EFEF"/><path d="M380 118.944l-180.56 104.06L20 119.594l180.56-104.06L380 118.944z" fill="#F0EFEF"/><path d="M380 118.771l-180.56 104.06L20 119.421l180.56-104.06L380 118.771z" fill="#F0EFEF"/><path d="M380 118.6L199.44 222.66 20 119.25 200.56 15.19 380 118.6z" fill="#F0EFEF"/><path d="M380 118.427l-180.56 104.06L20 119.077l180.56-104.06L380 118.427z" fill="#F0EFEF"/><path d="M380 118.256l-180.56 104.06L20 118.906l180.56-104.06L380 118.256z" fill="#F0EFEF"/><path d="M380 118.083l-180.56 104.06L20 118.733l180.56-104.06L380 118.083z" fill="#F0EFEF"/><path d="M380 117.909l-180.56 104.06L20 118.559l180.56-104.06L380 117.909z" fill="#F0EFEF"/><path d="M380 117.738l-180.56 104.06L20 118.388l180.56-104.06L380 117.738z" fill="#F0EFEF"/><path d="M380 117.565l-180.56 104.06L20 118.215l180.56-104.06L380 117.565z" fill="#F0EFEF"/><path d="M380 117.392l-180.56 104.06L20 118.042l180.56-104.06L380 117.392z" fill="#F0EFEF"/><path d="M380 117.221l-180.56 104.06L20 117.871l180.56-104.06L380 117.221z" fill="#F0EFEF"/><path d="M380 117.048l-180.56 104.06L20 117.698l180.56-104.06L380 117.048z" fill="#F0EFEF"/><path d="M380 116.877l-180.56 104.06L20 117.527l180.56-104.06L380 116.877z" fill="#F0EFEF"/><path d="M380 116.704l-180.56 104.06L20 117.354l180.56-104.06L380 116.704z" fill="#F0EFEF"/><path d="M380 116.53L199.44 220.59 20 117.18 200.56 13.12 380 116.53z" fill="#F0EFEF"/><path d="M380 116.359l-180.56 104.06L20 117.009l180.56-104.06L380 116.359z" fill="#F0EFEF"/><path d="M380 116.186l-180.56 104.06L20 116.836l180.56-104.06L380 116.186z" fill="#F0EFEF"/><path d="M380 116.015l-180.56 104.06L20 116.665l180.56-104.06L380 116.015z" fill="#F0EFEF"/><path d="M380 115.842l-180.56 104.06L20 116.492l180.56-104.06L380 115.842z" fill="#F0EFEF"/><path d="M380 115.668l-180.56 104.06L20 116.318l180.56-104.06L380 115.668z" fill="#F0EFEF"/><path d="M380 115.497l-180.56 104.06L20 116.147l180.56-104.06L380 115.497z" fill="#F0EFEF"/><path d="M380 115.324l-180.56 104.06L20 115.974l180.56-104.06L380 115.324z" fill="#F0EFEF"/><path d="M380 115.153l-180.56 104.06L20 115.803l180.56-104.06L380 115.153z" fill="#F0EFEF"/><path d="M380 114.98L199.44 219.04 20 115.63 200.56 11.57 380 114.98z" fill="#F0EFEF"/><path d="M380 114.806l-180.56 104.06L20 115.456l180.56-104.06L380 114.806z" fill="#F0EFEF"/><path d="M380 114.636l-180.56 104.06L20 115.286l180.56-104.06L380 114.636z" fill="#F0EFEF"/><path d="M380 114.462l-180.56 104.06L20 115.112l180.56-104.06L380 114.462z" fill="#F0EFEF"/><path d="M380 114.292l-180.56 104.06L20 114.942l180.56-104.06L380 114.292z" fill="#F0EFEF"/><path d="M380 114.118l-180.56 104.06L20 114.768l180.56-104.06L380 114.118z" fill="#F0EFEF"/><path d="M380 113.945l-180.56 104.06L20 114.595l180.56-104.06L380 113.945z" fill="#F0EFEF"/><path d="M380 113.772L199.438 217.83 20 114.422 200.565 10.364 380 113.772z" fill="#F0EFEF"/><path d="M380 113.601l-180.56 104.06L20 114.251l180.56-104.06L380 113.601z" fill="#F0EFEF"/><path d="M380 113.427l-180.56 104.06L20 114.077l180.56-104.06L380 113.427z" fill="#F0EFEF"/><path d="M380 113.427l-180.56 104.06L20 114.077l180.56-104.06L380 113.427z" fill="#fff"/><path d="M293.9 85.492l-142.94 82.374c-2.08 1.198-5.712 1.049-8.115-.336l-66.068-38.076c-2.402-1.385-2.663-3.477-.583-4.677l142.94-82.374c2.08-1.198 5.712-1.049 8.115.336l66.067 38.076c2.406 1.385 2.666 3.477.587 4.677z" fill="#F0EFEF"/><path d="M243.57 80.026l-102.09 58.835c-.893.514-2.457.45-3.489-.144-1.031-.596-1.145-1.496-.25-2.01l102.09-58.837c.894-.515 2.458-.45 3.489.144 1.035.599 1.146 1.498.253 2.013zM252.91 85.41l-102.09 58.837c-.893.515-2.457.45-3.489-.144-1.031-.596-1.145-1.496-.25-2.01l102.09-58.837c.894-.514 2.458-.45 3.489.144 1.032.596 1.146 1.496.25 2.01zM262.27 90.798l-102.09 58.834c-.893.515-2.457.45-3.489-.144-1.031-.596-1.145-1.496-.25-2.01l102.09-58.835c.895-.514 2.458-.45 3.49.144 1.032.596 1.143 1.496.25 2.01z" fill="#D1D3D4"/><path d="M346.24 115.653L203.3 198.027c-2.08 1.197-5.712 1.048-8.115-.336l-36.164-20.842c-2.402-1.385-2.663-3.477-.583-4.677l142.94-82.374c2.08-1.198 5.712-1.049 8.115.336l36.164 20.84c2.405 1.386 2.666 3.478.586 4.678z" fill="#F0EFEF"/><path d="M295.91 110.185l-102.09 58.834c-.893.514-2.457.45-3.489-.144-1.031-.596-1.145-1.496-.25-2.01l102.09-58.837c.894-.515 2.458-.45 3.489.144 1.035.599 1.146 1.498.253 2.013zM305.25 115.572l-102.09 58.836c-.893.515-2.457.45-3.489-.144-1.031-.596-1.145-1.496-.25-2.01l102.09-58.837c.894-.514 2.458-.45 3.489.144 1.032.596 1.146 1.496.25 2.01zM314.6 120.962l-102.09 58.836c-.893.515-2.457.45-3.488-.144-1.032-.596-1.146-1.496-.25-2.01l102.09-58.837c.893-.514 2.457-.45 3.488.144 1.035.596 1.146 1.496.253 2.01zM159.117 94.226l-47.544 27.399c-.893.514-2.457.45-3.488-.144-1.032-.596-1.146-1.496-.25-2.01l47.547-27.403c.893-.515 2.457-.45 3.488.144 1.03.599 1.14 1.498.247 2.013zM168.47 99.61l-47.547 27.402c-.893.515-2.457.45-3.489-.144-1.031-.596-1.145-1.496-.25-2.01l47.548-27.403c.893-.514 2.457-.45 3.488.144 1.032.596 1.143 1.496.25 2.01zM177.807 104.994l-47.544 27.4c-.893.514-2.457.45-3.488-.144-1.032-.596-1.146-1.496-.25-2.01l47.547-27.403c.893-.515 2.457-.45 3.488.144 1.03.599 1.14 1.498.247 2.013zM230.242 74.78L188.8 98.662c-1.02.588-2.807.515-3.985-.165l-18.16-10.465c-1.177-.68-1.308-1.707-.284-2.298l41.442-23.882c1.02-.588 2.807-.515 3.985.165l18.159 10.465c1.178.68 1.306 1.71.285 2.298z" fill="#D1D3D4"/><path d="M211.41 37.661h-.001l-2.233 1.287.25.433-4.467 2.575-.25-.434-4.466 2.575.249.433-4.467 2.574-.249-.433-4.467 2.574.25.433-4.467 2.575-.25-.433-4.467 2.574.25.433-4.467 2.574-.249-.433-4.467 2.574.249.434-4.466 2.574-.25-.433-4.467 2.574.25.433-4.467 2.574-.25-.433-4.466 2.574.249.434-4.467 2.574-.25-.433-4.466 2.574.25.433-4.467 2.574-.25-.433-4.467 2.575.25.433-4.467 2.574-.25-.433-4.466 2.574.25.433-4.467 2.575-.25-.434-4.467 2.575.25.433-4.467 2.574-.25-.433-4.466 2.574.25.433-4.468 2.575-.25-.434-4.466 2.575.25.433-4.467 2.574-.25-.433-4.467 2.574.25.433-4.467 2.575-.25-.434-4.466 2.575.25.433-4.467 2.574-.25-.433-4.467 2.574.25.434-4.467 2.574-.25-.433-2.233 1.287c-.504.29-1.126.5-1.821.621l.085.493c-1.312.228-2.81.15-4.18-.223l.13-.482a7.757 7.757 0 0 1-1.83-.745l-1.564-.902-.25.433-3.128-1.803.25-.433-1.565-.902-.25.433.25-.433a4.773 4.773 0 0 1-1.084-.829l-.362.344c-.845-.889-1.02-1.895-.492-2.748l.425.263c.18-.29.48-.581.93-.841l2.233-1.287-.25-.433 4.467-2.574.25.433 4.467-2.574-.25-.434 4.467-2.574.25.433 4.466-2.574-.25-.433 4.467-2.574.25.433 4.467-2.574-.25-.433 4.467-2.575.25.434 4.466-2.574-.25-.434 4.467-2.574.25.433 4.467-2.574-.25-.433 4.467-2.574.25.433 4.466-2.574-.25-.433 4.468-2.575.25.434 4.466-2.575-.25-.433 4.467-2.574.25.433 4.467-2.574-.25-.433 4.467-2.574.25.433 4.466-2.574-.25-.434 4.467-2.574.25.433 4.467-2.574-.25-.433 4.467-2.574.25.433 4.466-2.574-.249-.433 4.467-2.575.25.434 4.466-2.574-.25-.434 4.467-2.574.25.433 4.467-2.574-.25-.433 4.467-2.574.25.433 4.466-2.574-.249-.433 4.466-2.575.25.434 4.467-2.575-.25-.433 4.467-2.574.25.433 2.233-1.287c.504-.29 1.126-.5 1.821-.621l-.085-.493c1.312-.228 2.81-.15 4.181.223l-.13.482c.66.18 1.281.43 1.828.745l1.565.902.25-.433 3.128 1.803-.25.433 1.565.902.18-.31-.18.31c.453.261.812.543 1.084.828l.362-.344c.844.89 1.02 1.895.492 2.747l-.425-.263c-.179.29-.479.58-.929.84z" stroke="#D1D3D4" stroke-dasharray="5 5"/><path transform="translate(52.36 5.967)" d="M.01 85.398c-.082-.828.375-1.63 1.394-2.218L144.344.81c2.08-1.199 5.712-1.05 8.115.335l6.257 3.607c1.4.807 2.073 1.856 1.976 2.828.012.125.012.25 0 .372.012.125.012.25 0 .372.012.125.012.25 0 .372.012.125.012.25 0 .373.012.125.012.249 0 .372.012.124.012.249 0 .372.012.125.012.25 0 .372.012.125.012.25 0 .372.012.125.012.25 0 .372.012.125.012.25 0 .372.012.125.012.25 0 .373.012.125.012.25 0 .372.012.125.012.249 0 .372.012.125.012.25 0 .372.012.125.012.25 0 .373.012.124.012.249 0 .371.012.125.012.25 0 .373.012.125.012.249 0 .372.012.125.012.25 0 .372.012.125.012.25 0 .372.012.125.012.25 0 .373.012.124.012.249 0 .372.012.125.012.249 0 .372.012.125.012.249 0 .372.012.125.012.25 0 .372.012.125.012.25 0 .373.012.124.012.248 0 .371.012.125.012.25 0 .373.012.125.012.249 0 .372.012.125.012.249 0 .372.012.125.012.249 0 .372.012.125.012.25 0 .372.012.125.012.25 0 .372.012.125.012.25 0 .373.012.124.012.249 0 .372.012.125.012.249 0 .372.012.125.012.249 0 .372.012.125.012.25 0 .372.012.125.012.25 0 .372.012.125.012.25 0 .372.012.125.012.25 0 .373.012.125.012.249 0 .372.012.125.012.249 0 .372.012.125.012.25 0 .372.012.125.012.25 0 .372.012.125.012.25 0 .373.012.124.012.249 0 .372.012.124.012.249 0 .372.012.125.012.249 0 .372.012.125.012.249 0 .372.012.125.012.25 0 .372.012.125.012.25 0 .372.012.125.012.25 0 .373.012.125.012.25 0 .373.012.125.012.249 0 .371.012.125.012.25 0 .373.012.125.012.25 0 .372.012.125.012.25 0 .372.012.125.012.25 0 .372.012.125.012.25 0 .373.08.827-.376 1.629-1.395 2.216l-142.94 82.376c-2.08 1.198-5.712 1.049-8.115-.336l-6.257-3.606c-1.404-.81-2.076-1.86-1.978-2.832a1.89 1.89 0 0 1 0-.373 1.88 1.88 0 0 1 0-.371 1.885 1.885 0 0 1 0-.373 1.88 1.88 0 0 1 0-.372 1.88 1.88 0 0 1 0-.371 1.885 1.885 0 0 1 0-.373 1.89 1.89 0 0 1 0-.373 1.88 1.88 0 0 1 0-.371 1.885 1.885 0 0 1 0-.373 1.88 1.88 0 0 1 0-.372 1.88 1.88 0 0 1 0-.371 1.885 1.885 0 0 1 0-.373 1.89 1.89 0 0 1 0-.373 1.88 1.88 0 0 1 0-.371 1.875 1.875 0 0 1 0-.372 1.89 1.89 0 0 1 0-.373 1.88 1.88 0 0 1 0-.371 1.885 1.885 0 0 1 0-.373 1.89 1.89 0 0 1 0-.373 1.88 1.88 0 0 1 0-.371 1.88 1.88 0 0 1 0-.373 1.888 1.888 0 0 1 0-.372 1.883 1.883 0 0 1 0-.371 1.881 1.881 0 0 1 0-.373 1.886 1.886 0 0 1 0-.373 1.884 1.884 0 0 1 0-.37 1.881 1.881 0 0 1 0-.373 1.888 1.888 0 0 1 0-.373 1.883 1.883 0 0 1 0-.371 1.881 1.881 0 0 1 0-.373 1.887 1.887 0 0 1 0-.373 1.883 1.883 0 0 1 0-.37 1.881 1.881 0 0 1 0-.373 1.888 1.888 0 0 1 0-.373 1.883 1.883 0 0 1 0-.371 1.881 1.881 0 0 1 0-.373 1.887 1.887 0 0 1 0-.372 1.881 1.881 0 0 1 0-.373 1.888 1.888 0 0 1 0-.373 1.883 1.883 0 0 1 0-.371 1.881 1.881 0 0 1 0-.373 1.887 1.887 0 0 1 0-.372 1.883 1.883 0 0 1 0-.371 1.881 1.881 0 0 1 0-.373 1.887 1.887 0 0 1 0-.373 1.884 1.884 0 0 1 0-.37 1.881 1.881 0 0 1 0-.373 1.887 1.887 0 0 1 0-.373 1.884 1.884 0 0 1 0-.371 1.881 1.881 0 0 1 0-.373 1.886 1.886 0 0 1 0-.372 1.884 1.884 0 0 1 0-.372 1.881 1.881 0 0 1 0-.372 1.888 1.888 0 0 1 0-.373 1.883 1.883 0 0 1 0-.371 1.881 1.881 0 0 1 0-.373 1.886 1.886 0 0 1 0-.372 1.884 1.884 0 0 1 0-.372 1.881 1.881 0 0 1 0-.372 1.888 1.888 0 0 1 0-.373z" fill="url(#a)"/><path d="M52.36 85.261c-.02-.779.442-1.525 1.404-2.08L196.704.808c2.08-1.198 5.712-1.049 8.115.336l6.257 3.607c1.336.769 2.009 1.758 1.985 2.69V13.02a1.62 1.62 0 0 1 0 .098v.196c.02.778-.441 1.525-1.404 2.08L68.717 97.769c-2.08 1.197-5.712 1.048-8.115-.336l-6.257-3.607c-1.338-.771-2.011-1.761-1.987-2.694V85.26z" fill="#0A0C0E"/><path d="M211.66 9.426L68.72 91.8c-2.08 1.198-5.712 1.049-8.114-.336l-6.258-3.607c-2.403-1.384-2.663-3.476-.584-4.677L196.704.81c2.08-1.199 5.712-1.05 8.115.335l6.257 3.607c2.4 1.382 2.661 3.474.581 4.675z" fill="#1B212B"/><path d="M72.774 83.002l-6.168 3.555c-.893.515-2.457.45-3.489-.144-1.031-.596-1.145-1.495-.25-2.01l6.169-3.556c.893-.514 2.457-.45 3.488.144 1.032.594 1.146 1.493.25 2.01zM85.94 75.414l-6.168 3.555c-.893.515-2.457.45-3.489-.144-1.031-.596-1.145-1.495-.25-2.01l6.169-3.556c.893-.514 2.457-.45 3.488.144 1.032.594 1.143 1.493.25 2.01zM99.107 67.826l-6.168 3.555c-.893.515-2.457.45-3.489-.144-1.031-.596-1.145-1.495-.25-2.01l6.169-3.556c.893-.514 2.457-.45 3.488.144 1.032.594 1.143 1.493.25 2.01zM202.551 8.21l-6.168 3.555c-.893.515-2.457.45-3.489-.144-1.031-.596-1.145-1.496-.25-2.01l6.169-3.556c.893-.515 2.457-.45 3.488.144 1.032.593 1.143 1.493.25 2.01z" fill="#D1D3D4"/></g><defs><filter id="b" x="0" y="0" width="400" height="268" color-interpolation-filters="sRGB" filterUnits="userSpaceOnUse"><feFlood flood-opacity="0" result="BackgroundImageFix"/><feColorMatrix in="SourceAlpha" values="0 0 0 0 0 0 0 0 0 0 0 0 0 0 0 0 0 0 255 0"/><feOffset dy="20"/><feGaussianBlur stdDeviation="10"/><feColorMatrix values="0 0 0 0 0 0 0 0 0 0 0 0 0 0 0 0 0 0 0.25 0"/><feBlend in2="BackgroundImageFix" result="effect1_dropShadow"/><feBlend in="SourceGraphic" in2="effect1_dropShadow" result="shape"/></filter><linearGradient id="a" x2="1" gradientTransform="matrix(21.311 42.003 -58.536 29.591 71.104 22.73)" gradientUnits="userSpaceOnUse"><stop stop-color="#1B212B" offset="0"/><stop stop-color="#1B212B" stop-opacity="0" offset="1"/></linearGradient></defs></svg>