<svg fill="none" viewBox="0 0 400 261" xmlns="http://www.w3.org/2000/svg"><g filter="url(#b)"><path d="M379.85 106.176l.15-.087L200.56 2.49 20 106.74l.148.085-.148.086.15.087-.15.087.15.086-.15.087.148.086-.148.085.15.087-.15.087.148.086-.148.085.15.087-.15.087.15.087-.15.087.148.085-.148.086.15.087-.15.086.15.087-.15.087.148.086-.148.085.15.087-.15.087.148.085-.148.086.15.087-.15.087.15.087-.15.086.148.086-.148.086.15.087-.15.086.148.086-.148.085.15.087-.15.087.15.087-.15.087.148.085-.148.086.15.087-.15.086.148.086-.148.086.15.087-.15.086.15.087-.15.087.148.085-.148.086.15.087-.15.087.15.087-.15.087.148.085-.148.086.15.086-.15.087.148.086-.148.085.15.087-.15.087.15.087-.15.087.148.085-.148.086.15.087-.15.087.148.085-.148.086.15.087-.15.087.15.086-.15.087.148.086-.148.085.15.087-.15.087.148.086-.148.085.15.087-.15.087.15.087-.15.087.148.085-.148.086.15.086-.15.087.148.086-.148.085.15.087-.15.087.15.087-.15.087.148.085-.148.086.15.087-.15.087.15.087-.15.086.148.086-.148.085.15.087-.15.087.148.086-.148.085.15.087-.15.087.15.087-.15.087.148.085-.148.086.15.087-.15.087.148.085-.148.085.15.087-.15.087 179.44 103.6L380 116.622l-.148-.086.148-.086-.15-.086.15-.087-.15-.087.15-.087-.148-.085.148-.086-.15-.087.15-.087-.148-.085.148-.086-.15-.087.15-.086-.15-.087.15-.087-.148-.086.148-.085-.15-.087.15-.087-.148-.085.148-.086-.15-.087.15-.087-.15-.087.15-.087-.148-.085.148-.086-.15-.087.15-.086-.148-.086.148-.085-.15-.087.15-.087-.15-.087.15-.087-.148-.085.148-.086-.15-.087.15-.087-.148-.085.148-.086-.15-.087.15-.086-.15-.087.15-.087-.148-.086.148-.085-.15-.087.15-.087-.15-.087.15-.087-.148-.085.148-.086-.15-.086.15-.087-.148-.086.148-.085-.15-.087.15-.087-.15-.087.15-.087-.148-.085.148-.086-.15-.087.15-.087-.148-.085.148-.086-.15-.087.15-.087-.15-.086.15-.087-.148-.086.148-.085-.15-.087.15-.087-.148-.086.148-.085-.15-.087.15-.087-.15-.087.15-.086-.148-.086.148-.086-.15-.087.15-.086-.148-.086.148-.085-.15-.087.15-.087-.15-.087.15-.087-.148-.085.148-.086-.15-.087.15-.087-.15-.087.15-.087-.148-.085.148-.085-.15-.087.15-.087-.148-.086.148-.085-.15-.087.15-.087-.15-.087.15-.087-.148-.085.148-.086-.15-.087.15-.087-.148-.085.148-.085-.15-.087.15-.087-.15-.087.15-.087-.148-.086.148-.085-.15-.087z" fill="#F0EFEF"/></g><path d="M380 106.096l-180.56 104.25L20 106.746 200.56 2.496 380 106.096z" fill="#fff"/><path d="M295.45 137.638l-92.157 53.205c-2.08 1.2-5.712 1.05-8.114-.337l-39.9-23.035c-2.403-1.387-2.664-3.483-.584-4.685l92.154-53.205c2.08-1.2 5.712-1.05 8.115.336l39.902 23.038c2.402 1.385 2.663 3.483.584 4.683z" fill="#F0EFEF"/><path d="M252.674 123.496l-73.881 42.655c-.893.516-2.457.451-3.489-.144-1.031-.597-1.145-1.498-.25-2.014l73.879-42.655c.893-.516 2.457-.45 3.488.144 1.035.597 1.146 1.499.253 2.014zM262.011 128.89l-73.878 42.651c-.893.516-2.457.45-3.489-.144-1.031-.597-1.145-1.498-.25-2.014l73.879-42.655c.893-.516 2.457-.45 3.488.144 1.032.6 1.143 1.501.25 2.017zM271.364 134.286l-73.881 42.655c-.893.516-2.457.451-3.489-.143-1.031-.598-1.145-1.5-.25-2.015l73.879-42.655c.893-.516 2.457-.45 3.488.144 1.035.597 1.146 1.499.253 2.014z" fill="#D1D3D4"/><path d="M239.38 105.268l-92.157 53.205c-2.08 1.2-5.712 1.05-8.115-.337L76.78 122.151c-2.402-1.387-2.663-3.483-.583-4.685L168.35 64.26c2.08-1.2 5.712-1.051 8.115.336l62.332 35.985c2.402 1.387 2.663 3.486.583 4.686z" fill="#F0EFEF"/><path d="M202.201 94.357l-73.878 42.652c-.893.516-2.457.45-3.488-.144-1.032-.597-1.146-1.498-.25-2.014l73.878-42.655c.893-.516 2.457-.45 3.488.144 1.032.6 1.143 1.501.25 2.017zM211.551 99.751l-73.878 42.655c-.893.516-2.457.451-3.489-.143-1.031-.598-1.145-1.5-.25-2.015l73.879-42.655c.893-.516 2.457-.45 3.488.144 1.032.597 1.143 1.499.25 2.014zM220.891 105.15L147.013 147.8c-.893.516-2.457.45-3.489-.144-1.031-.597-1.145-1.498-.25-2.014l73.879-42.655c.893-.516 2.457-.45 3.488.144 1.032.6 1.143 1.501.25 2.017zM134.668 100.973l-34.38 19.851c-.893.516-2.457.451-3.488-.144-1.032-.597-1.146-1.498-.25-2.014l34.38-19.85c.893-.517 2.457-.452 3.488.143 1.032.597 1.143 1.499.25 2.014zM144.013 106.366l-34.38 19.851c-.893.516-2.457.451-3.488-.144-1.032-.597-1.146-1.498-.25-2.014l34.38-19.85c.893-.517 2.457-.452 3.488.143 1.032.595 1.143 1.499.25 2.014zM153.353 111.766l-34.38 19.851c-.893.516-2.457.451-3.488-.143-1.032-.598-1.146-1.5-.25-2.015l34.38-19.85c.893-.517 2.457-.452 3.488.143 1.032.597 1.146 1.499.25 2.014zM192.625 89.093l-28.275 16.324c-1.02.59-2.807.516-3.985-.166l-18.16-10.485c-1.178-.681-1.308-1.71-.284-2.302l28.275-16.324c1.02-.589 2.807-.516 3.985.166L192.34 86.79c1.178.684 1.306 1.713.285 2.302z" fill="#D1D3D4"/><path d="M211.66 30.625L68.72 113.15c-2.08 1.2-5.712 1.05-8.114-.337l-6.258-3.614c-2.403-1.387-2.663-3.483-.584-4.685l142.94-82.522c2.08-1.2 5.712-1.05 8.115.336l6.257 3.614c2.4 1.384 2.661 3.48.581 4.683z" fill="#1B212B"/><path d="M72.774 104.336l-6.168 3.562c-.893.516-2.457.45-3.489-.144-1.031-.597-1.145-1.498-.25-2.014l6.169-3.562c.893-.516 2.457-.45 3.488.144 1.032.595 1.146 1.499.25 2.014zM85.94 96.732l-6.168 3.562c-.893.516-2.457.45-3.489-.144-1.031-.597-1.145-1.498-.25-2.014l6.169-3.562c.893-.516 2.457-.45 3.488.144 1.032.595 1.143 1.499.25 2.014zM99.107 89.131l-6.168 3.562c-.893.516-2.457.45-3.489-.144-1.031-.597-1.145-1.498-.25-2.014l6.169-3.562c.893-.516 2.457-.45 3.488.144 1.032.595 1.143 1.499.25 2.014zM202.551 29.405l-6.168 3.562c-.893.516-2.457.45-3.489-.144-1.031-.597-1.145-1.498-.25-2.014l6.169-3.562c.893-.516 2.457-.45 3.488.144 1.032.595 1.143 1.499.25 2.014z" fill="#D1D3D4"/><path d="M344.35 109.409l-31.967 18.455c-2.08 1.2-5.712 1.05-8.115-.337l-118.4-68.359c-2.403-1.387-2.663-3.483-.584-4.685l31.967-18.455c2.08-1.2 5.712-1.051 8.115.336l118.4 68.362c2.403 1.385 2.663 3.483.584 4.683z" stroke="#D1D3D4" stroke-dasharray="5 5"/><path transform="translate(183.88 4.273)" d="M.058 21.774c-.228-.929.21-1.852 1.346-2.509L33.371.81c2.08-1.2 5.712-1.05 8.115.337l118.4 68.362c1.538.886 2.198 2.064 1.929 3.112a1.9 1.9 0 0 1 0 .938c.078.317.078.633 0 .938.078.316.078.632 0 .937.078.317.078.633 0 .938.078.316.078.633 0 .937.078.317.079.634 0 .939.078.316.078.632 0 .937.078.317.078.633 0 .937a1.91 1.91 0 0 1 0 .938c.078.317.078.633 0 .938.078.317.078.633 0 .937.078.317.078.633 0 .938.078.317.078.633 0 .938a1.9 1.9 0 0 1 0 .938c.078.317.078.632 0 .937.078.317.078.633 0 .937a1.91 1.91 0 0 1 0 .938c.078.317.078.633 0 .938a1.9 1.9 0 0 1 0 .939c.078.316.078.632 0 .937.078.316.078.632 0 .937a1.91 1.91 0 0 1 0 .938c.078.317.078.632 0 .937.078.317.079.634 0 .939.078.316.078.632 0 .937.078.317.078.632 0 .937.078.317.078.633 0 .938.078.317.078.633 0 .938.078.317.079.633 0 .938.078.317.078.633 0 .938.078.316.078.632 0 .937a1.91 1.91 0 0 1 0 .938c.229.929-.21 1.852-1.345 2.508l-31.967 18.455c-2.08 1.2-5.712 1.05-8.115-.337L1.988 54.895C.45 54.007-.21 52.829.059 51.78a1.905 1.905 0 0 1 0-.938 1.908 1.908 0 0 1 0-.938 1.91 1.91 0 0 1 0-.938 1.908 1.908 0 0 1 0-.937 1.905 1.905 0 0 1 0-.938 1.91 1.91 0 0 1 0-.937 1.908 1.908 0 0 1 0-.937 1.905 1.905 0 0 1 0-.938 1.906 1.906 0 0 1 0-.938 1.91 1.91 0 0 1 0-.938 1.908 1.908 0 0 1 0-.938 1.908 1.908 0 0 1 0-.937 1.904 1.904 0 0 1 0-.938 1.906 1.906 0 0 1 0-.937 1.91 1.91 0 0 1 0-.938 1.908 1.908 0 0 1 0-.938 1.908 1.908 0 0 1 0-.937 1.904 1.904 0 0 1 0-.938 1.906 1.906 0 0 1 0-.938 1.91 1.91 0 0 1 0-.937 1.908 1.908 0 0 1 0-.939 1.908 1.908 0 0 1 0-.937 1.904 1.904 0 0 1 0-.937 1.906 1.906 0 0 1 0-.938 1.91 1.91 0 0 1 0-.938 1.908 1.908 0 0 1 0-.938 1.908 1.908 0 0 1 0-.937 1.904 1.904 0 0 1 0-.938 1.91 1.91 0 0 1 0-.938 1.908 1.908 0 0 1 0-.937 1.905 1.905 0 0 1 0-.937 1.91 1.91 0 0 1 0-.938z" fill="url(#a)" opacity=".7"/><path d="M183.881 21.364c-.027-.786.434-1.54 1.403-2.1L217.25.81c2.08-1.2 5.712-1.05 8.115.337l118.4 68.362c1.345.775 2.018 1.773 1.987 2.713v.258a2.8 2.8 0 0 1 0 .13v.518a2.77 2.77 0 0 1 0 .129v.518a2.83 2.83 0 0 1 0 .13 2.77 2.77 0 0 1 0 .129v.13a2.77 2.77 0 0 1 0 .129v1.166a2.83 2.83 0 0 1 0 .13v.517a2.8 2.8 0 0 1 0 .13v.13c.026.786-.434 1.54-1.403 2.099L312.383 96.92c-2.08 1.2-5.712 1.05-8.115-.337l-118.4-68.359c-1.346-.776-2.02-1.775-1.987-2.715a1.956 1.956 0 0 1 0-.131 1.906 1.906 0 0 1 0-.13 1.853 1.853 0 0 1 0-.127 1.995 1.995 0 0 1 0-.133 1.856 1.856 0 0 1 0-.127 1.891 1.891 0 0 1 0-.13 1.947 1.947 0 0 1 0-.13 1.906 1.906 0 0 1 0-.13 1.92 1.92 0 0 1 0-.13 1.856 1.856 0 0 1 0-.127 1.992 1.992 0 0 1 0-.132 1.856 1.856 0 0 1 0-.128 1.891 1.891 0 0 1 0-.129 1.95 1.95 0 0 1 0-.13 1.906 1.906 0 0 1 0-.13 1.918 1.918 0 0 1 0-.13 1.856 1.856 0 0 1 0-.128 1.992 1.992 0 0 1 0-.132 1.856 1.856 0 0 1 0-.128 1.891 1.891 0 0 1 0-.129 1.95 1.95 0 0 1 0-.13 1.87 1.87 0 0 1 0-.129 1.897 1.897 0 0 1 0-.129 1.95 1.95 0 0 1 0-.13 1.906 1.906 0 0 1 0-.13 1.92 1.92 0 0 1 0-.13 1.853 1.853 0 0 1 0-.128 1.995 1.995 0 0 1 0-.132 1.856 1.856 0 0 1 0-.128 1.897 1.897 0 0 1 0-.129 1.941 1.941 0 0 1 0-.13 1.906 1.906 0 0 1 0-.13z" fill="#0A0C0E"/><path d="M344.35 74.192l-31.967 18.455c-2.08 1.2-5.712 1.05-8.115-.337l-118.4-68.362c-2.403-1.387-2.663-3.483-.584-4.685L217.251.81c2.08-1.2 5.712-1.05 8.115.336l118.4 68.362c2.403 1.385 2.663 3.483.584 4.683z" fill="#1B212B"/><path d="M223.099 8.225l-24.976 14.42c-.893.516-2.457.451-3.489-.143-1.031-.597-1.145-1.499-.25-2.015l24.977-14.42c.893-.516 2.457-.451 3.488.143 1.032.595 1.143 1.496.25 2.015zM230.579 12.541l-24.976 14.421c-.893.516-2.457.451-3.489-.144-1.031-.597-1.145-1.498-.25-2.014l24.977-14.42c.893-.517 2.457-.452 3.488.143 1.032.595 1.143 1.496.25 2.014zM238.059 16.857l-24.976 14.421c-.893.516-2.457.451-3.489-.143-1.031-.598-1.145-1.5-.25-2.015l24.977-14.42c.893-.517 2.457-.452 3.488.143 1.032.595 1.143 1.496.25 2.014zM245.529 21.174l-24.976 14.421c-.893.516-2.457.451-3.489-.144-1.031-.597-1.145-1.498-.25-2.014l24.977-14.42c.893-.517 2.457-.452 3.488.143 1.032.595 1.143 1.496.25 2.014zM267.959 34.123l-24.976 14.421c-.893.516-2.457.451-3.489-.143-1.031-.598-1.145-1.5-.25-2.015l24.977-14.42c.893-.517 2.457-.452 3.488.143 1.032.595 1.143 1.496.25 2.014zM275.439 38.44l-24.976 14.421c-.893.516-2.457.451-3.488-.144-1.032-.597-1.146-1.498-.25-2.014l24.976-14.42c.893-.517 2.457-.452 3.488.143 1.032.595 1.143 1.496.25 2.014zM282.919 42.756l-24.976 14.421c-.893.516-2.457.451-3.489-.144-1.031-.597-1.145-1.498-.25-2.014l24.977-14.42c.893-.517 2.457-.452 3.488.143 1.032.595 1.143 1.499.25 2.014zM290.389 47.073l-24.976 14.421c-.893.516-2.457.451-3.489-.144-1.031-.597-1.145-1.498-.25-2.014l24.977-14.42c.893-.517 2.457-.452 3.488.143 1.032.595 1.143 1.499.25 2.014zM312.819 60.023l-24.976 14.421c-.893.516-2.457.451-3.489-.144-1.031-.597-1.145-1.498-.25-2.014l24.977-14.42c.893-.517 2.457-.452 3.488.143 1.032.595 1.143 1.499.25 2.014zM320.299 64.34l-24.976 14.42c-.893.516-2.457.451-3.488-.144-1.032-.597-1.146-1.498-.25-2.014l24.976-14.42c.893-.517 2.457-.452 3.488.143 1.032.595 1.143 1.499.25 2.014zM327.779 68.656l-24.976 14.421c-.893.516-2.457.451-3.489-.143-1.031-.598-1.145-1.5-.25-2.015l24.977-14.42c.893-.517 2.457-.452 3.488.143 1.032.595 1.143 1.499.25 2.014zM335.249 72.972l-24.976 14.421c-.893.516-2.457.451-3.489-.144-1.031-.597-1.145-1.498-.25-2.014l24.977-14.42c.893-.517 2.457-.452 3.488.143 1.032.597 1.143 1.499.25 2.014z" fill="#D1D3D4"/><defs><filter id="b" x="0" y="2.496" width="400" height="258.38" color-interpolation-filters="sRGB" filterUnits="userSpaceOnUse"><feFlood flood-opacity="0" result="BackgroundImageFix"/><feColorMatrix in="SourceAlpha" values="0 0 0 0 0 0 0 0 0 0 0 0 0 0 0 0 0 0 255 0"/><feOffset dy="20"/><feGaussianBlur stdDeviation="10"/><feColorMatrix values="0 0 0 0 0 0 0 0 0 0 0 0 0 0 0 0 0 0 0.25 0"/><feBlend in2="BackgroundImageFix" result="effect1_dropShadow"/><feBlend in="SourceGraphic" in2="effect1_dropShadow" result="shape"/></filter><linearGradient id="a" x2="1" gradientTransform="matrix(-34.509 58.07 -80.023 -41.906 138.13 48.68)" gradientUnits="userSpaceOnUse"><stop stop-color="#1B212B" offset="0"/><stop stop-color="#1B212B" stop-opacity="0" offset="1"/></linearGradient></defs></svg>