<?xml version="1.0" encoding="UTF-8"?>
<svg viewBox="0 0 142 142" xmlns="http://www.w3.org/2000/svg">
<circle cx="70" cy="70" r="70" fill="#EFEFEF"/>
<path transform="translate(2.9165 2.9166)" d="m15.615 0l-15.615 40.125h5.7335l4.1477-10.739h16.896l4.3306 11.212 5.7945-0.8261-15.981-39.771h-5.3066zm9.3932 24.842h-13.48l6.6485-17.23 6.8314 17.23z" fill="#1B212B"/>
<path transform="translate(2.9165 2.9166)" d="m43.794 17.761c3.009-1.2981 5.8555-1.9472 8.5392-1.9472 2.1959 0 3.7207 0.6294 4.5747 1.8882 0.8946 1.2195 1.3419 2.9897 1.3419 5.3107h-7.0145c-3.2937 0-5.9368 0.7868-7.9293 2.3603-1.9518 1.5342-2.9278 3.6978-2.9278 6.4909 0 2.7143 0.8743 4.8976 2.6228 6.5498 1.7485 1.6129 4.3103 2.4193 7.6854 2.4193 1.5045 0 3.0497-0.3343 4.6356-1.0031 1.5859-0.6687 2.9278-1.4752 4.0257-2.4193l0.7319 2.7143h4.0867v-19.414c0-1.8096-0.5287-3.4815-1.5859-5.0157-1.0166-1.5342-2.4398-2.734-4.2697-3.5994-1.8298-0.9048-3.863-1.3572-6.0994-1.3572-1.3826 0-3.1515 0.2557-5.3066 0.7671-2.1145 0.4721-3.7004 1.0621-4.7576 1.7702l1.6469 4.4846zm1.8298 14.103c0-1.4162 0.488-2.616 1.4639-3.5995s2.3178-1.4752 4.0256-1.4752h7.1974v5.7828c-1.0572 1.1408-2.2568 2.0652-3.5987 2.7733-1.3418 0.6688-2.7244 1.0032-4.1476 1.0032-1.5859 0-2.8058-0.4328-3.6597-1.2982-0.8539-0.9048-1.2809-1.9669-1.2809-3.1864z" fill="#1B212B"/>
<path transform="translate(40.834 40.833)" d="m49.583 0c-27.384 0-49.583 22.199-49.583 49.583v0.0439c0.0012912 1.9433 1.9924 3.2514 3.7859 2.5024 3.9215-1.6411 8.2264-2.5463 12.741-2.5463 18.227 0 33.057 14.828 33.057 33.056 0 4.5154-0.9051 8.8204-2.5463 12.742-0.7489 1.7935 0.5591 3.7846 2.5024 3.7859h0.0439c27.384 0 49.583-22.199 49.583-49.583 0-27.383-22.2-49.583-49.583-49.583zm10.846 69.21c-4.2792 0-7.7474-3.4683-7.7474-7.7474 0-4.2792 3.4682-7.7474 7.7474-7.7474 4.2791 0 7.7474 3.4682 7.7474 7.7474 0 4.2791-3.4683 7.7474-7.7474 7.7474z" fill="#fff" stroke="#1B212B" stroke-width="3"/>
<circle transform="translate(61.25 61.25)" cx="8.75" cy="8.75" r="8.75" fill="#1E72BD"/>
<circle transform="translate(87.5 52.5)" cx="8.75" cy="8.75" r="8.75" fill="#BCD5EC"/>
<circle transform="translate(110.83 72.917)" cx="8.75" cy="8.75" r="8.75" fill="#E9F1F9"/>
</svg>
