<?xml version="1.0" encoding="UTF-8"?>
<svg fill="none" viewBox="0 0 140 140" xmlns="http://www.w3.org/2000/svg">
<circle cx="70" cy="70" r="70" fill="#EFEFEF"/>
<path transform="translate(106.3) rotate(40.324)" d="m40.571 59.333c0 32.769-20.286 52.74-20.286 52.74s-20.286-19.971-20.286-52.74c0-7.5549 1.0783-14.78 2.7376-21.426 0.56635-2.2683 12.477 1.6481 12.477 1.6481s-8.6423-13.896-7.5826-16.481c5.752-14.036 12.654-23.074 12.654-23.074s20.286 26.564 20.286 59.333z" fill="#fff"/>
<path transform="translate(106.3) rotate(40.324)" d="m20.286 69.222v72.518m20.286-82.407c0 32.769-20.286 52.74-20.286 52.74s-20.286-19.971-20.286-52.74c0-7.5549 1.0783-14.78 2.7376-21.426 0.56635-2.2683 12.477 1.6481 12.477 1.6481s-8.6423-13.896-7.5826-16.481c5.752-14.036 12.654-23.074 12.654-23.074s20.286 26.564 20.286 59.333z" stroke="#000" stroke-width="3"/>
</svg>
