<?xml version="1.0" encoding="UTF-8"?> <!-- Generator: Adobe Illustrator 21.0.0, SVG Export Plug-In . SVG Version: 6.00 Build 0) --> <svg xmlns="http://www.w3.org/2000/svg" xmlns:xlink="http://www.w3.org/1999/xlink" version="1.1" id="Dark" x="0px" y="0px" viewBox="0 0 600 600" style="enable-background:new 0 0 600 600;" xml:space="preserve"> <style type="text/css"> .st0{fill:#1B212B;} </style> <path class="st0" d="M485.2,427.8l-99.1-46.2l15.8-34c5.6-11.9,8.8-24.3,10-36.7c3.3-33.7-9-67.3-33.2-91.1 c-8.9-8.7-19.3-16.1-31.3-21.7c-11.9-5.6-24.3-8.8-36.7-10c-33.7-3.3-67.4,9-91.1,33.2c-8.7,8.9-16.1,19.3-21.7,31.3l-15.8,34 l-30.4,65.2c-0.7,1.5-0.1,3.3,1.5,4l65.2,30.4l34,15.8l34,15.8l68,31.7l74.7,34.8c-65,45.4-152.1,55.2-228.7,17.4 C90.2,447.4,44.1,313.3,97.3,202.6c53.3-110.8,186-158.5,297.8-106.3c88.1,41.1,137.1,131.9,129.1,223.4c-0.1,1.3,0.6,2.4,1.7,3 l65.6,30.6c1.8,0.8,3.9-0.3,4.2-2.2c22.6-130.7-44-265.4-170.5-323.5c-150.3-69-327-4.1-396.9,145.8 c-70,150.1-5.1,328.5,145.1,398.5c114.1,53.2,244.5,28.4,331.3-52.3c17.9-16.6,33.9-35.6,47.5-56.8c1-1.5,0.4-3.6-1.3-4.3 L485.2,427.8z M250.2,318.2l15.8-34c8.8-18.8,31.1-26.9,49.8-18.1s26.9,31,18.1,49.8l-15.8,34l-34-15.8L250.2,318.2z"></path> </svg> 