<?xml version="1.0" encoding="UTF-8"?>
<svg fill="none" viewBox="0 0 1402 857" xmlns="http://www.w3.org/2000/svg">
<g filter="url(#d)">
<path transform="translate(30.059 10.038)" d="m4.4809 319.93c-3.0776 1.78-4.5488 4.171-4.4785 6.666v21.51c-0.083496 2.986 2.0649 6.155 6.3325 8.621l755.83 436.58c7.656 4.416 19.244 4.899 25.874 1.07l549.42-317.36c3.08-1.776 4.55-4.166 4.48-6.66v-21.511c0.08-2.984-2.07-6.152-6.33-8.618l-755.83-436.58c-7.656-4.4163-19.244-4.8994-25.874-1.0696l-549.42 317.35z" fill="#D1D3D4"/>
<path transform="translate(30.059 10.038)" d="m1337.5 455.17l-549.42 317.36c-6.63 3.83-18.218 3.347-25.874-1.07l-755.83-436.58c-7.6561-4.425-8.4924-11.11-1.8537-14.949l549.42-317.35c6.63-3.8298 18.218-3.3468 25.874 1.0696l755.83 436.58c7.65 4.425 8.49 11.11 1.85 14.94z" fill="#fff"/>
<path transform="translate(671.41 370)" d="m4.4585 264.78c-3.0244 1.749-4.4902 4.094-4.458 6.546v10.323c-0.038086 2.949 2.1006 6.066 6.3115 8.499l114.85 66.339c7.63 4.408 19.166 4.883 25.77 1.07l453.94-262.2c3.025-1.7461 4.491-4.0912 4.458-6.5437v-10.325c0.041-2.9496-2.098-6.0701-6.311-8.4989l-114.85-66.34c-7.63-4.4077-19.166-4.8822-25.77-1.0696l-453.95 262.2z" fill="#D1D3D4"/>
<path transform="translate(671.41 370)" d="m600.88 84.864l-453.95 262.21c-6.604 3.812-18.14 3.338-25.77-1.07l-114.85-66.34c-7.6303-4.407-8.458-11.066-1.8537-14.887l453.95-262.2c6.604-3.8125 18.14-3.3381 25.77 1.0696l114.85 66.34c7.63 4.3991 8.458 11.067 1.854 14.879z" fill="#F0EFEF"/>
<path transform="translate(774.44 429.51)" d="m338.01 7.9721l-324.22 187.27c-2.8366 1.639-7.8027 1.431-11.079-0.458-3.2763-1.897-3.6384-4.761-0.79324-6.4l324.22-187.28c2.837-1.6389 7.803-1.4319 11.079 0.45716 3.277 1.8976 3.639 4.7614 0.794 6.4088z" fill="#D1D3D4"/>
<path transform="translate(804.12 446.66)" d="m338.01 7.9635l-324.22 187.28c-2.8365 1.639-7.8026 1.432-11.079-0.458-3.2763-1.897-3.6384-4.761-0.79324-6.4l324.22-187.28c2.837-1.6389 7.803-1.4319 11.079 0.45716 3.277 1.8976 3.63 4.7614 0.794 6.4002z" fill="#D1D3D4"/>
<path transform="translate(833.8 463.8)" d="m338.01 7.9721l-324.22 187.27c-2.8365 1.639-7.8027 1.431-11.079-0.458-3.2763-1.897-3.6384-4.761-0.79319-6.4l324.22-187.28c2.837-1.6389 7.803-1.4319 11.079 0.45713 3.277 1.8976 3.639 4.7614 0.794 6.4089z" fill="#D1D3D4"/>
<path transform="translate(410.23 220.82)" d="m4.4587 264.78c-3.0273 1.751-4.4932 4.099-4.458 6.553-9.7656e-4 0.058-9.7656e-4 10.948 0 11.006-0.04248 2.951 2.0967 6.073 6.3115 8.507l209.82 121.2c7.63 4.408 19.166 4.882 25.771 1.07l453.95-262.21c3.027-1.747 4.492-4.094 4.457-6.547v-10.999c0.045-2.952-2.097-6.076-6.319-8.512l-209.82-121.2c-7.631-4.4077-19.167-4.8821-25.771-1.0696l-453.95 262.2z" fill="#D1D3D4"/>
<path transform="translate(410.23 220.82)" d="m695.86 139.73l-453.95 262.2c-6.604 3.813-18.14 3.338-25.77-1.07l-209.82-121.2c-7.6303-4.407-8.458-11.066-1.8537-14.887l453.95-262.2c6.604-3.8125 18.14-3.3381 25.77 1.0696l209.82 121.2c7.639 4.407 8.466 11.066 1.862 14.887z" fill="#F0EFEF"/>
<path transform="translate(608.23 335.18)" d="m338.02 7.9721l-324.23 187.27c-2.8365 1.639-7.8027 1.432-11.079-0.458-3.2763-1.897-3.6384-4.761-0.79319-6.4l324.22-187.28c2.837-1.6389 7.803-1.4319 11.079 0.45715 3.285 1.9063 3.639 4.77 0.802 6.4089z" fill="#D1D3D4"/>
<path transform="translate(637.91 352.32)" d="m338.01 7.9721l-324.22 187.27c-2.8366 1.639-7.8028 1.432-11.079-0.458-3.2763-1.897-3.6384-4.761-0.79319-6.4l324.22-187.28c2.837-1.6389 7.803-1.4319 11.079 0.45716 3.277 1.8976 3.63 4.7614 0.794 6.4088z" fill="#D1D3D4"/>
<path transform="translate(667.59 369.47)" d="m338.02 7.9635l-324.23 187.28c-2.8366 1.639-7.8028 1.432-11.079-0.458-3.2763-1.897-3.6384-4.761-0.79319-6.4l324.22-187.28c2.837-1.6389 7.803-1.4319 11.079 0.45716 3.285 1.8976 3.639 4.7614 0.802 6.4002z" fill="#D1D3D4"/>
<path transform="translate(513.25 380.38)" d="m164.79 7.9721l-151 87.214c-2.8365 1.6388-7.8026 1.4319-11.079-0.4572-3.2763-1.8976-3.6384-4.7614-0.79324-6.4002l151-87.223c2.837-1.6389 7.803-1.4319 11.079 0.45716 3.276 1.9063 3.63 4.77 0.793 6.4088z" fill="#D1D3D4"/>
<path transform="translate(542.94 397.52)" d="m164.78 7.9635l-150.99 87.223c-2.8365 1.6389-7.8026 1.4319-11.079-0.4572-3.2763-1.8976-3.6384-4.7614-0.79324-6.4002l151-87.223c2.837-1.6389 7.803-1.4319 11.079 0.45716 3.268 1.8976 3.63 4.7614 0.785 6.4002z" fill="#D1D3D4"/>
<path transform="translate(572.61 414.66)" d="m164.79 7.9721l-151 87.214c-2.8365 1.6388-7.8027 1.4319-11.079-0.4572-3.2763-1.8976-3.6384-4.7614-0.79319-6.4002l151-87.223c2.837-1.6389 7.794-1.4319 11.079 0.45716 3.276 1.9063 3.63 4.77 0.793 6.4088z" fill="#D1D3D4"/>
<path transform="translate(698.89 284.03)" d="m205.04 42.417l-131.61 76.018c-3.2418 1.872-8.9149 1.639-12.657-0.526l-57.671-33.312c-3.7418-2.165-4.1557-5.4341-0.90527-7.3145l131.61-76.018c3.242-1.8718 8.915-1.6389 12.657 0.52615l57.671 33.312c3.742 2.1651 4.147 5.4428 0.905 7.3146z" fill="#D1D3D4"/>
<path transform="translate(244.01 123.87)" d="m4.4586 264.77c-3.0269 1.751-4.4927 4.098-4.458 6.552v9.598c-0.036133 2.947 2.103 6.062 6.3115 8.493l114.85 66.34c7.63 4.408 19.166 4.882 25.77 1.07l453.95-262.2c3.022-1.7445 4.489-4.0865 4.458-6.5365v-9.5716c0.057-2.9579-2.08-6.0893-6.303-8.5268l-114.85-66.34c-7.631-4.4077-19.166-4.8821-25.771-1.0696l-453.96 262.19z" fill="#18538A"/>
<path transform="translate(244.01 123.87)" d="m600.89 84.864l-453.95 262.2c-6.604 3.813-18.14 3.338-25.77-1.069l-114.85-66.34c-7.6303-4.408-8.458-11.067-1.8537-14.888l453.96-262.19c6.604-3.8125 18.14-3.3381 25.77 1.0696l114.85 66.34c7.622 4.3991 8.45 11.058 1.845 14.879z" fill="url(#b)"/>
<path transform="translate(172.78 82.124)" d="m7.3242e-4 271.3c-0.026855-2.447 1.439-4.786 4.458-6.533l453.96-262.19c6.605-3.8125 18.14-3.3381 25.771 1.0696l19.873 11.481c4.216 2.4337 6.354 5.5592 6.303 8.5132v0.1153c1e-3 0.0593 2e-3 0.1182 1e-3 0.1772v5.7354c1e-3 0.0547 1e-3 0.1093 0 0.164v2.0681c1e-3 0.0559 1e-3 0.1115 0 0.1672 1e-3 0.0597 0 0.1192-1e-3 0.1787v0.1215c1e-3 0.0581 2e-3 0.116 1e-3 0.174v1.1106c1e-3 0.0557 1e-3 0.1112 0 0.1669 0.034 2.4531-1.433 4.7995-4.459 6.5466l-453.95 262.2c-6.604 3.812-18.14 3.338-25.77-1.07l-19.873-11.481c-4.2109-2.432-6.3496-5.55-6.3115-8.498v-1.278c-9.7656e-4 -0.079-4.8828e-4 -0.157 0.0014648-0.236-0.0019531-0.081-0.0024414-0.163-0.0014648-0.244v-8.264c-9.7656e-4 -0.065-9.7656e-4 -0.129 0-0.194z" fill="#0C0F12"/>
<path transform="translate(172.78 82.124)" d="m505.91 30.004l-453.95 262.2c-6.6043 3.813-18.14 3.338-25.77-1.069l-19.873-11.481c-7.6303-4.408-8.458-11.067-1.8537-14.888l453.96-262.19c6.604-3.8125 18.14-3.3381 25.77 1.0696l19.874 11.481c7.621 4.3991 8.449 11.058 1.845 14.879z" fill="#1B212B"/>
<path transform="translate(532.77 148.6)" d="m33.38 7.9635l-19.589 11.317c-2.8366 1.6389-7.8028 1.4319-11.079-0.4571-3.2763-1.8977-3.6384-4.7614-0.79319-6.4003l19.589-11.317c2.8365-1.6389 7.8027-1.4319 11.079 0.45716 3.2763 1.889 3.6384 4.7527 0.7932 6.4002z" fill="#D1D3D4"/>
<path transform="translate(574.58 124.44)" d="m33.38 7.9635l-19.589 11.317c-2.8366 1.6389-7.8028 1.4319-11.079-0.4571-3.2763-1.8977-3.6384-4.7614-0.79319-6.4003l19.589-11.317c2.8365-1.6389 7.8027-1.4319 11.079 0.45716 3.2763 1.889 3.6298 4.7527 0.7932 6.4002z" fill="#D1D3D4"/>
<path transform="translate(616.4 100.29)" d="m33.38 7.9635l-19.589 11.317c-2.8366 1.6389-7.8028 1.4319-11.079-0.4571-3.2763-1.8977-3.6384-4.7614-0.79319-6.4003l19.589-11.317c2.8365-1.6389 7.8027-1.4319 11.079 0.45716 3.2763 1.889 3.6298 4.7527 0.7932 6.4002z" fill="#D1D3D4"/>
<path transform="translate(187.66 339.11)" d="m35.229 14.426l-1.0691-1.7079c-0.8881-1.4146-2.69-2.4928-4.88-3.0794-2.1899-0.58655-4.7764-0.69007-7.2423-0.17253-4.923 1.0437-7.475 4.1835-5.6989 7.0213l3.2072 5.1236 24.348-5.1581c-1.1554 3.7263-5.6301 7.0213-12.243 8.4186-9.8547 2.0875-20.718-0.828-24.262-6.5037-3.5522-5.6757 1.5605-11.972 11.407-14.06 7.7682-1.6475 16.166-0.18116 21.115 3.295l6.2077-1.3197c-6.337-5.3393-18.356-7.7286-29.418-5.3824-13.122 2.7775-19.925 11.162-15.2 18.726 4.7247 7.5647 19.201 11.438 32.323 8.6602 9.984-2.1133 16.312-7.4784 16.683-13.249 0.0776-1.2421-0.1121-2.4928-0.6036-3.7435l-14.674 3.1311zm-5.9491 1.2593l-5.9231 1.2507-1.0691-1.7165c-0.5863-0.9402 0.2586-1.9839 1.8968-2.3375 0.819-0.1725 1.6812-0.138 2.4054 0.0603 0.7329 0.1984 1.3278 0.5521 1.6209 1.0265l1.0691 1.7165z" fill="#fff"/>
<path transform="translate(30 10)" d="m589.72 9.4031l-573.44 331.22-9.9927-5.77c-7.5958-4.391-8.4148-11.024-1.8451-14.819l549.62-317.48c6.578-3.7953 18.062-3.3209 25.658 1.061l10.001 5.7792z" fill="#CCCCCB"/>
<path transform="translate(37.894 332.06) rotate(-.31052)" d="m8.4235 9.7297c4.6521 0 8.4235-2.1781 8.4235-4.8648s-3.7714-4.8649-8.4235-4.8649c-4.6522 0-8.4235 2.1781-8.4235 4.8649s3.7713 4.8648 8.4235 4.8648z" fill="#DC725F"/>
<path transform="translate(55.819 321.7) rotate(-.31052)" d="m8.4235 9.7297c4.6521 0 8.4235-2.1781 8.4235-4.8648s-3.7714-4.8649-8.4235-4.8649c-4.6522 0-8.4235 2.1781-8.4235 4.8649s3.7713 4.8648 8.4235 4.8648z" fill="#E6C645"/>
<path transform="translate(73.735 311.35) rotate(-.31052)" d="m8.4235 9.7297c4.6521 0 8.4235-2.1781 8.4235-4.8648s-3.7714-4.8649-8.4235-4.8649c-4.6522 0-8.4235 2.1781-8.4235 4.8649s3.7713 4.8648 8.4235 4.8648z" fill="#68C186"/>
<path transform="translate(46.274 19.403)" d="m573.44-3.2904e-7l23.745 13.715-573.44 331.23-23.744-13.715 66.319-38.306c3.2073-1.855 4.0092-4.667 2.0003-6.996l-3.9747-4.615c-2.69-3.113-1.6036-6.891 2.6814-9.367l81.217-46.906c4.285-2.476 10.82-3.097 16.217-1.553l7.993 2.294c4.035 1.156 8.915 0.691 12.122-1.155l388.87-224.62z" fill="#E6E6E5"/>
</g>
<g filter="url(#c)">
<path transform="translate(553.99 52.999)" d="m8.9907 97.73c-6.0923 3.5173-9.0479 8.2363-8.9897 13.171v17.616c-0.072754 5.939 4.2383 12.22 12.719 17.116l336.05 194.02c15.382 8.878 38.644 9.842 51.961 2.153l160.28-92.534c6.094-3.518 9.05-8.24 8.99-13.178v-17.609c0.074-5.941-4.237-12.224-12.719-17.121l-336.05-194.02c-15.382-8.8782-38.644-9.8422-51.961-2.1537l-160.28 92.539z" fill="#D1D3D4"/>
<path transform="translate(553.99 52.999)" d="m561.01 231.37l-160.28 92.535c-13.317 7.688-36.579 6.724-51.961-2.154l-336.05-194.02c-15.377-8.879-17.046-22.309-3.7289-29.997l160.28-92.539c13.317-7.6885 36.579-6.7245 51.961 2.1537l336.05 194.02c15.377 8.878 17.046 22.313 3.729 30.001z" fill="#F0EFEF"/>
<path transform="translate(589.31 73.395)" d="m480.2 192.37l-147.02 84.879c-4.387 2.529-12.047 2.214-17.111-0.711l-311.89-180.07c-5.0644-2.9249-5.6146-7.3452-1.2273-9.8798l147.01-84.879c4.388-2.5299 12.048-2.2148 17.112 0.71007l311.89 180.08c5.06 2.92 5.61 7.345 1.223 9.875z" fill="#fff"/>
<path transform="translate(708.23 142.06)" d="m275.27 76.172l-143.33 82.754c-3.602 2.078-9.894 1.82-14.055-0.583l-114.44-66.069c-4.1616-2.403-4.613-6.0332-1.011-8.1164l143.34-82.753c3.602-2.0785 9.893-1.8198 14.055 0.5831l114.44 66.074c4.162 2.3982 4.614 6.0332 1.012 8.1116z" fill="#F0EFEF"/>
<path transform="translate(799.93 195)" d="m112.68 4.3414l-105.16 60.718c-1.5471 0.8935-4.2556 0.7806-6.0425-0.2492-1.7869-1.0345-1.9844-2.5957-0.4326-3.4892l105.16-60.718c1.547-0.89346 4.255-0.7806 6.042 0.24923 1.787 1.0345 1.98 2.5957 0.433 3.4892z" fill="#D1D3D4"/>
<path transform="translate(816.12 204.34)" d="m112.68 4.3461l-105.16 60.713c-1.5471 0.8935-4.2556 0.7806-6.0425-0.2492-1.7869-1.0345-1.9844-2.5957-0.43263-3.4892l105.16-60.718c1.547-0.89346 4.255-0.7806 6.042 0.24923 1.792 1.0345 1.984 2.6004 0.437 3.4939z" fill="#D1D3D4"/>
<path transform="translate(832.31 213.69)" d="m112.68 4.3414l-105.16 60.718c-1.5471 0.8935-4.2556 0.7806-6.0425-0.2492-1.7869-1.0345-1.9844-2.5957-0.43264-3.4892l105.16-60.718c1.547-0.89346 4.255-0.7806 6.042 0.24923 1.787 1.0345 1.98 2.5957 0.433 3.4892z" fill="#D1D3D4"/>
<path transform="translate(840.97 218.69)" d="m223.47 46.265l-143.33 82.758c-3.602 2.079-9.8938 1.82-14.055-0.583l-62.64-36.166c-4.1616-2.403-4.613-6.0332-1.011-8.1164l143.33-82.753c3.602-2.0785 9.894-1.8198 14.055 0.5831l62.64 36.166c4.162 2.4029 4.613 6.0332 1.011 8.1117z" fill="#F0EFEF"/>
<path transform="translate(877.61 239.84)" d="m119.2 4.3461l-111.68 64.475c-1.5471 0.8934-4.2556 0.7806-6.0425-0.2493-1.7869-1.0345-1.9844-2.5957-0.4326-3.4892l111.68-64.48c1.547-0.89346 4.256-0.7806 6.043 0.24923 1.786 1.0392 1.984 2.6004 0.432 3.4939z" fill="#D1D3D4"/>
<path transform="translate(893.8 249.19)" d="m119.2 4.3414l-111.68 64.48c-1.5471 0.8934-4.2556 0.7806-6.0425-0.2493-1.7869-1.0345-1.9844-2.5957-0.43261-3.4892l111.68-64.48c1.547-0.89346 4.256-0.7806 6.043 0.24923 1.786 1.0345 1.979 2.5957 0.432 3.4892z" fill="#D1D3D4"/>
<path transform="translate(909.99 258.54)" d="m119.2 4.3461l-111.68 64.475c-1.5471 0.8934-4.2556 0.7806-6.0425-0.2493-1.7869-1.0345-1.9844-2.5957-0.43264-3.4892l111.68-64.48c1.547-0.89346 4.256-0.7806 6.042 0.24923 1.787 1.0392 1.985 2.6004 0.433 3.4939z" fill="#D1D3D4"/>
<path transform="translate(748.13 198.95)" d="m54.042 4.3414l-46.52 26.86c-1.5471 0.8935-4.2556 0.7806-6.0425-0.2492-1.7869-1.0345-1.9844-2.5958-0.43262-3.4892l46.52-26.86c1.5471-0.89346 4.2556-0.7806 6.0425 0.24923 1.7869 1.0345 1.9844 2.5958 0.4326 3.4892z" fill="#D1D3D4"/>
<path transform="translate(764.32 208.3)" d="m54.042 4.3414l-46.52 26.86c-1.5471 0.8935-4.2556 0.7806-6.0425-0.2492-1.7869-1.0345-1.9844-2.5958-0.43261-3.4892l46.52-26.86c1.5471-0.89346 4.2556-0.7806 6.0425 0.24923 1.7869 1.0298 1.9797 2.5958 0.4326 3.4892z" fill="#D1D3D4"/>
<path transform="translate(780.5 217.64)" d="m54.042 4.3414l-46.52 26.86c-1.5471 0.8935-4.2556 0.7806-6.0425-0.2492-1.7869-1.0345-1.9844-2.5958-0.43262-3.4892l46.52-26.86c1.5471-0.89346 4.2556-0.7806 6.0425 0.24923 1.7869 1.0345 1.9844 2.5958 0.4326 3.4892z" fill="#D1D3D4"/>
<path transform="translate(807.02 165.23)" d="m85.763 23.124l-45.716 26.395c-1.7681 1.0204-4.8623 0.8934-6.9031-0.2869l-31.454-18.161c-2.0408-1.1803-2.2665-2.9625-0.49374-3.9876l45.716-26.395c1.7681-1.0204 4.8622-0.89346 6.903 0.28685l31.454 18.161c2.0408 1.185 2.2618 2.9672 0.4937 3.9876z" fill="#D1D3D4"/>
<path transform="translate(627.29 95.322)" d="m223.48 46.265l-143.34 82.753c-3.602 2.079-9.8938 1.82-14.055-0.583l-62.64-36.166c-4.1616-2.403-4.613-6.0333-1.011-8.1164l143.34-82.749c3.602-2.0785 9.894-1.8198 14.056 0.58311l62.64 36.166c4.157 2.3982 4.608 6.0332 1.006 8.1117z" fill="url(#a)"/>
<path transform="translate(594.92 76.63)" d="m174.9 18.229l-143.33 82.753c-3.602 2.079-9.8937 1.82-14.055-0.583l-14.074-8.1254c-4.1616-2.403-4.613-6.0333-1.011-8.1164l143.34-82.753c3.602-2.0785 9.893-1.8198 14.055 0.5831l14.074 8.1258c4.157 2.4029 4.608 6.0332 1.006 8.1164z" fill="#1B212B"/>
<path transform="translate(727.62 83.648)" d="m19.529 1.8716l-16.289 9.4048-3.2399-1.8715 16.289-9.4049 3.24 1.8716z" fill="#D1D3D4"/>
<path transform="translate(603.99 155.23)" d="m22.404 9.1495l-0.6771-1.0816c-0.5643-0.90287-1.7117-1.5847-3.1036-1.9562-1.3966-0.3715-3.0424-0.43733-4.6083-0.10816-3.1318 0.66305-4.7541 2.6616-3.6255 4.4673l2.0408 3.2588 15.49-3.2776c-0.7383 2.3747-3.5832 4.4673-7.7871 5.3561-6.2683 1.3261-13.181-0.5267-15.438-4.1335-2.2571-3.6067 0.9922-7.6132 7.2605-8.9393 4.9421-1.0486 10.289-0.11756 13.435 2.0973l3.9547-0.83703c-4.0299-3.3952-11.681-4.914-18.72-3.4234-8.3514 1.7681-12.678 7.1007-9.668 11.911 3.0095 4.8105 12.217 7.2746 20.568 5.5065 6.3528-1.3449 10.378-4.7541 10.613-8.4267 0.0517-0.78531-0.0753-1.5847-0.3856-2.3794l-9.3483 1.9656zm-3.7854 0.80412l-3.7666 0.79944-0.6818-1.091c-0.3762-0.5972 0.1646-1.265 1.2038-1.486 0.5219-0.10815 1.0674-0.08934 1.5329 0.03762 0.4656 0.12227 0.8465 0.35269 1.0346 0.64894l0.6771 1.091z" fill="#fff"/>
<path transform="translate(734.09 87.387)" d="m19.529 1.8716l-16.289 9.4048-3.2399-1.8715 16.289-9.4049 3.24 1.8716z" fill="#D1D3D4"/>
<path transform="translate(740.57 91.125)" d="m19.529 1.8716l-16.289 9.4048-3.2399-1.8715 16.289-9.4049 3.2399 1.8716z" fill="#D1D3D4"/>
<path transform="translate(651.46 109.31) rotate(-.31065)" d="m4.5942 5.3043c2.5373 0 4.5942-1.1874 4.5942-2.6522 0-1.4648-2.0569-2.6522-4.5942-2.6522-2.5373 0-4.5942 1.1874-4.5942 2.6522 0 1.4648 2.0569 2.6522 4.5942 2.6522z" fill="#1B212B"/>
<path transform="translate(997.01 308.91) rotate(-.31065)" d="m18.372 21.217c10.147 0 18.372-4.7497 18.372-10.609 0-5.859-8.2255-10.609-18.372-10.609-10.147 0-18.372 4.7497-18.372 10.609 0 5.859 8.2255 10.609 18.372 10.609z" fill="#1B212B"/>
</g>
<defs>
<filter id="d" x="0" y="0" width="1402" height="857" color-interpolation-filters="sRGB" filterUnits="userSpaceOnUse">
<feFlood flood-opacity="0" result="BackgroundImageFix"/>
<feColorMatrix in="SourceAlpha" values="0 0 0 0 0 0 0 0 0 0 0 0 0 0 0 0 0 0 255 0"/>
<feOffset dy="20"/>
<feGaussianBlur stdDeviation="15"/>
<feColorMatrix values="0 0 0 0 0 0 0 0 0 0 0 0 0 0 0 0 0 0 0.25 0"/>
<feBlend in2="BackgroundImageFix" result="effect1_dropShadow"/>
<feBlend in="SourceGraphic" in2="effect1_dropShadow" result="shape"/>
</filter>
<filter id="c" x="523.99" y="52.999" width="630" height="407" color-interpolation-filters="sRGB" filterUnits="userSpaceOnUse">
<feFlood flood-opacity="0" result="BackgroundImageFix"/>
<feColorMatrix in="SourceAlpha" values="0 0 0 0 0 0 0 0 0 0 0 0 0 0 0 0 0 0 255 0"/>
<feOffset dy="30"/>
<feGaussianBlur stdDeviation="15"/>
<feColorMatrix values="0 0 0 0 0 0 0 0 0 0 0 0 0 0 0 0 0 0 0.25 0"/>
<feBlend in2="BackgroundImageFix" result="effect1_dropShadow"/>
<feBlend in="SourceGraphic" in2="effect1_dropShadow" result="shape"/>
</filter>
<linearGradient id="b" x2="1" gradientTransform="translate(-.010164 73.884) scale(605.33 201.87)" gradientUnits="userSpaceOnUse">
<stop stop-color="#2472BA" offset="0"/>
<stop stop-color="#2472BA" stop-opacity=".7" offset="1"/>
</linearGradient>
<linearGradient id="a" x2="1" gradientTransform="translate(-.0025294 27.562) scale(225.9 75.302)" gradientUnits="userSpaceOnUse">
<stop stop-color="#2472BA" offset="0"/>
<stop stop-color="#2472BA" stop-opacity=".7" offset="1"/>
</linearGradient>
</defs>
</svg>
