<?xml version="1.0" encoding="UTF-8"?>
<svg viewBox="0 0 142 140" xmlns="http://www.w3.org/2000/svg">
<circle cx="70" cy="70" r="70" fill="#EFEFEF"/>
<path transform="translate(10 5)" d="m1.5448 72.41c5.4254 1.3038 20.788 4.4949 23.382-0.4794 1.2513-2.3998 1.8892-5.012 0-6.0603-1.8892-1.0482-3.1597-3.8171-3.1597-6.0595 0-3.347 2.8296-6.0603 6.3194-6.0603 3.4899 0 6.3195 2.7133 6.3195 6.0603 0 2.2424-1.5799 4.545-3.1598 6.0595-1.4271 1.3686-0.8986 3.1031-0.2206 5.327l0.0155 0.0494 0.0702 0.2324 0.1349 0.4515c0.7421 2.5119 2.9978 3.6381 5.8751 3.9523h3.9883c6.1466-0.5273 13.147-3.0815 14.965-3.777-0.7405-6.7597-1.9146-20.335 0.4498-21.517 3.1597-1.5808 6.0718-1.8904 7.1648 0 1.0931 1.8905 3.1351 3.1618 5.474 3.1618 3.4899 0 6.3194-2.8314 6.3194-6.3235 0-3.4922-2.8295-6.3236-6.3194-6.3236-1.6215 0-2.5133 0.7596-3.6789 1.7523-0.5153 0.4392-1.0854 0.9247-1.7951 1.4095-0.3463 0.2362-0.6078 0.4377-0.8231 0.6029-0.3263 0.2508-0.5469 0.4199-0.7961 0.5094-0.5253 0.1868-1.1771 0.017-3.199-0.5102-0.6349-0.166-1.404-0.3659-2.3466-0.6021-6.3195-1.5809 0-25.294 0-25.294s-22.586 9.5038-25.278 0c-0.074-0.2609-0.1481-0.5157-0.2206-0.765-0.678-2.3211-1.2065-4.1305 0.2206-5.5585 1.5799-1.5809 3.1598-3.9831 3.1598-6.3236 0-3.4921-2.8296-6.3235-6.3195-6.3235-3.4898 0-6.3194 2.8314-6.3194 6.3235 0 2.3404 1.2705 5.2298 3.1597 6.3236s1.2513 3.8194 0 6.3235c-2.4392 4.8808-16.173 2.227-22.312 0.7619-1.0152 4.0703-5.447 23.121 0.19439 24.532 0.94267 0.2362 1.7118 0.4361 2.3466 0.6021 2.0219 0.5272 2.6737 0.697 3.199 0.5102 0.24917-0.0895 0.46979-0.2586 0.7961-0.5094 0.21522-0.1652 0.47673-0.3667 0.8231-0.6029 0.70967-0.4848 1.2798-0.9703 1.7951-1.4095 1.1656-0.9927 2.0574-1.7523 3.6789-1.7523 3.4899 0 6.3194 2.8314 6.3194 6.3236 0 3.4921-2.8295 6.3235-6.3194 6.3235-2.3389 0-4.3809-1.2713-5.474-3.1618-1.0931-1.8904-4.0052-1.5808-7.1649 0-2.3644 1.1826-2.0041 15.062-1.2636 21.821-0.20674 0.0795 0.33248-0.122 0 0z" fill="#BCD5EC"/>
<path transform="translate(10 58.118)" d="m1.5448 72.41c5.4254 1.3038 20.788 4.4949 23.382-0.4794 1.2513-2.3998 1.8892-5.012 0-6.0603-1.8892-1.0482-3.1597-3.8171-3.1597-6.0595 0-3.347 2.8296-6.0603 6.3194-6.0603 3.4899 0 6.3195 2.7133 6.3195 6.0603 0 2.2424-1.5799 4.545-3.1598 6.0595-1.4271 1.3686-0.8986 3.1031-0.2206 5.327l0.0155 0.0494 0.0702 0.2324 0.1349 0.4515c0.7421 2.5119 2.9978 3.6381 5.8751 3.9523h3.9883c6.1466-0.5273 13.147-3.0815 14.965-3.777-0.7405-6.7597-1.9146-20.335 0.4498-21.517 3.1597-1.5808 6.0718-1.8904 7.1648 0 1.0931 1.8905 3.1351 3.1618 5.474 3.1618 3.4899 0 6.3194-2.8314 6.3194-6.3235 0-3.4922-2.8295-6.3236-6.3194-6.3236-1.6215 0-2.5133 0.7596-3.6789 1.7523-0.5153 0.4392-1.0854 0.9247-1.7951 1.4095-0.3463 0.2362-0.6078 0.4377-0.8231 0.6029-0.3263 0.2508-0.5469 0.4199-0.7961 0.5094-0.5253 0.1868-1.1771 0.017-3.199-0.5102-0.6349-0.166-1.404-0.3659-2.3466-0.6021-6.3195-1.5809 0-25.294 0-25.294s-22.586 9.5038-25.278 0c-0.074-0.2609-0.1481-0.5157-0.2206-0.765-0.678-2.3211-1.2065-4.1305 0.2206-5.5585 1.5799-1.5809 3.1598-3.9831 3.1598-6.3236 0-3.4921-2.8296-6.3235-6.3195-6.3235-3.4898 0-6.3194 2.8314-6.3194 6.3235 0 2.3404 1.2705 5.2298 3.1597 6.3236s1.2513 3.8194 0 6.3235c-2.4392 4.8808-16.173 2.227-22.312 0.7619-1.0152 4.0703-5.447 23.121 0.19439 24.532 0.94267 0.2362 1.7118 0.4361 2.3466 0.6021 2.0219 0.5272 2.6737 0.697 3.199 0.5102 0.24917-0.0895 0.46979-0.2586 0.7961-0.5094 0.21522-0.1652 0.47673-0.3667 0.8231-0.6029 0.70967-0.4848 1.2798-0.9703 1.7951-1.4095 1.1656-0.9927 2.0574-1.7523 3.6789-1.7523 3.4899 0 6.3194 2.8314 6.3194 6.3236 0 3.4921-2.8295 6.3235-6.3194 6.3235-2.3389 0-4.3809-1.2713-5.474-3.1618-1.0931-1.8904-4.0052-1.5808-7.1649 0-2.3644 1.1826-2.0041 15.062-1.2636 21.821-0.20674 0.0795 0.33248-0.122 0 0z" fill="#1E72BD"/>
<path transform="translate(64.518 5)" d="m1.5448 72.41s20.788 4.4949 23.382-0.4794c1.2513-2.3998 1.8892-5.012 0-6.0603-1.8892-1.0482-3.1597-3.8171-3.1597-6.0595 0-3.347 2.8296-6.0603 6.3194-6.0603 3.4899 0 6.3195 2.7133 6.3195 6.0603 0 2.2424-1.5799 4.545-3.1597 6.0595-1.4272 1.3686-0.8988 3.1031-0.2207 5.327l0.0155 0.0494 0.0702 0.2324 0.135 0.4515c0.7421 2.5119 2.9977 3.6381 5.875 3.9523h3.9883c6.1466-0.5273 13.147-3.0815 14.965-3.777-0.7405-6.7597-1.9146-20.335 0.4498-21.517 3.1597-1.5808 6.0718-1.8904 7.1648 0 1.0931 1.8905 3.1351 3.1618 5.474 3.1618 3.4899 0 6.3194-2.8314 6.3194-6.3235 0-3.4922-2.8295-6.3236-6.3194-6.3236-1.6215 0-2.5133 0.7596-3.6789 1.7523-0.5153 0.4392-1.0854 0.9247-1.7951 1.4095-0.3463 0.2362-0.6078 0.4377-0.8231 0.6029-0.3263 0.2508-0.5469 0.4199-0.7961 0.5094-0.5253 0.1868-1.1771 0.017-3.199-0.5102-0.6349-0.166-1.404-0.3659-2.3466-0.6021-6.3195-1.5809 0-25.294 0-25.294s-22.586 9.5038-25.278 0c-0.0741-0.2609-0.1482-0.5156-0.2207-0.765-0.6781-2.3211-1.2065-4.1305 0.2207-5.5585 1.5798-1.5809 3.1597-3.9831 3.1597-6.3236 0-3.4921-2.8296-6.3235-6.3195-6.3235-3.4898 0-6.3194 2.8314-6.3194 6.3235 0 2.3404 1.2705 5.2298 3.1597 6.3236s1.2513 3.8194 0 6.3235c-2.4392 4.8808-16.173 2.227-22.312 0.7619-1.0152 4.0703-5.447 23.121 0.19439 24.532 0.94267 0.2362 1.7118 0.4361 2.3466 0.6021 2.0219 0.5272 2.6737 0.697 3.199 0.5102 0.24917-0.0895 0.46979-0.2586 0.7961-0.5094 0.21522-0.1652 0.47673-0.3667 0.8231-0.6029 0.70967-0.4848 1.2798-0.9703 1.7951-1.4095 1.1656-0.9927 2.0574-1.7523 3.6789-1.7523 3.4899 0 6.3194 2.8314 6.3194 6.3236 0 3.4921-2.8295 6.3235-6.3194 6.3235-2.3389 0-4.3809-1.2713-5.474-3.1618-1.0931-1.8904-4.0052-1.5808-7.1649 0-2.3644 1.1826-1.2636 21.821-1.2636 21.821z" fill="#fff" stroke="#1B212B" stroke-linecap="round" stroke-linejoin="round" stroke-width="3"/>
</svg>
