<?xml version="1.0" encoding="UTF-8"?>
<svg fill="none" viewBox="0 0 1354 873" xmlns="http://www.w3.org/2000/svg">
<g filter="url(#n)">
<path transform="translate(30.065 59.096)" d="m4.3221 275.25c-3.0047 1.737-4.4218 4.078-4.3166 6.515v16.135c-0.12547 2.905 1.9474 5.999 6.1048 8.401l786.25 454.08c7.384 4.259 18.561 4.725 24.955 1.032l472.31-272.77c3-1.733 4.41-4.07 4.31-6.506v-16.145c0.12-2.902-1.95-5.992-6.1-8.392l-786.25-454.08c-7.384-4.2589-18.56-4.7246-24.955-1.0314l-472.3 272.76z" fill="#F0EFEF"/>
<path transform="translate(30.065 59.096)" d="m1289.6 472.01l-472.31 272.77c-6.395 3.693-17.571 3.227-24.955-1.032l-786.25-454.08c-7.3843-4.267-8.1909-10.714-1.7879-14.415l472.3-272.76c6.395-3.6932 17.571-3.2274 24.955 1.0314l786.25 454.08c7.38 4.267 8.18 10.714 1.79 14.407z" fill="#fff"/>
<path transform="translate(30 59.059)" d="m511.17 9.0678l-495.47 286.14-9.6379-5.565c-7.3261-4.234-8.1161-10.631-1.7796-14.291l472.5-272.88c6.345-3.66 17.422-3.2025 24.748 1.0231l9.638 5.5731z" fill="#CCCCCB"/>
<path transform="translate(37.622 336.36) rotate(-.31056)" d="m8.1244 9.3828c4.487 0 8.1244-2.1004 8.1244-4.6914 0-2.591-3.6374-4.6914-8.1244-4.6914-4.487 0-8.1244 2.1004-8.1244 4.6914 0 2.591 3.6374 4.6914 8.1244 4.6914z" fill="#DC725F"/>
<path transform="translate(54.91 326.38) rotate(-.31056)" d="m8.1244 9.3828c4.487 0 8.1244-2.1004 8.1244-4.6914 0-2.591-3.6374-4.6914-8.1244-4.6914-4.487 0-8.1244 2.1004-8.1244 4.6914 0 2.591 3.6374 4.6914 8.1244 4.6914z" fill="#E6C645"/>
<path transform="translate(72.19 316.4) rotate(-.31056)" d="m8.1244 9.3828c4.487 0 8.1244-2.1004 8.1244-4.6914 0-2.591-3.6374-4.6914-8.1244-4.6914-4.487 0-8.1244 2.1004-8.1244 4.6914 0 2.591 3.6374 4.6914 8.1244 4.6914z" fill="#68C186"/>
<path transform="translate(45.696 68.126)" d="m495.47-3.1731e-7l22.901 13.226-495.47 286.14-22.901-13.226 63.964-36.941c3.0934-1.788 3.8668-4.5 1.9292-6.746l-3.8335-4.45c-2.5945-3.003-1.5467-6.646 2.5862-9.033l78.334-45.234c4.132-2.388 10.436-2.987 15.641-1.498l7.709 2.213c3.892 1.115 8.598 0.665 11.692-1.115l317.45-183.34z" fill="#E6E6E5"/>
</g>
<g filter="url(#k)">
<path transform="translate(110.29 80.474)" d="m4.3 255.34c-2.988 1.729-4.3986 4.059-4.2947 6.486l4.0604e-4 16.133c-0.1275 2.896 1.936 5.979 6.0825 8.374l19.167 11.072c7.3595 4.25 18.486 4.708 24.856 1.031l437.83-252.86c2.99-1.7258 4.401-4.058 4.296-6.4859v-16.131c0.127-2.8947-1.935-5.9782-6.076-8.3678l-19.167-11.071c-7.359-4.2505-18.486-4.7081-24.856-1.0314l-437.84 252.85z" fill="#000"/>
<path transform="translate(110.29 80.474)" d="m487.94 28.935l-437.83 252.86c-6.3698 3.676-17.496 3.219-24.856-1.032l-19.168-11.071c-7.3594-4.251-8.1577-10.672-1.7879-14.357l437.84-252.85c6.37-3.6766 17.497-3.2191 24.856 1.0314l19.168 11.071c7.351 4.2422 8.149 10.672 1.779 14.349z" fill="#1B212B"/>
<path transform="translate(140.63 327.57)" d="m32.195 7.6796l-18.893 10.913c-2.7359 1.5804-7.5257 1.3808-10.686-0.4409-3.16-1.8299-3.5092-4.5916-0.76504-6.172l18.893-10.913c2.7358-1.5804 7.5257-1.3808 10.686 0.44086 3.16 1.83 3.5009 4.5916 0.7651 6.172z" fill="#D1D3D4"/>
<path transform="translate(180.95 304.28)" d="m32.195 7.6796l-18.893 10.913c-2.7359 1.5804-7.5257 1.3808-10.686-0.4409-3.16-1.8299-3.5092-4.5916-0.76504-6.172l18.893-10.913c2.7359-1.5804 7.5257-1.3808 10.686 0.44086 3.16 1.83 3.5092 4.5916 0.7651 6.172z" fill="#D1D3D4"/>
<path transform="translate(221.28 280.99)" d="m32.195 7.6796l-18.893 10.913c-2.7359 1.5804-7.5257 1.3808-10.686-0.4409-3.16-1.8299-3.5092-4.5916-0.76504-6.172l18.893-10.913c2.7359-1.5804 7.5257-1.3808 10.686 0.44086 3.16 1.83 3.5009 4.5916 0.7651 6.172z" fill="#D1D3D4"/>
<path transform="translate(538.15 97.995)" d="m32.195 7.6795l-18.893 10.913c-2.7359 1.5804-7.5257 1.3808-10.686-0.4409-3.16-1.8299-3.5092-4.5916-0.76503-6.172l18.893-10.913c2.7359-1.5804 7.5257-1.3808 10.686 0.44086 3.16 1.83 3.5009 4.5916 0.765 6.172z" fill="#D1D3D4"/>
</g>
<g filter="url(#j)">
<path transform="translate(179 123.48)" d="m4.3002 252.01c-2.9884 1.729-4.3994 4.06-4.2947 6.487l4.0603e-4 16.132c-0.1275 2.895 1.936 5.979 6.0825 8.374l110.77 63.975c7.36 4.25 18.486 4.708 24.855 1.031l432.07-249.53c2.99-1.7257 4.4-4.0563 4.295-6.4832v-16.133c0.127-2.8929-1.935-5.9752-6.074-8.369l-110.77-63.975c-7.36-4.2505-18.487-4.7081-24.856-1.0314l-432.07 249.53z" fill="#18538A"/>
<path transform="translate(179 123.48)" d="m573.78 81.838l-432.07 249.54c-6.369 3.676-17.496 3.219-24.855-1.032l-110.77-63.974c-7.3594-4.251-8.1577-10.672-1.7879-14.357l432.07-249.53c6.369-3.6766 17.496-3.2191 24.855 1.0314l110.77 63.975c7.351 4.2506 8.149 10.672 1.78 14.349z" fill="url(#b)"/>
<path transform="translate(336.61 316.92)" d="m78.186 19.81c0.9619 0.1329 1.9732-0.1082 3.0361-0.7214l1.1968-0.6897c0.4649-0.2682 0.9321-0.6131 1.3975-1.0346l7.8315 4.5149v10.11c-0.2666 0.3066-0.6347 0.6898-1.0996 1.1496-0.4673 0.4598-0.9663 0.9197-1.499 1.3796-0.5327 0.4597-1.0996 0.8993-1.6978 1.3208-0.5981 0.4215-1.1308 0.7664-1.5962 1.0346-2.3271 1.3412-4.7182 2.1865-7.1718 2.5336-2.4541 0.3494-5.0708-9e-3 -7.8496-1.0752-0.0811 2.5607-1.271 5.074-3.5713 7.5444-2.3008 2.4682-4.9805 4.5848-8.0391 6.3475-2.3276 1.3412-4.8696 2.4457-7.624 3.309-2.7564 0.8656-5.5601 1.4134-8.4116 1.6477-2.8511 0.2345-5.7002 0.088-8.5494-0.4417-2.8466-0.5298-5.5263-1.5193-8.0366-2.9664-3.1719-1.8281-5.1675-3.6494-5.9848-5.4639-0.4346-0.9608-0.6451-1.9123-0.6319-2.8534v-9.9441c-0.0122-0.8902 0.1753-1.7714 0.562-2.643 0.772-1.7401 2.0904-3.4329 3.9551-5.0807 1.8648-1.6477 3.8628-3.2346 5.9917-4.7673 1.666-1.4179 3.3457-2.7095 5.043-3.8771 0.1221-0.0838 0.2427-0.1674 0.3608-0.2508-0.5849-0.1488-1.1826-0.2478-1.792-0.2969-1.623-0.1307-3.1987-0.0406-4.7251 0.2659-1.5258 0.3089-3.0024 0.78-4.4316 1.4111-1.4287 0.6334-2.709 1.2758-3.8379 1.9273-1.2935 0.7453-2.3857 1.4999-3.2764 2.2635l0.0347 8.9753-11.369 6.5549c-3.1045-2.0197-5.0483-4.0596-5.834-6.1221-0.38867-1.0242-0.57813-2.0418-0.56689-3.0524v-9.9452c-0.011719-1.08 0.20557-2.1521 0.65088-3.216 0.83984-2.0084 2.3564-3.9491 4.5557-5.8268 2.1963-1.8776 4.7251-3.6381 7.5855-5.2858 2.5283-1.4562 5.2846-2.741 8.2734-3.8545 2.9893-1.1135 6.0596-1.8934 9.2109-2.3375 3.1514-0.44409 6.2671-0.46887 9.3462-0.074401 3.0796 0.39667 5.9756 1.3749 8.6851 2.9371l26.366 15.199c1.3794 0.7957 2.5532 1.2623 3.5127 1.3953zm-20.74 11.892c0.1596 0.092 0.3135 0.1847 0.4619 0.2781-1.1104 1.002-2.2813 1.8597-3.5161 2.5711-0.9981 0.5747-2.2105 1.1608-3.6392 1.7559-1.4292 0.5951-2.9057 1.0459-4.4316 1.3547-1.5264 0.3088-3.0865 0.426-4.6753 0.3517-1.4463-0.0657-2.7564-0.402-3.9263-1.0073 0.1348-0.1134 0.2715-0.2261 0.4111-0.3384 2.0635-1.7244 4.2442-3.3812 6.5401-4.9703s3.7451-3.2075 4.3501-4.8508l8.4253 4.8553z" clip-rule="evenodd" fill="#D1D3D4" fill-rule="evenodd"/>
<path transform="translate(336.61 316.92)" d="m78.186 19.81c0.9617 0.133 1.9731-0.1082 3.0364-0.7213l1.1965-0.6898c0.465-0.2682 0.9323-0.6131 1.3974-1.0346l7.8314 4.5149c-0.2664 0.3066-0.6343 0.6898-1.0994 1.1496-0.4673 0.4598-0.9662 0.9197-1.499 1.3795s-1.0994 0.8994-1.6977 1.3209c-0.5982 0.4215-1.131 0.7664-1.596 1.0346-2.3276 1.3412-4.7183 2.1865-7.1723 2.5336-2.4539 0.3471-5.0704-9e-3 -7.8495-1.0752-0.0812 2.5606-1.271 5.0739-3.5714 7.5444-2.3004 2.4682-4.9801 4.5848-8.0391 6.3475-2.3275 1.3412-4.8695 2.4457-7.6237 3.309-2.7565 0.8656-5.5604 1.4133-8.4116 1.6477-2.8513 0.2345-5.7003 0.0879-8.5494-0.4418-2.8467-0.5297-5.5264-1.5192-8.0368-2.9663-3.1719-1.8281-5.1675-3.6494-5.9848-5.4639-0.8194-1.8123-0.842-3.5908-0.0699-5.3309 0.772-1.7402 2.0905-3.433 3.9552-5.0807 1.8647-1.6478 3.8626-3.2346 5.9915-4.7674 1.6661-1.4178 3.3457-2.7094 5.0434-3.877 1.6976-1.1677 3.0612-2.2789 4.0951-3.3316 1.0317-1.0526 1.5532-2.0557 1.5577-3.0114 0.0046-0.9558-0.8172-1.9092-2.4697-2.8604-1.4539-0.83852-2.9913-1.3232-4.6144-1.4539-1.6232-0.13073-3.199-0.04057-4.7251 0.26598-1.5261 0.30881-3.0025 0.77991-4.4315 1.4111-1.4291 0.6334-2.7091 1.2758-3.8379 1.9272-3.1921 1.8394-5.1584 3.7351-5.8967 5.6848-0.7404 1.9498 0.1445 3.8027 2.6549 5.5541l-11.369 6.5549c-3.1041-2.0197-5.0479-4.0596-5.8335-6.1221-0.78337-2.0625-0.75628-4.0979 0.083528-6.1041 0.83981-2.0084 2.3569-3.9491 4.5557-5.8268 2.1966-1.8776 4.725-3.6381 7.5853-5.2858 2.5285-1.4561 5.2849-2.741 8.2739-3.8545s6.0593-1.8934 9.2108-2.3375c3.1515-0.44405 6.2669-0.46885 9.3462-0.074386 3.0793 0.39672 5.9758 1.375 8.6848 2.9371l26.366 15.199c1.3793 0.7957 2.5532 1.2623 3.5127 1.3953zm-33.516 1.7784c-2.2959 1.5892-4.4767 3.2459-6.5401 4.9703-0.9978 0.8047-1.8805 1.6365-2.6481 2.4975-0.7676 0.8611-1.2687 1.7221-1.5058 2.5809-0.237 0.8611-0.0925 1.7289 0.4312 2.608 0.526 0.8768 1.5148 1.7357 2.9687 2.5742 1.2552 0.7235 2.6797 1.1225 4.269 1.1946 1.5893 0.0744 3.1493-0.0428 4.6754-0.3516s3.0025-0.7596 4.4315-1.3547 2.6413-1.1811 3.6392-1.7559c1.2642-0.7281 2.4607-1.6095 3.594-2.6418 1.1333-1.0346 1.9505-2.1527 2.4539-3.3586 0.5035-1.2037 0.5757-2.4074 0.219-3.611-0.3567-1.2037-1.429-2.3195-3.2125-3.3474l-8.4251-4.8552c-0.605 1.6432-2.0544 3.2616-4.3503 4.8507z" fill="#fff"/>
<path transform="translate(262.84 344.8)" d="m13.266 0l98.198 24.984v10.11l-13.365 7.7044-25.415-6.9471-22.785 13.135 6.4107 7.794v10.11l-12.866 7.4159-43.444-56.55v-10.11l13.266-7.6459zm15.892 23.781l18.976 5.2587-9.8994 5.7072-9.0767-10.966z" clip-rule="evenodd" fill="#D1D3D4" fill-rule="evenodd"/>
<path transform="translate(262.84 344.8)" d="m13.265 0l98.199 24.984-13.365 7.7045-25.415-6.9471-28.425 16.387 12.051 14.652-12.866 7.4159-43.444-56.55 13.265-7.6458zm46.711 22.212l-41.101-11.39-0.3002 0.1736 19.659 23.751 21.742-12.535z" fill="#fff"/>
</g>
<g filter="url(#i)">
<path transform="translate(673.49 216.05)" d="m4.3 59.03c-2.988 1.7286-4.3986 4.0593-4.2947 6.4857l4.0604e-4 16.134c-0.1275 2.8953 1.936 5.9793 6.0825 8.374l288.25 166.46c7.359 4.25 18.486 4.708 24.856 1.031l97.917-56.546c2.992-1.725 4.403-4.055 4.299-6.481l-1e-3 -16.13c0.128-2.895-1.936-5.979-6.079-8.374l-288.25-166.47c-7.36-4.2505-18.486-4.7081-24.856-1.0314l-97.917 56.546z" fill="#000"/>
<path transform="translate(673.49 216.05)" d="m417.11 184.33l-97.917 56.546c-6.369 3.677-17.496 3.219-24.855-1.031l-288.25-166.46c-7.3594-4.2506-8.1577-10.672-1.7879-14.357l97.917-56.546c6.37-3.6766 17.496-3.2191 24.856 1.0314l288.25 166.47c7.351 4.25 8.157 10.672 1.779 14.349z" fill="#1B212B"/>
<path transform="translate(703.82 233.57)" d="m89.806 7.6795l-76.504 44.186c-2.7359 1.5805-7.5257 1.3808-10.686-0.4408-3.1599-1.83-3.5092-4.5916-0.76502-6.1721l76.504-44.186c2.7359-1.5804 7.5257-1.3808 10.686 0.44086 3.16 1.8217 3.5009 4.5916 0.7651 6.172z" fill="#D1D3D4"/>
<path transform="translate(726.72 246.8)" d="m89.806 7.6795l-76.504 44.186c-2.7359 1.5805-7.5257 1.3808-10.686-0.4409-3.16-1.8299-3.5092-4.5915-0.76503-6.172l76.504-44.186c2.7359-1.5804 7.5257-1.3808 10.686 0.44086 3.16 1.8217 3.5009 4.5916 0.7651 6.172z" fill="#D1D3D4"/>
<path transform="translate(749.62 260.02)" d="m89.806 7.6795l-76.504 44.186c-2.7359 1.5805-7.5257 1.3808-10.686-0.4408-3.16-1.83-3.5092-4.5916-0.76508-6.1721l76.504-44.186c2.7358-1.5804 7.5174-1.3808 10.686 0.44086 3.16 1.8217 3.5009 4.5916 0.7651 6.172z" fill="#D1D3D4"/>
<path transform="translate(772.52 273.25)" d="m89.806 7.6796l-76.504 44.186c-2.7359 1.5805-7.5257 1.3808-10.686-0.4408-3.16-1.83-3.5092-4.5916-0.76503-6.1721l76.504-44.186c2.7359-1.5804 7.5257-1.3808 10.686 0.44086 3.16 1.8217 3.5009 4.5916 0.7651 6.172z" fill="#D1D3D4"/>
<path transform="translate(841.23 312.93)" d="m89.806 7.6795l-76.504 44.186c-2.7358 1.5805-7.5257 1.3808-10.686-0.4409-3.16-1.8299-3.5092-4.5915-0.76503-6.172l76.504-44.186c2.7359-1.5804 7.5257-1.3808 10.686 0.44086 3.16 1.83 3.501 4.5916 0.7651 6.172z" fill="#D1D3D4"/>
<path transform="translate(864.13 326.15)" d="m89.806 7.6795l-76.504 44.186c-2.7359 1.5805-7.5257 1.3808-10.686-0.4408-3.16-1.83-3.5092-4.5916-0.76503-6.1721l76.504-44.186c2.7359-1.5804 7.5257-1.3808 10.686 0.44086 3.1599 1.83 3.5008 4.5916 0.7649 6.172z" fill="#D1D3D4"/>
<path transform="translate(887.03 339.38)" d="m89.806 7.6796l-76.504 44.186c-2.7359 1.5805-7.5257 1.3808-10.686-0.4408-3.16-1.83-3.5092-4.5916-0.76508-6.1721l76.504-44.186c2.7358-1.5804 7.5256-1.3808 10.686 0.44086 3.1599 1.83 3.5009 4.5916 0.7651 6.172z" fill="#D1D3D4"/>
<path transform="translate(909.93 352.6)" d="m89.806 7.6796l-76.504 44.186c-2.7359 1.5805-7.5257 1.3808-10.686-0.4408-3.1599-1.83-3.5092-4.5916-0.76507-6.1721l76.504-44.186c2.7359-1.5804 7.5257-1.3808 10.686 0.44086 3.16 1.83 3.501 4.5916 0.7651 6.172z" fill="#D1D3D4"/>
</g>
<g filter="url(#h)">
<path transform="translate(339.3 302.57)" d="m4.3 165.5c-2.988 1.729-4.399 4.06-4.2947 6.486l4.0604e-4 16.134c-0.1275 2.895 1.936 5.979 6.0825 8.374l42.069 24.297c7.3594 4.25 18.486 4.708 24.856 1.031l282.28-163.03c2.989-1.7253 4.399-4.055 4.294-6.4812v-16.133c0.127-2.8934-1.937-5.9767-6.082-8.3709l-42.069-24.297c-7.359-4.2505-18.486-4.7081-24.856-1.0314l-282.27 163.02z" fill="#E6E6E5"/>
<path transform="translate(339.3 302.57)" d="m355.29 42.16l-282.28 163.03c-6.3698 3.677-17.496 3.219-24.856-1.031l-42.069-24.298c-7.3594-4.25-8.1577-10.672-1.7879-14.357l282.27-163.02c6.37-3.6766 17.496-3.2191 24.856 1.0314l42.069 24.297c7.359 4.2505 8.157 10.672 1.788 14.349z" fill="#F0EFEF"/>
<path transform="translate(389.76 467.01)" d="m31.358 16.486l-31.358 1.6054 2.8024-18.092 7.9248 0.016627-2.3201 13.168 22.926-1.2643 0.025 4.5666z" fill="#1B75BC"/>
<path transform="translate(413.33 442.78)" d="m29.296 33.871l-6.0039 3.4687-23.292-33.863 6.0289-3.477 23.267 33.871z" fill="#1B75BC"/>
<path transform="translate(438.79 438.7)" d="m-1.1166e-5 1.6137l31.333-1.6137-2.7774 18.109-7.8999-0.0333 2.2702-13.168-22.876 1.2644-0.049917-4.5583z" fill="#1B75BC"/>
</g>
<g filter="url(#g)">
<path transform="translate(430.94 355.46)" d="m4.3 165.5c-2.988 1.729-4.399 4.06-4.2947 6.486l4.0604e-4 16.134c-0.1275 2.895 1.936 5.979 6.0825 8.374l190.92 110.26c7.36 4.251 18.486 4.708 24.856 1.032l282.28-163.02c2.989-1.725 4.399-4.057 4.293-6.484v-16.129c0.127-2.896-1.938-5.981-6.09-8.372l-190.92-110.26c-7.359-4.2505-18.486-4.7081-24.856-1.0314l-282.27 163.02z" fill="#E6E6E5"/>
<path transform="translate(430.94 355.46)" d="m504.15 128.13l-282.28 163.02c-6.37 3.677-17.496 3.219-24.856-1.031l-190.92-110.26c-7.3594-4.25-8.1577-10.672-1.7879-14.357l282.27-163.02c6.37-3.6766 17.496-3.2191 24.856 1.0314l190.92 110.26c7.368 4.243 8.166 10.673 1.796 14.349z" fill="#F0EFEF"/>
<path transform="translate(581.61 442.47)" d="m239.6 7.6878l-226.29 130.69c-2.7359 1.58-7.5257 1.38-10.686-0.441-3.16-1.83-3.5092-4.592-0.76503-6.172l226.29-130.69c2.736-1.5804 7.526-1.3808 10.686 0.44086 3.16 1.8383 3.501 4.5999 0.765 6.1803z" fill="#D1D3D4"/>
<path transform="translate(610.23 459.01)" d="m239.6 7.6795l-226.3 130.69c-2.7359 1.58-7.5257 1.38-10.686-0.441-3.1599-1.83-3.5092-4.592-0.76508-6.172l226.3-130.69c2.736-1.5804 7.525-1.3808 10.685 0.44086 3.16 1.83 3.501 4.5916 0.765 6.172z" fill="#D1D3D4"/>
<path transform="translate(638.86 475.54)" d="m239.6 7.6878l-226.29 130.69c-2.7359 1.58-7.5257 1.38-10.686-0.441-3.16-1.83-3.5092-4.592-0.76508-6.172l226.29-130.69c2.736-1.5804 7.526-1.3808 10.686 0.44086 3.16 1.8383 3.501 4.5999 0.765 6.1803z" fill="#D1D3D4"/>
<path transform="translate(495.73 462.75)" d="m118.61 7.6795l-105.31 60.822c-2.7359 1.5805-7.5257 1.3809-10.686-0.4408-3.16-1.83-3.5092-4.5916-0.76502-6.1721l105.31-60.822c2.736-1.5804 7.525-1.3808 10.685 0.44086 3.16 1.83 3.51 4.5916 0.765 6.172z" fill="#D1D3D4"/>
<path transform="translate(524.36 479.28)" d="m118.61 7.6878l-105.31 60.814c-2.7359 1.5805-7.5257 1.3808-10.686-0.4408-3.16-1.83-3.5092-4.5916-0.76503-6.172l105.31-60.822c2.736-1.5804 7.525-1.3808 10.685 0.44089 3.16 1.8383 3.501 4.5999 0.765 6.1803z" fill="#D1D3D4"/>
<path transform="translate(552.98 495.82)" d="m118.61 7.6795l-105.31 60.822c-2.7359 1.5805-7.5257 1.3809-10.686-0.4408-3.16-1.83-3.5092-4.5916-0.76502-6.1721l105.31-60.822c2.736-1.5804 7.525-1.3808 10.685 0.44088 3.16 1.83 3.51 4.5916 0.765 6.172z" fill="#D1D3D4"/>
<path transform="translate(634.45 393.13)" d="m157.43 40.905l-86.608 50.017c-3.1267 1.8051-8.5984 1.5805-12.207-0.5073l-55.623-32.125c-3.609-2.0878-4.0081-5.2404-0.87314-7.0537l86.608-50.017c3.1267-1.805 8.5984-1.5804 12.208 0.50742l55.623 32.124c3.609 2.0962 4 5.2488 0.874 7.0538z" fill="#D1D3D4"/>
</g>
<g filter="url(#f)">
<path transform="translate(677.1 411.13)" d="m4.3 252.03c-2.9495 1.707-4.3621 4-4.2979 6.392v16.325c-0.077553 2.867 1.9863 5.909 6.0861 8.277l139.39 80.502c7.359 4.251 18.486 4.708 24.856 1.032l432.1-249.54c2.995-1.728 4.406-4.066 4.295-6.499v-16.108c0.133-2.8987-1.928-5.989-6.074-8.3862l-139.4-80.503c-7.359-4.2505-18.485-4.708-24.855-1.0314l-432.1 249.54z" fill="#E6E6E5"/>
<path transform="translate(677.1 411.13)" d="m602.43 98.374l-432.1 249.54c-6.37 3.677-17.497 3.22-24.856-1.031l-139.39-80.503c-7.3594-4.25-8.1576-10.672-1.7878-14.357l432.1-249.54c6.369-3.6766 17.496-3.2191 24.855 1.0315l139.4 80.503c7.351 4.2506 8.149 10.68 1.779 14.357z" fill="#F0EFEF"/>
<path transform="translate(827.79 611.28)" d="m193.52 7.6712l-180.22 104.08c-2.7359 1.58-7.5257 1.38-10.686-0.441-3.16-1.83-3.5092-4.592-0.76508-6.172l180.22-104.08c2.736-1.5804 7.526-1.3808 10.686 0.44088 3.16 1.8217 3.501 4.5832 0.765 6.1637z" fill="#D1D3D4"/>
<path transform="translate(741.9 561.68)" d="m193.52 7.6795l-180.22 104.08c-2.7359 1.58-7.5257 1.38-10.686-0.441-3.1599-1.83-3.5092-4.592-0.76502-6.172l180.22-104.08c2.736-1.5804 7.526-1.3808 10.686 0.44084 3.16 1.83 3.509 4.5916 0.765 6.172z" fill="#D1D3D4"/>
<path transform="translate(770.53 578.22)" d="m193.52 7.6712l-180.22 104.08c-2.7359 1.58-7.5257 1.38-10.686-0.441-3.16-1.83-3.5092-4.592-0.76503-6.172l180.22-104.08c2.736-1.5804 7.526-1.3808 10.686 0.44088 3.16 1.8217 3.501 4.5832 0.765 6.1637z" fill="#D1D3D4"/>
<path transform="translate(799.16 594.74)" d="m193.52 7.6795l-180.22 104.08c-2.7359 1.58-7.5257 1.38-10.686-0.441-3.1599-1.83-3.5092-4.592-0.76507-6.172l180.22-104.08c2.736-1.5804 7.526-1.3808 10.686 0.44084 3.16 1.83 3.509 4.5916 0.765 6.172z" fill="#D1D3D4"/>
<path transform="translate(972.82 445.48)" d="m249.42 57.433l-149.98 86.616c-3.1267 1.805-8.5984 1.581-12.207-0.507l-84.246-48.653c-3.609-2.0878-4.0082-5.2404-0.87319-7.0537l149.98-86.616c3.127-1.805 8.599-1.5804 12.208 0.50742l84.246 48.653c3.609 2.0879 3.999 5.2404 0.873 7.0538z" fill="url(#a)"/>
</g>
<g filter="url(#e)">
<path transform="translate(588.81)" d="m131.8 3.8475e-4c-72.56 0.13235-131.57 34.367-131.8 76.463v9.8011c-0.18115 42.076 58.442 76.07 130.98 75.938h0.118c4.275-0.01 7.399-2.124 7.212-4.417v-9.363c0.048-0.594-0.123-1.208-0.551-1.807-3.258-4.545-5.403-9.428-6.243-14.534 4.253-25.826 41.908-46.178 87.465-46.264 11.966-0.0226 23.364 1.3488 33.744 3.8523 4.748 1.1433 10.033-0.8786 10.052-3.8664v-9.8724c0.181-42.071-58.439-76.064-130.98-75.932zm31.221 57.337c-8.366 0.0167-15.577 2.9325-18.797 7.1026 3.202 4.1225 10.35 6.9807 18.671 6.9662 8.367-0.0166 15.578-2.9324 18.798-7.1026-3.201-4.1224-10.35-6.9806-18.672-6.9662z" clip-rule="evenodd" fill="#F0EFEF" fill-rule="evenodd"/>
<path transform="translate(588.81)" d="m6.5683e-4 76.464c-0.22699 42.099 58.411 76.116 130.98 75.984h0.118c5.15-0.011 8.631-3.078 6.661-5.832-4.316-6.021-6.678-12.635-6.642-19.574 0.152-28.019 39.567-50.888 87.864-50.978 11.967-0.0225 23.364 1.3489 33.744 3.8523 4.747 1.1433 10.033-0.8786 10.052-3.8664v-0.0676c0.227-42.094-58.41-76.114-130.98-75.982-72.56 0.13235-131.57 34.367-131.8 76.463zm183.49-17.006c-0.037 6.5782-9.254 11.926-20.592 11.948-11.339 0.0197-20.5-5.2941-20.466-11.872 0.036-6.5782 9.253-11.926 20.592-11.948 11.338-0.0226 20.499 5.2941 20.466 11.872z" fill="#fff"/>
<path transform="translate(779.13 30.705) rotate(-.30916)" d="m21.898 25.406c12.094 0 21.898-5.6874 21.898-12.703 0-7.0157-9.8041-12.703-21.898-12.703-12.094 0-21.898 5.6873-21.898 12.703 0 7.0157 9.8041 12.703 21.898 12.703z" fill="#2472BA" opacity=".4"/>
<path transform="translate(732.23 9.8607) rotate(-.30916)" d="m21.898 25.406c12.094 0 21.898-5.6874 21.898-12.703 0-7.0157-9.8041-12.703-21.898-12.703-12.094 0-21.898 5.6873-21.898 12.703 0 7.0157 9.8041 12.703 21.898 12.703z" fill="#2472BA" opacity=".5"/>
<path transform="translate(673.03 8.4666) rotate(-.30916)" d="m21.898 25.406c12.094 0 21.898-5.6874 21.898-12.703 0-7.0157-9.8041-12.703-21.898-12.703-12.094 0-21.898 5.6873-21.898 12.703 0 7.0157 9.8041 12.703 21.898 12.703z" fill="#2472BA" opacity=".6"/>
<path transform="translate(622.95 27.033) rotate(-.30916)" d="m21.898 25.406c12.094 0 21.898-5.6874 21.898-12.703 0-7.0157-9.8041-12.703-21.898-12.703-12.094 0-21.898 5.6873-21.898 12.703 0 7.0157 9.8041 12.703 21.898 12.703z" fill="#2472BA" opacity=".7"/>
<path transform="translate(599.69 63.822) rotate(-.30916)" d="m21.898 25.406c12.094 0 21.898-5.6874 21.898-12.703 0-7.0157-9.8041-12.703-21.898-12.703-12.094 0-21.898 5.6873-21.898 12.703 0 7.0157 9.8041 12.703 21.898 12.703z" fill="#2472BA" opacity=".8"/>
<path transform="translate(617.34 96.581) rotate(-.30916)" d="m21.898 25.406c12.094 0 21.898-5.6874 21.898-12.703 0-7.0157-9.8041-12.703-21.898-12.703-12.094 0-21.898 5.6873-21.898 12.703 0 7.0157 9.8041 12.703 21.898 12.703z" fill="#2472BA" opacity=".9"/>
<path transform="translate(664.24 117.42) rotate(-.30916)" d="m21.898 25.406c12.094 0 21.898-5.6874 21.898-12.703 0-7.0157-9.8041-12.703-21.898-12.703-12.094 0-21.898 5.6873-21.898 12.703 0 7.0157 9.8041 12.703 21.898 12.703z" fill="#2472BA"/>
</g>
<g filter="url(#d)">
<path transform="translate(262.84 501.58)" d="m143.29 3.7522l-136.8 78.708c-4.3745 2.5174-6.5317 5.8256-6.4854 9.1108l1.8508e-4 13.901c-0.052006 3.289 2.1056 6.573 6.4588 9.037l51.894 29.858c8.6003 4.948 22.575 4.925 31.232-0.057l64.792-37.276 46-7.6074v-14.123l-5.803-1.3937 31.741-18.262c4.398-2.5308 6.573-5.8511 6.521-9.1544v-13.889c0.053-3.2777-2.086-6.5573-6.423-9.0512l-51.893-29.858c-8.601-4.948-22.576-4.9254-31.233 0.05667z" fill="#5E3657"/>
</g>
<path transform="translate(262.84 501.58)" d="m6.4863 82.46l136.8-78.708c8.657-4.982 22.632-5.0047 31.232-0.05665l51.894 29.858c8.604 4.9481 8.559 12.99-0.098 17.972l-49.059 28.226 23.121 5.5524-46 7.6108-64.792 37.276c-8.6572 4.982-22.632 5.005-31.233 0.057l-51.894-29.858c-8.6041-4.8689-8.6306-12.948 0.02654-17.93z" fill="#9C5C8F"/>
<path transform="translate(276.17 555.35)" d="m0.076652 40.979c-0.33355-1.2993 0.42453-2.5231 2.2136-3.7091 3.2294-2.1719 6.8643-2.3759 10.893-0.6119 16.401 6.9839 30.823 12.593 43.199 16.869l-13.425-25.039c-1.2205-2.2851-0.868-4.0566 1.0575-5.3219 2.82-1.8584 6.5839-1.8244 11.371 0.0566 10.799 4.238 20.714 7.4108 29.879 9.6808-15.556-11.006-25.028-19.936-28.485-26.825-0.8793-1.6922-0.326-3.1124 1.5313-4.3361 1.4442-0.9896 3.3659-1.5448 5.6932-1.7035 2.331-0.16242 4.3134 0.18886 6.0228 1.0123 1.2963 0.66855 2.1151 1.3749 2.5889 2.2814 2.2363 4.3701 8.3008 10.387 17.985 18.017 9.4112 7.3918 17.466 12.736 24.091 16.075 1.846 0.9028 3.071 1.9263 3.681 3.067 0.678 1.3371 0.261 2.5232-1.183 3.509-1.649 1.1067-4.325 1.7035-7.956 1.6695-12.876-0.0567-27.658-2.7082-44.271-8 4.2755 7.5996 7.5315 13.265 9.7716 17.008 3.6614 6.7724 4.1883 11.025 1.5047 12.804-1.717 1.1445-4.8706 1.1521-9.5213 0.0567-12.448-3.1312-33.503-10.893-63.163-23.294-1.9862-0.9027-3.2142-2.0057-3.4796-3.2672z" fill="#fff"/>
<path transform="translate(404.62 517)" d="m11.16 2.2698c5.9017-2.2172 12.137-2.8177 18.914-1.7677 5.8826 0.85737 11.42 2.78 16.75 5.8394 7.0312 4.0491 11.663 8.7667 13.964 14.202 2.7063 6.3002 0.758 11.35-5.9054 15.184-1.1675 0.6723-2.5434 1.3069-4.1202 1.8999-5.9015 2.2172-12.137 2.8177-18.914 1.7677-5.9546-0.8952-11.561-2.8555-16.818-5.881-7.0311-4.0453-11.663-8.7667-13.895-14.16-2.6344-6.3418-0.68996-11.388 5.9052-15.184 1.1675-0.67234 2.5435-1.3069 4.1201-1.8999zm34.053 22.916c0.2919-2.7611-1.3381-5.6733-4.8821-8.8196-1.2963-1.0614-2.7972-2.1643-4.5749-3.1803-1.9823-1.1407-4.5105-2.119-7.4519-2.8631-3.6917-0.94049-6.5004-0.97451-8.4903-0.2229-2.9489 1.1483-3.9912 3.3164-2.9111 6.5458 0.7392 2.5571 2.3046 4.8007 4.484 6.7686 1.2282 1.1029 2.7974 2.1643 4.5031 3.1463 1.9824 1.1407 4.5105 2.119 7.4517 2.8631 3.6919 0.9405 6.5005 0.9745 8.4904 0.2228 2.0582-0.7932 3.165-2.2927 3.3811-4.4607z" clip-rule="evenodd" fill="#fff" fill-rule="evenodd"/>
<path transform="translate(361.54 541.79)" d="m11.16 2.262c5.8334-2.1794 12.137-2.8177 18.914-1.7677 5.8826 0.85741 11.42 2.78 16.75 5.8394 7.0313 4.0491 11.663 8.7667 13.964 14.202 2.7062 6.3002 0.7581 11.35-5.9054 15.184-1.1674 0.6723-2.5433 1.3069-4.1201 1.8999-5.9016 2.2172-12.137 2.8178-18.914 1.7677-5.9546-0.8952-11.561-2.8555-16.818-5.881-7.031-4.0453-11.663-8.7667-13.895-14.16-2.6342-6.3418-0.68978-11.388 5.9054-15.184 1.1675-0.67234 2.5433-1.3069 4.1202-1.8999zm34.049 22.916c0.2919-2.7611-1.3381-5.6733-4.8819-8.8196-1.2243-1.0991-2.7935-2.1605-4.5751-3.1803-1.9823-1.1407-4.5105-2.119-7.4517-2.8631-3.6919-0.94047-6.5006-0.9745-8.4906-0.2229-2.9488 1.1483-3.9874 3.3164-2.9108 6.5458 0.739 2.5571 2.3045 4.8007 4.484 6.7686 1.228 1.1029 2.7972 2.1643 4.5029 3.1464 1.9823 1.1406 4.5105 2.1189 7.4519 2.863 3.6917 0.9405 6.5004 0.9745 8.4904 0.2228 2.058-0.7931 3.1649-2.2927 3.3809-4.4607z" clip-rule="evenodd" fill="#fff" fill-rule="evenodd"/>
<g filter="url(#c)">
<path transform="translate(933.08 219.6)" d="m249.47 43.742c0.099-7.6664-4.895-15.334-14.991-21.164-0.765-0.4423-1.541-0.8649-2.343-1.2708-12.276-6.2587-28.528-8.5397-43.752-6.8397h-3e-3c-35.885-19.691-92.8-19.271-128.22 1.1884-18.167 10.492-27.212 24.247-27.11 37.955-0.0012 0.1529-0.0012 14.53 0 14.683-0.0053 0.7922 0.0191 1.5842 0.0739 2.3756-0.5933 0.3191-1.1792 0.6454-1.757 0.9785-13.413 7.7466-20.076 17.909-19.974 28.03-0.0012 0.1223-0.0016 9.8802-8e-4 10.003-7.6798 5.525-11.477 12.249-11.388 18.946-0.0020302 0.153-0.0020302 14.529 0 14.681-0.093795 7.089 4.166 14.179 12.787 19.817 0.7028 0.462 1.4353 0.911 2.2011 1.353 20.077 11.593 52.731 11.537 72.934-0.132l146.33-84.506c10.244-5.9153 15.32-13.681 15.218-21.411 2e-3 -0.1554 2e-3 -14.533 0-14.688z" fill="#F0EFEF"/>
</g>
<path transform="translate(933.08 219.6)" d="m234.48 22.579c20.078 11.593 19.976 30.455-0.227 42.121l-146.33 84.505c-20.203 11.669-52.857 11.725-72.934 0.132-0.7656-0.442-1.4982-0.891-2.2011-1.353-17.196-11.247-17.041-28.27 0.4125-39.536-5.2206-12.768 0.8448-26.798 18.163-36.8 1.7985-1.0365 3.673-2.007 5.6101-2.9016-9.5041-18.136-1.7556-38.688 23.183-53.09 35.423-20.46 92.339-20.879 128.22-1.1883h3e-3c15.224-1.7001 31.476 0.5809 43.752 6.8396 0.802 0.4061 1.578 0.8286 2.343 1.2709z" fill="#fff"/>
<g filter="url(#m)">
<path transform="translate(1031.8 251.88)" d="m87.142 18.821c0.0467-6.543-3.2122-13.114-9.9276-18.821l-10.676 4.2121-4e-4 4.0998c4.481 3.8092 6.9822 8.1134 7.5783 12.474-0.8226 6.0512-5.2838 11.947-13.185 16.509-8.1215 4.6899-18.666 7.3624-29.817 7.6664l0.4727-0.7774 4e-4 -4.0997-31.588 3.5289-4.0603e-4 4.0997 20.915 14.016 3.2276-5.3078c7.6197 0.3499 15.382-0.1751 22.648-1.5416 8.686-1.6307 16.718-4.4763 23.226-8.2361 11.326-6.5422 17.154-15.216 17.126-23.924v-3.8987z" fill="#1A5A85"/>
</g>
<path transform="translate(1031.8 251.88)" d="m77.214-8.0591e-7c15.583 13.244 12.553 31.135-7.1974 42.543-6.5077 3.7598-14.54 6.6053-23.226 8.236-7.2667 1.3666-15.028 1.8915-22.648 1.5415l-3.2275 5.3081-20.916-14.016 31.588-3.5288-2.9832 4.9053c12.072 0.0561 23.599-2.654 32.327-7.6946 15.365-8.8731 17.721-22.787 5.6067-33.083l10.676-4.2121z" fill="#1B75BC"/>
<g filter="url(#l)">
<path transform="translate(1002.9 232.1)" d="m87.147 14.016l-20.916-14.016-3.2308 5.3081c-7.6197-0.3499-15.382 0.17485-22.648 1.5416-8.6856 1.6307-16.718 4.4761-23.225 8.2359-11.297 6.5243-17.123 15.169-17.127 23.852l-4.0604e-4 4.048c-0.021114 6.5178 3.2394 13.059 9.9293 18.743l10.679-4.212 4e-4 -4.0998c-4.4807-3.8081-6.9819-8.1109-7.5775-12.471 0.8218-6.052 5.2834-11.949 13.184-16.512 8.122-4.6897 18.666-7.3626 29.817-7.6664l-0.4727 0.7772-4e-4 4.0997 31.588-3.5287 4e-4 -4.0997z" fill="#1A5A85"/>
</g>
<path transform="translate(1002.9 232.1)" d="m66.231-3.5258e-7l20.916 14.016-31.588 3.5287 2.9832-4.9052c-12.072-0.0562-23.598 2.654-32.327 7.6946-15.365 8.8731-17.721 22.787-5.6068 33.083l-10.679 4.2121c-15.583-13.244-12.557-31.135 7.1974-42.543 6.5076-3.7598 14.54-6.6053 23.226-8.236 7.2667-1.3666 15.028-1.8915 22.648-1.5416l3.2307-5.308z" fill="#1B75BC"/>
<defs>
<filter id="n" x="0" y="49.059" width="1354" height="823.94" color-interpolation-filters="sRGB" filterUnits="userSpaceOnUse">
<feFlood flood-opacity="0" result="BackgroundImageFix"/>
<feColorMatrix in="SourceAlpha" values="0 0 0 0 0 0 0 0 0 0 0 0 0 0 0 0 0 0 255 0"/>
<feOffset dy="20"/>
<feGaussianBlur stdDeviation="15"/>
<feColorMatrix values="0 0 0 0 0 0 0 0 0 0 0 0 0 0 0 0 0 0 0.25 0"/>
<feBlend in2="BackgroundImageFix" result="effect1_dropShadow"/>
<feBlend in="SourceGraphic" in2="effect1_dropShadow" result="shape"/>
</filter>
<filter id="k" x="80.292" y="70.474" width="552.24" height="360.92" color-interpolation-filters="sRGB" filterUnits="userSpaceOnUse">
<feFlood flood-opacity="0" result="BackgroundImageFix"/>
<feColorMatrix in="SourceAlpha" values="0 0 0 0 0 0 0 0 0 0 0 0 0 0 0 0 0 0 255 0"/>
<feOffset dy="20"/>
<feGaussianBlur stdDeviation="15"/>
<feColorMatrix values="0 0 0 0 0 0 0 0 0 0 0 0 0 0 0 0 0 0 0.2 0"/>
<feBlend in2="BackgroundImageFix" result="effect1_dropShadow"/>
<feBlend in="SourceGraphic" in2="effect1_dropShadow" result="shape"/>
</filter>
<filter id="j" x="149" y="113.48" width="638.08" height="410.49" color-interpolation-filters="sRGB" filterUnits="userSpaceOnUse">
<feFlood flood-opacity="0" result="BackgroundImageFix"/>
<feColorMatrix in="SourceAlpha" values="0 0 0 0 0 0 0 0 0 0 0 0 0 0 0 0 0 0 255 0"/>
<feOffset dy="20"/>
<feGaussianBlur stdDeviation="15"/>
<feColorMatrix values="0 0 0 0 0 0 0 0 0 0 0 0 0 0 0 0 0 0 0.2 0"/>
<feBlend in2="BackgroundImageFix" result="effect1_dropShadow"/>
<feBlend in="SourceGraphic" in2="effect1_dropShadow" result="shape"/>
</filter>
<filter id="i" x="643.49" y="206.05" width="481.41" height="320" color-interpolation-filters="sRGB" filterUnits="userSpaceOnUse">
<feFlood flood-opacity="0" result="BackgroundImageFix"/>
<feColorMatrix in="SourceAlpha" values="0 0 0 0 0 0 0 0 0 0 0 0 0 0 0 0 0 0 255 0"/>
<feOffset dy="20"/>
<feGaussianBlur stdDeviation="15"/>
<feColorMatrix values="0 0 0 0 0 0 0 0 0 0 0 0 0 0 0 0 0 0 0.2 0"/>
<feBlend in2="BackgroundImageFix" result="effect1_dropShadow"/>
<feBlend in="SourceGraphic" in2="effect1_dropShadow" result="shape"/>
</filter>
<filter id="h" x="309.3" y="292.57" width="419.59" height="284.31" color-interpolation-filters="sRGB" filterUnits="userSpaceOnUse">
<feFlood flood-opacity="0" result="BackgroundImageFix"/>
<feColorMatrix in="SourceAlpha" values="0 0 0 0 0 0 0 0 0 0 0 0 0 0 0 0 0 0 255 0"/>
<feOffset dy="20"/>
<feGaussianBlur stdDeviation="15"/>
<feColorMatrix values="0 0 0 0 0 0 0 0 0 0 0 0 0 0 0 0 0 0 0.25 0"/>
<feBlend in2="BackgroundImageFix" result="effect1_dropShadow"/>
<feBlend in="SourceGraphic" in2="effect1_dropShadow" result="shape"/>
</filter>
<filter id="g" x="400.94" y="345.46" width="568.45" height="370.27" color-interpolation-filters="sRGB" filterUnits="userSpaceOnUse">
<feFlood flood-opacity="0" result="BackgroundImageFix"/>
<feColorMatrix in="SourceAlpha" values="0 0 0 0 0 0 0 0 0 0 0 0 0 0 0 0 0 0 255 0"/>
<feOffset dy="20"/>
<feGaussianBlur stdDeviation="15"/>
<feColorMatrix values="0 0 0 0 0 0 0 0 0 0 0 0 0 0 0 0 0 0 0.2 0"/>
<feBlend in2="BackgroundImageFix" result="effect1_dropShadow"/>
<feBlend in="SourceGraphic" in2="effect1_dropShadow" result="shape"/>
</filter>
<filter id="f" x="647.1" y="401.13" width="666.73" height="427.04" color-interpolation-filters="sRGB" filterUnits="userSpaceOnUse">
<feFlood flood-opacity="0" result="BackgroundImageFix"/>
<feColorMatrix in="SourceAlpha" values="0 0 0 0 0 0 0 0 0 0 0 0 0 0 0 0 0 0 255 0"/>
<feOffset dy="20"/>
<feGaussianBlur stdDeviation="15"/>
<feColorMatrix values="0 0 0 0 0 0 0 0 0 0 0 0 0 0 0 0 0 0 0.2 0"/>
<feBlend in2="BackgroundImageFix" result="effect1_dropShadow"/>
<feBlend in="SourceGraphic" in2="effect1_dropShadow" result="shape"/>
</filter>
<filter id="e" x="568.81" y="0" width="302.78" height="202.2" color-interpolation-filters="sRGB" filterUnits="userSpaceOnUse">
<feFlood flood-opacity="0" result="BackgroundImageFix"/>
<feColorMatrix in="SourceAlpha" values="0 0 0 0 0 0 0 0 0 0 0 0 0 0 0 0 0 0 255 0"/>
<feOffset dy="20"/>
<feGaussianBlur stdDeviation="10"/>
<feColorMatrix values="0 0 0 0 0 0 0 0 0 0 0 0 0 0 0 0 0 0 0.15 0"/>
<feBlend in2="BackgroundImageFix" result="effect1_dropShadow"/>
<feBlend in="SourceGraphic" in2="effect1_dropShadow" result="shape"/>
</filter>
<filter id="d" x="242.84" y="501.58" width="272.84" height="188.06" color-interpolation-filters="sRGB" filterUnits="userSpaceOnUse">
<feFlood flood-opacity="0" result="BackgroundImageFix"/>
<feColorMatrix in="SourceAlpha" values="0 0 0 0 0 0 0 0 0 0 0 0 0 0 0 0 0 0 255 0"/>
<feOffset dy="20"/>
<feGaussianBlur stdDeviation="10"/>
<feColorMatrix values="0 0 0 0 0 0 0 0 0 0 0 0 0 0 0 0 0 0 0.2 0"/>
<feBlend in2="BackgroundImageFix" result="effect1_dropShadow"/>
<feBlend in="SourceGraphic" in2="effect1_dropShadow" result="shape"/>
</filter>
<filter id="c" x="913.08" y="219.6" width="289.47" height="213.14" color-interpolation-filters="sRGB" filterUnits="userSpaceOnUse">
<feFlood flood-opacity="0" result="BackgroundImageFix"/>
<feColorMatrix in="SourceAlpha" values="0 0 0 0 0 0 0 0 0 0 0 0 0 0 0 0 0 0 255 0"/>
<feOffset dy="20"/>
<feGaussianBlur stdDeviation="10"/>
<feColorMatrix values="0 0 0 0 0 0 0 0 0 0 0 0 0 0 0 0 0 0 0.2 0"/>
<feBlend in2="BackgroundImageFix" result="effect1_dropShadow"/>
<feBlend in="SourceGraphic" in2="effect1_dropShadow" result="shape"/>
</filter>
<filter id="m" x="1021.8" y="251.88" width="107.14" height="81.729" color-interpolation-filters="sRGB" filterUnits="userSpaceOnUse">
<feFlood flood-opacity="0" result="BackgroundImageFix"/>
<feColorMatrix in="SourceAlpha" values="0 0 0 0 0 0 0 0 0 0 0 0 0 0 0 0 0 0 255 0"/>
<feOffset dy="10"/>
<feGaussianBlur stdDeviation="5"/>
<feColorMatrix values="0 0 0 0 0 0 0 0 0 0 0 0 0 0 0 0 0 0 0.25 0"/>
<feBlend in2="BackgroundImageFix" result="effect1_dropShadow"/>
<feBlend in="SourceGraphic" in2="effect1_dropShadow" result="shape"/>
</filter>
<filter id="l" x="992.88" y="232.1" width="107.15" height="81.729" color-interpolation-filters="sRGB" filterUnits="userSpaceOnUse">
<feFlood flood-opacity="0" result="BackgroundImageFix"/>
<feColorMatrix in="SourceAlpha" values="0 0 0 0 0 0 0 0 0 0 0 0 0 0 0 0 0 0 255 0"/>
<feOffset dy="10"/>
<feGaussianBlur stdDeviation="5"/>
<feColorMatrix values="0 0 0 0 0 0 0 0 0 0 0 0 0 0 0 0 0 0 0.25 0"/>
<feBlend in2="BackgroundImageFix" result="effect1_dropShadow"/>
<feBlend in="SourceGraphic" in2="effect1_dropShadow" result="shape"/>
</filter>
<linearGradient id="b" x2="1" gradientTransform="translate(-.015645 70.552) scale(578.08 192.75)" gradientUnits="userSpaceOnUse">
<stop stop-color="#2472BA" offset="0"/>
<stop stop-color="#2472BA" stop-opacity=".7" offset="1"/>
</linearGradient>
<linearGradient id="a" x2="1" gradientTransform="translate(-154.55 97.69) scale(410.38 136.84) rotate(-60.001)" gradientUnits="userSpaceOnUse">
<stop stop-color="#2472BA" offset="0"/>
<stop stop-color="#2472BA" stop-opacity=".7" offset="1"/>
</linearGradient>
</defs>
</svg>
