<svg fill="none" viewBox="0 0 710 407" xmlns="http://www.w3.org/2000/svg"><rect transform="translate(6 6)" width="690" height="387" rx="10" fill="url(#a)" filter="url(#b)"/><path d="M6 363h690v20c0 5.523-4.477 10-10 10H16c-5.523 0-10-4.477-10-10v-20z" fill="#111"/><path fill="#56CCF2" d="M641 380h2v3h-2zM644 378h2v5h-2zM647 376h2v7h-2zM650 374h2v9h-2zM653 372h2v11h-2z"/><path d="M32 378l-12 6.928v-13.856L32 378z" fill="#fff"/><path stroke="#336E81" stroke-width=".75" d="M64.625 374.625h546.75v6.75H64.625z"/><path fill="#56CCF2" stroke="#56CCF2" stroke-width=".5" d="M64.75 374.75h20.5v6.5h-20.5z"/><path fill="#56CCF2" fill-opacity=".5" d="M85 375h60v6H85z"/><path d="M675.285 375.83l-1.457 1.457-1.82-1.82-.911.91-.728-4.006 4.005.729-.91.91 1.82 1.82zM676.195 379.66l1.457-1.457 1.82 1.82.911-.91.728 4.006-4.005-.729.91-.91-1.82-1.82zM673.83 378.195l1.457 1.457-1.82 1.82.91.911-4.006.728.729-4.005.91.91 1.82-1.82zM677.66 377.285l-1.457-1.457 1.82-1.82-.91-.911 4.006-.728-.729 4.005-.91-.91-1.82 1.82zM272.512 180.944v7.968c-1.696.352-3.28.528-4.752.528-1.888 0-3.568-.464-5.04-1.392-1.44-.96-2.56-2.32-3.36-4.08-.8-1.792-1.2-3.856-1.2-6.192 0-2.56.464-4.72 1.392-6.48.96-1.792 2.24-3.136 3.84-4.032s3.392-1.344 5.376-1.344c1.056 0 1.936.08 2.64.24.736.128 1.712.368 2.928.72-.032-.032.4.096 1.296.384l1.968-4.464c-1.312-.704-2.832-1.232-4.56-1.584-1.728-.352-3.184-.528-4.368-.528-3.232 0-6.144.736-8.736 2.208s-4.624 3.52-6.096 6.144c-1.44 2.592-2.16 5.52-2.16 8.784 0 3.136.656 5.984 1.968 8.544s3.184 4.592 5.616 6.096c2.464 1.472 5.344 2.208 8.64 2.208 1.92 0 3.76-.224 5.52-.672s3.312-1.024 4.656-1.728v-16.128h-11.904l-.528 4.8h6.864zm31.242 1.344c0-2.272-.384-4.32-1.152-6.144-.768-1.856-1.952-3.328-3.552-4.416s-3.568-1.632-5.904-1.632c-2.4 0-4.48.512-6.24 1.536-1.76.992-3.12 2.416-4.08 4.272-.928 1.856-1.392 4.016-1.392 6.48 0 3.808 1.136 6.8 3.408 8.976 2.304 2.144 5.664 3.216 10.08 3.216 1.888 0 3.52-.24 4.896-.72a14.253 14.253 0 0 0 3.84-2.16l-1.824-4.512c-1.184.672-2.288 1.184-3.312 1.536s-2.176.528-3.456.528c-2.208 0-3.856-.432-4.944-1.296-1.056-.864-1.744-2.112-2.064-3.744h15.696v-1.92zm-15.648-2.256c.256-1.504.816-2.64 1.68-3.408.864-.8 1.936-1.2 3.216-1.2s2.32.384 3.12 1.152c.832.768 1.408 1.92 1.728 3.456h-9.744zm25.711-2.16c1.152-.832 2.208-1.488 3.168-1.968a6.432 6.432 0 0 1 3.072-.768c1.056 0 1.872.4 2.448 1.2.608.8.912 1.92.912 3.36V194h6.24v-14.592c0-2.976-.592-5.296-1.776-6.96s-3.248-2.496-6.192-2.496c-1.28 0-2.736.288-4.368.864s-3.168 1.376-4.608 2.4l-1.056-2.496h-4.08V194h6.24v-16.128zm41.828 4.416c0-2.272-.384-4.32-1.152-6.144-.768-1.856-1.952-3.328-3.552-4.416s-3.568-1.632-5.904-1.632c-2.4 0-4.48.512-6.24 1.536-1.76.992-3.12 2.416-4.08 4.272-.928 1.856-1.392 4.016-1.392 6.48 0 3.808 1.136 6.8 3.408 8.976 2.304 2.144 5.664 3.216 10.08 3.216 1.888 0 3.52-.24 4.896-.72a14.253 14.253 0 0 0 3.84-2.16l-1.824-4.512c-1.184.672-2.288 1.184-3.312 1.536s-2.176.528-3.456.528c-2.208 0-3.856-.432-4.944-1.296-1.056-.864-1.744-2.112-2.064-3.744h15.696v-1.92zm-15.648-2.256c.256-1.504.816-2.64 1.68-3.408.864-.8 1.936-1.2 3.216-1.2s2.32.384 3.12 1.152c.832.768 1.408 1.92 1.728 3.456h-9.744zm25.711-.24a20.164 20.164 0 0 1 4.32-2.928c1.568-.768 2.88-1.152 3.936-1.152l-1.248-4.992c-1.152 0-2.48.4-3.984 1.2s-2.816 1.696-3.936 2.688l-2.064-3.888h-3.264V194h6.24v-14.208zm13.641-2.4c.896-.416 1.984-.768 3.264-1.056 1.28-.32 2.448-.48 3.504-.48 1.152 0 2.048.336 2.688 1.008.672.64 1.024 1.552 1.056 2.736h-4.56c-2.688 0-4.832.656-6.432 1.968-1.6 1.28-2.4 3.104-2.4 5.472 0 2.304.704 4.144 2.112 5.52 1.408 1.344 3.504 2.016 6.288 2.016 2.144 0 4.192-1.024 6.144-3.072l1.056 2.496h4.08v-15.312c0-1.632-.464-3.104-1.392-4.416-.896-1.312-2.112-2.336-3.648-3.072s-3.232-1.104-5.088-1.104c-1.088 0-2.544.224-4.368.672-1.824.416-3.152.896-3.984 1.44l1.68 5.184zm2.448 9.648c0-.896.304-1.664.912-2.304.64-.64 1.472-.96 2.496-.96h4.704v3.552c-1.568 1.536-3.28 2.304-5.136 2.304-.864 0-1.584-.256-2.16-.768-.544-.512-.816-1.12-.816-1.824zm26.589-16.272v-6.624l-6.192 1.104v5.52h-3.12v4.8h3.12v10.992c0 2.656.816 4.72 2.448 6.192s3.904 2.208 6.816 2.208c.768 0 1.616-.144 2.544-.432.96-.288 1.68-.624 2.16-1.008l-1.824-4.512c-.864.416-1.712.624-2.544.624-1.088 0-1.936-.384-2.544-1.152-.576-.768-.864-1.776-.864-3.024v-9.888h6.144l-1.92-4.8h-4.224zm32.009 11.52c0-2.272-.384-4.32-1.152-6.144-.768-1.856-1.952-3.328-3.552-4.416s-3.568-1.632-5.904-1.632c-2.4 0-4.48.512-6.24 1.536-1.76.992-3.12 2.416-4.08 4.272-.928 1.856-1.392 4.016-1.392 6.48 0 3.808 1.136 6.8 3.408 8.976 2.304 2.144 5.664 3.216 10.08 3.216 1.888 0 3.52-.24 4.896-.72a14.253 14.253 0 0 0 3.84-2.16l-1.824-4.512c-1.184.672-2.288 1.184-3.312 1.536s-2.176.528-3.456.528c-2.208 0-3.856-.432-4.944-1.296-1.056-.864-1.744-2.112-2.064-3.744h15.696v-1.92zm-15.648-2.256c.256-1.504.816-2.64 1.68-3.408.864-.8 1.936-1.2 3.216-1.2s2.32.384 3.12 1.152c.832.768 1.408 1.92 1.728 3.456h-9.744zm27.103 2.592h3.6c2.4 0 4.608-.384 6.624-1.152 2.016-.8 3.632-2.016 4.848-3.648 1.248-1.632 1.872-3.632 1.872-6 0-3.552-1.2-6.176-3.6-7.872-2.368-1.728-5.472-2.592-9.312-2.592h-10.224V194h6.192v-11.376zm3.84-16.08c2.144 0 3.76.448 4.848 1.344 1.12.864 1.68 2.304 1.68 4.32-.128 1.76-.752 3.088-1.872 3.984-1.12.864-2.64 1.296-4.56 1.296h-3.936v-10.944h3.84zm23.174 13.248a20.164 20.164 0 0 1 4.32-2.928c1.568-.768 2.88-1.152 3.936-1.152l-1.248-4.992c-1.152 0-2.48.4-3.984 1.2s-2.816 1.696-3.936 2.688l-2.064-3.888h-3.264V194h6.24v-14.208zm32.265 2.496c0-2.272-.384-4.32-1.152-6.144-.768-1.856-1.952-3.328-3.552-4.416s-3.568-1.632-5.904-1.632c-2.4 0-4.48.512-6.24 1.536-1.76.992-3.12 2.416-4.08 4.272-.928 1.856-1.392 4.016-1.392 6.48 0 3.808 1.136 6.8 3.408 8.976 2.304 2.144 5.664 3.216 10.08 3.216 1.888 0 3.52-.24 4.896-.72a14.253 14.253 0 0 0 3.84-2.16l-1.824-4.512c-1.184.672-2.288 1.184-3.312 1.536s-2.176.528-3.456.528c-2.208 0-3.856-.432-4.944-1.296-1.056-.864-1.744-2.112-2.064-3.744h15.696v-1.92zm-15.648-2.256c.256-1.504.816-2.64 1.68-3.408.864-.8 1.936-1.2 3.216-1.2s2.32.384 3.12 1.152c.832.768 1.408 1.92 1.728 3.456h-9.744zm18.128 12.144c.991.768 2.287 1.36 3.888 1.776 1.6.416 2.992.624 4.175.624 3.137 0 5.537-.624 7.2-1.872 1.665-1.28 2.497-3.088 2.497-5.424 0-1.856-.752-3.424-2.257-4.704-1.503-1.28-3.392-2.336-5.664-3.168-1.184-.416-2.096-.784-2.736-1.104-.607-.352-.911-.736-.911-1.152 0-.544.256-1.008.768-1.392.543-.416 1.215-.624 2.016-.624 1.024 0 2 .128 2.928.384.96.256 2.048.656 3.263 1.2l1.872-4.176c-1.088-.736-2.416-1.328-3.984-1.776s-2.895-.672-3.983-.672c-2.785 0-4.993.64-6.624 1.92-1.632 1.248-2.448 2.976-2.448 5.184 0 1.76.736 3.216 2.207 4.368 1.473 1.152 3.312 2.096 5.52 2.832 2.72.832 4.081 1.872 4.081 3.12 0 .64-.401 1.136-1.201 1.488-.799.352-1.679.528-2.639.528-1.696 0-3.728-.528-6.097-1.584l-1.871 4.224zm20.25 0c.991.768 2.287 1.36 3.888 1.776 1.6.416 2.992.624 4.175.624 3.137 0 5.537-.624 7.2-1.872 1.665-1.28 2.497-3.088 2.497-5.424 0-1.856-.752-3.424-2.257-4.704-1.503-1.28-3.392-2.336-5.664-3.168-1.184-.416-2.096-.784-2.736-1.104-.607-.352-.911-.736-.911-1.152 0-.544.256-1.008.768-1.392.543-.416 1.215-.624 2.016-.624 1.024 0 2 .128 2.928.384.96.256 2.048.656 3.263 1.2l1.872-4.176c-1.088-.736-2.416-1.328-3.984-1.776s-2.895-.672-3.983-.672c-2.785 0-4.993.64-6.624 1.92-1.632 1.248-2.448 2.976-2.448 5.184 0 1.76.736 3.216 2.207 4.368 1.473 1.152 3.312 2.096 5.52 2.832 2.72.832 4.081 1.872 4.081 3.12 0 .64-.401 1.136-1.201 1.488-.799.352-1.679.528-2.639.528-1.696 0-3.728-.528-6.097-1.584l-1.871 4.224zM257.747 206.208h-7.603v.706h3.384V216h.907v-9.086h3.384l-.072-.706zm4.763 2.62c.72 0 1.257.212 1.613.634s.532.984.532 1.685v4.839h-.892v-4.666c0-1.152-.452-1.728-1.354-1.728-.365 0-.792.14-1.282.418-.48.268-.878.604-1.195 1.008V216h-.893v-10.022l.893-.144v4.234c.298-.346.691-.639 1.181-.879.5-.24.965-.36 1.397-.36zm9.624 3.73c0-1.132-.24-2.035-.72-2.707-.48-.681-1.214-1.022-2.203-1.022-.998 0-1.776.336-2.333 1.008-.547.672-.825 1.55-.835 2.635 0 1.133.298 2.035.893 2.707s1.478 1.008 2.65 1.008c.499 0 .926-.057 1.281-.173a6.086 6.086 0 0 0 1.167-.49l-.303-.662a6.389 6.389 0 0 1-1.094.461c-.346.096-.71.144-1.095.144-.892 0-1.545-.259-1.958-.777-.413-.528-.624-1.239-.634-2.132h5.184zm-5.155-.619c.067-.72.283-1.291.648-1.713.365-.432.879-.648 1.54-.648 1.22 0 1.907.787 2.06 2.361h-4.248zm12.795-3.11c1.008 0 1.79.336 2.347 1.008s.836 1.565.836 2.678c-.01.701-.144 1.33-.404 1.887-.25.556-.619.993-1.108 1.31-.48.317-1.056.475-1.728.475-.576 0-1.167-.23-1.772-.691v3.5l-.892.158v-10.138h.59l.187.576c.279-.24.58-.428.907-.562a2.768 2.768 0 0 1 1.037-.202zm-.014 6.61c.739 0 1.3-.27 1.685-.807.393-.547.595-1.248.604-2.102 0-.903-.187-1.618-.561-2.146-.375-.538-.941-.806-1.7-.806-.383 0-.724.072-1.022.216s-.571.345-.82.604v4.292c.259.23.527.412.806.547s.614.201 1.008.201zm10.29-2.88c0-1.133-.24-2.036-.72-2.708-.48-.681-1.214-1.022-2.202-1.022-.999 0-1.776.336-2.333 1.008-.547.672-.826 1.55-.835 2.635 0 1.133.297 2.035.892 2.707s1.479 1.008 2.65 1.008c.5 0 .926-.057 1.282-.173a6.086 6.086 0 0 0 1.166-.49l-.302-.662a6.389 6.389 0 0 1-1.095.461c-.345.096-.71.144-1.094.144-.893 0-1.546-.259-1.959-.777-.412-.528-.624-1.239-.633-2.132h5.184zm-5.154-.62c.067-.72.283-1.291.648-1.713.364-.432.878-.648 1.54-.648 1.22 0 1.906.787 2.06 2.361h-4.248zm7.49-.921a4.693 4.693 0 0 1 1.152-.893c.48-.269.926-.403 1.339-.403l-.245-.706c-.326 0-.71.12-1.152.36-.432.23-.811.48-1.137.749l-.26-1.109h-.59V216h.893v-4.982zm3.925-1.181V216h.893v-6.163h1.57l-.303-.677h-1.267v-1.267c0-.787.33-1.181.993-1.181.087 0 .192.014.317.043s.216.058.274.087l.173-.764a2.654 2.654 0 0 0-.95-.187c-.52 0-.932.183-1.24.547s-.46.85-.46 1.455v1.267h-1.051l.014.677h1.037zm9.25 2.721c0-1.132-.24-2.035-.72-2.707-.48-.681-1.214-1.022-2.203-1.022-.998 0-1.776.336-2.332 1.008-.548.672-.826 1.55-.836 2.635 0 1.133.298 2.035.893 2.707s1.479 1.008 2.65 1.008c.499 0 .926-.057 1.281-.173a6.086 6.086 0 0 0 1.167-.49l-.303-.662a6.389 6.389 0 0 1-1.094.461c-.346.096-.71.144-1.094.144-.893 0-1.546-.259-1.959-.777-.413-.528-.624-1.239-.633-2.132h5.184zm-5.155-.619c.068-.72.284-1.291.648-1.713.365-.432.879-.648 1.541-.648 1.22 0 1.906.787 2.06 2.361h-4.249zm11.35 3.01a6.693 6.693 0 0 1-.907.389c-.23.067-.571.1-1.022.1-.759 0-1.34-.273-1.743-.82s-.604-1.268-.604-2.16c.01-.845.225-1.536.648-2.074.432-.538 1.022-.806 1.77-.806.433 0 .774.038 1.023.115.26.077.562.201.907.374l.288-.633c-.268-.173-.624-.317-1.065-.432s-.811-.173-1.109-.173c-.672 0-1.262.158-1.771.475-.509.307-.903.74-1.181 1.296s-.418 1.18-.418 1.872c0 .73.13 1.378.39 1.944.258.557.633.994 1.122 1.31.5.308 1.085.461 1.757.461.317 0 .696-.057 1.138-.173.441-.105.797-.244 1.065-.417l-.288-.648zm2.998-5.789v-2.131l-.907.317v1.814h-1.037l.015.677h1.022v4.493c0 .595.154 1.056.46 1.382.308.317.72.475 1.24.475.278 0 .498-.029.662-.086.163-.048.259-.077.288-.087l-.173-.734c-.202.086-.399.13-.59.13-.337 0-.586-.106-.75-.317-.153-.211-.23-.5-.23-.864v-4.392h1.57l-.303-.677h-1.267zm7.88 6.84v-10.166l-1.383.158V216h1.383zm2.553-8.237a.87.87 0 0 0 .62-.245c.172-.172.259-.379.259-.619s-.087-.441-.26-.605c-.172-.172-.379-.259-.619-.259s-.441.087-.604.26c-.164.163-.245.364-.245.604s.081.447.245.62a.822.822 0 0 0 .604.244zm.72 8.237v-6.984h-1.396V216h1.396zm7.687-6.984v7.603c0 .519-.134.98-.403 1.383-.26.412-.639.734-1.138.964s-1.099.346-1.8.346c-.336 0-.758-.067-1.267-.202-.509-.124-.912-.288-1.21-.49l.418-.993c.48.211.84.355 1.08.432.25.087.562.13.936.13.595 0 1.075-.14 1.44-.418.365-.269.547-.657.547-1.166v-.907c-.259.153-.528.273-.806.36s-.519.13-.72.13c-.71 0-1.33-.154-1.858-.462a3.062 3.062 0 0 1-1.195-1.296c-.278-.566-.418-1.224-.418-1.972 0-.72.144-1.354.432-1.901s.696-.97 1.224-1.267c.528-.308 1.138-.461 1.83-.461.249 0 .546.057.892.173s.662.283.95.504l.274-.49h.792zm-2.923 5.99c.317 0 .595-.048.835-.144s.47-.244.691-.446v-3.86a2.141 2.141 0 0 0-.705-.417 2.415 2.415 0 0 0-.821-.13c-.643 0-1.147.231-1.512.692-.365.451-.547 1.032-.547 1.742 0 .768.177 1.387.532 1.858.365.47.874.705 1.527.705zm8.756-6.22c.758 0 1.32.235 1.684.705.375.47.562 1.104.562 1.901V216h-1.382v-4.478c0-.51-.087-.893-.26-1.152-.163-.27-.46-.404-.892-.404-.327 0-.682.106-1.066.317a5.949 5.949 0 0 0-1.138.792V216h-1.382v-10.008l1.382-.158v3.96a4.662 4.662 0 0 1 1.195-.735 3.38 3.38 0 0 1 1.296-.273zm5.641.316v-2.059l-1.382.317v1.742h-.994l.015 1.052h.979v3.902c0 .7.197 1.243.59 1.627.403.375.95.562 1.642.562.192 0 .398-.034.619-.101.23-.058.418-.125.562-.202l-.36-1.05c-.279.105-.504.158-.677.158-.336 0-.586-.106-.749-.317-.163-.221-.245-.519-.245-.893v-3.686h1.7l-.433-1.052h-1.267zM355.174 216l2.175-6.984h-1.426l-1.368 4.925-1.44-4.925h-1.454l-1.368 4.925-1.44-5.17-1.325.49 2.117 6.739h1.267l1.454-4.968 1.541 4.968h1.267zm9.146-3.557c0-1.056-.259-1.92-.777-2.592-.509-.681-1.267-1.022-2.275-1.022-.682 0-1.277.153-1.786.46-.499.308-.883.74-1.152 1.297s-.403 1.195-.403 1.915c0 1.123.326 2.016.98 2.678s1.588.994 2.807.994c.845 0 1.69-.255 2.534-.763l-.432-1.008c-.489.23-.873.393-1.152.49a3.11 3.11 0 0 1-.95.129c-.749 0-1.315-.197-1.699-.59-.375-.394-.59-.932-.648-1.613h4.953v-.375zm-4.924-.561c.067-.586.254-1.042.561-1.368.317-.336.74-.504 1.267-.504.99 0 1.575.624 1.757 1.872h-3.585zm6.896-4.119a.87.87 0 0 0 .62-.245c.172-.172.258-.379.258-.619s-.086-.441-.259-.605c-.173-.172-.379-.259-.619-.259s-.442.087-.605.26c-.163.163-.245.364-.245.604s.082.447.245.62a.822.822 0 0 0 .605.244zm.72 8.237v-6.984h-1.397V216h1.397zm7.686-6.984v7.603c0 .519-.134.98-.403 1.383-.259.412-.638.734-1.137.964-.5.23-1.1.346-1.8.346-.336 0-.759-.067-1.268-.202-.508-.124-.912-.288-1.209-.49l.417-.993c.48.211.84.355 1.08.432.25.087.562.13.936.13.596 0 1.076-.14 1.44-.418.365-.269.548-.657.548-1.166v-.907c-.26.153-.528.273-.807.36-.278.086-.518.13-.72.13-.71 0-1.329-.154-1.857-.462a3.064 3.064 0 0 1-1.196-1.296c-.278-.566-.417-1.224-.417-1.972 0-.72.144-1.354.432-1.901s.696-.97 1.224-1.267c.528-.308 1.137-.461 1.83-.461.248 0 .546.057.891.173.346.115.663.283.951.504l.273-.49h.792zm-2.923 5.99c.317 0 .595-.048.835-.144s.471-.244.692-.446v-3.86a2.141 2.141 0 0 0-.706-.417 2.417 2.417 0 0 0-.82-.13c-.644 0-1.148.231-1.513.692-.365.451-.547 1.032-.547 1.742 0 .768.178 1.387.533 1.858.365.47.873.705 1.526.705zm8.756-6.22c.758 0 1.32.235 1.685.705.374.47.561 1.104.561 1.901V216h-1.382v-4.478c0-.51-.086-.893-.259-1.152-.163-.27-.46-.404-.893-.404-.326 0-.682.106-1.066.317a5.933 5.933 0 0 0-1.137.792V216h-1.383v-10.008l1.383-.158v3.96a4.664 4.664 0 0 1 1.195-.735 3.384 3.384 0 0 1 1.296-.273zm5.642.316v-2.059l-1.383.317v1.742h-.993l.014 1.052h.98v3.902c0 .7.196 1.243.59 1.627.403.375.95.562 1.641.562.192 0 .4-.034.62-.101.23-.058.417-.125.561-.202l-.36-1.05c-.278.105-.504.158-.677.158-.336 0-.585-.106-.749-.317-.163-.221-.244-.519-.244-.893v-3.686h1.7l-.433-1.052h-1.267zm7.893.058v-2.131l-.907.317v1.814h-1.037l.015.677h1.022v4.493c0 .595.154 1.056.461 1.382.307.317.72.475 1.238.475.28 0 .5-.029.663-.086.163-.048.26-.077.288-.087l-.173-.734c-.202.086-.398.13-.59.13-.336 0-.586-.106-.749-.317-.154-.211-.23-.5-.23-.864v-4.392h1.57l-.303-.677h-1.268zm6.651-.331c.72 0 1.258.211 1.613.633s.533.984.533 1.685v4.839h-.893v-4.666c0-1.152-.45-1.728-1.354-1.728-.365 0-.792.14-1.28.418-.48.268-.88.604-1.197 1.008V216h-.892v-10.022l.892-.144v4.234c.298-.346.692-.639 1.181-.879.5-.24.965-.36 1.397-.36zm9.625 3.73c0-1.133-.24-2.036-.72-2.708-.48-.681-1.215-1.022-2.204-1.022-.998 0-1.776.336-2.332 1.008-.548.672-.826 1.55-.836 2.635 0 1.133.298 2.035.893 2.707s1.48 1.008 2.65 1.008c.5 0 .926-.057 1.281-.173a6.09 6.09 0 0 0 1.167-.49l-.303-.662a6.372 6.372 0 0 1-1.094.461 4.07 4.07 0 0 1-1.094.144c-.893 0-1.546-.259-1.959-.777-.413-.528-.624-1.239-.633-2.132h5.184zm-5.156-.62c.068-.72.284-1.291.648-1.713.365-.432.88-.648 1.541-.648 1.22 0 1.906.787 2.06 2.361h-4.249zm14.215-3.11c.692 0 1.196.211 1.512.633.327.413.49.975.49 1.685v4.839h-.893v-4.666c0-.538-.09-.96-.273-1.267-.173-.307-.485-.461-.936-.461-.308 0-.672.12-1.095.36-.422.24-.792.542-1.109.907.01.058.015.154.015.288v4.839h-.893v-4.666c0-.538-.09-.96-.274-1.267-.172-.307-.484-.461-.936-.461-.326 0-.72.14-1.18.418a4.131 4.131 0 0 0-1.152 1.008V216h-.893v-6.984h.734l.144 1.066a3.746 3.746 0 0 1 1.152-.879c.471-.25.903-.374 1.296-.374.96 0 1.575.417 1.843 1.253a3.746 3.746 0 0 1 1.152-.879c.471-.25.903-.374 1.296-.374zm9.475 3.73c0-1.133-.24-2.036-.72-2.708-.48-.681-1.215-1.022-2.203-1.022-.999 0-1.776.336-2.333 1.008-.547.672-.826 1.55-.835 2.635 0 1.133.297 2.035.892 2.707.596.672 1.48 1.008 2.65 1.008.5 0 .926-.057 1.282-.173a6.11 6.11 0 0 0 1.166-.49l-.302-.662a6.38 6.38 0 0 1-1.095.461c-.345.096-.71.144-1.094.144-.893 0-1.546-.259-1.959-.777-.412-.528-.624-1.239-.633-2.132h5.184zm-5.155-.62c.067-.72.283-1.291.648-1.713.364-.432.878-.648 1.54-.648 1.22 0 1.906.787 2.06 2.361h-4.248zm10.346-2.102V216h.893v-6.163h1.57l-.303-.677h-1.267v-1.267c0-.787.331-1.181.994-1.181.086 0 .192.014.317.043.124.029.216.058.273.087l.173-.764a2.65 2.65 0 0 0-.95-.187c-.519 0-.932.183-1.239.547s-.46.85-.46 1.455v1.267h-1.052l.015.677h1.036zm9.741 2.707c0 .7-.14 1.33-.418 1.886-.278.548-.677.98-1.195 1.296-.519.308-1.123.461-1.815.461-.652 0-1.219-.158-1.699-.475a3.04 3.04 0 0 1-1.08-1.31c-.249-.567-.374-1.21-.374-1.93.01-.691.15-1.31.417-1.858a3.126 3.126 0 0 1 1.152-1.31c.51-.317 1.1-.475 1.772-.475 1.027 0 1.824.331 2.39.993.566.653.85 1.56.85 2.722zm-3.327 2.894c.75 0 1.335-.268 1.757-.806.432-.538.653-1.229.662-2.074 0-.892-.2-1.612-.604-2.16-.404-.547-.984-.82-1.743-.82-.749 0-1.339.268-1.77.806-.423.538-.639 1.229-.649 2.074 0 .892.202 1.612.605 2.16s.984.82 1.742.82zm5.664-4.42a4.708 4.708 0 0 1 1.152-.893c.48-.269.927-.403 1.34-.403l-.245-.706c-.327 0-.71.12-1.152.36-.432.23-.81.48-1.138.749l-.259-1.109h-.59V216h.892v-4.982zm8.322 6.393c-.115.298-.264.514-.446.648-.182.144-.49.317-.922.519l.245.576c.461-.096.86-.279 1.195-.548s.576-.6.72-.993l3.068-8.597h-.864l-2.16 5.789-2.29-5.962-.706.375 2.621 6.883-.46 1.31zm11.095-4.867c0 .7-.139 1.33-.417 1.886-.279.548-.677.98-1.195 1.296-.519.308-1.124.461-1.815.461-.653 0-1.219-.158-1.699-.475a3.04 3.04 0 0 1-1.08-1.31c-.25-.567-.374-1.21-.374-1.93.01-.691.148-1.31.417-1.858a3.126 3.126 0 0 1 1.152-1.31c.51-.317 1.1-.475 1.771-.475 1.028 0 1.824.331 2.391.993.566.653.85 1.56.85 2.722zm-3.326 2.894c.75 0 1.334-.268 1.757-.806.432-.538.653-1.229.662-2.074 0-.892-.2-1.612-.605-2.16-.403-.547-.984-.82-1.742-.82-.749 0-1.339.268-1.77.806-.424.538-.64 1.229-.649 2.074 0 .892.201 1.612.605 2.16.403.547.984.82 1.742.82zm9.437-1.454c-.317.403-.72.744-1.21 1.022-.48.27-.902.404-1.267.404-.902 0-1.353-.576-1.353-1.728v-4.666h-.893v4.838c0 .701.177 1.263.533 1.685.355.423.892.634 1.612.634.432 0 .898-.12 1.397-.36.5-.25.898-.547 1.195-.893l.144 1.08h.735v-6.998h-.893v4.982zm3.652-2.966a4.708 4.708 0 0 1 1.152-.893c.48-.269.927-.403 1.34-.403l-.245-.706c-.327 0-.71.12-1.152.36-.432.23-.812.48-1.138.749l-.259-1.109h-.59V216h.892v-4.982zm7.847 0c.317-.404.715-.74 1.195-1.008.49-.279.917-.418 1.282-.418.902 0 1.353.576 1.353 1.728v4.666h.893v-4.839c0-.7-.177-1.262-.533-1.685-.355-.422-.892-.633-1.612-.633-.432 0-.898.125-1.397.374-.499.24-.898.533-1.195.879l-.144-1.066h-.735V216h.893v-4.982zm12.191 1.54c0-1.132-.24-2.035-.72-2.707-.48-.681-1.214-1.022-2.203-1.022-.998 0-1.776.336-2.333 1.008-.547.672-.825 1.55-.835 2.635 0 1.133.298 2.035.893 2.707s1.478 1.008 2.65 1.008c.5 0 .926-.057 1.281-.173a6.09 6.09 0 0 0 1.167-.49l-.303-.662a6.405 6.405 0 0 1-1.094.461 4.078 4.078 0 0 1-1.095.144c-.892 0-1.545-.259-1.958-.777-.413-.528-.624-1.239-.634-2.132h5.184zm-5.155-.619c.067-.72.283-1.291.648-1.713.365-.432.88-.648 1.541-.648 1.22 0 1.906.787 2.06 2.361h-4.249zm6.814 4.061l1.83-2.866 1.871 2.866h.98l-2.19-3.355 2.39-3.629h-.979l-1.9 2.966-1.988-3.11-.792.36 2.117 3.24-2.347 3.528h1.008zm7.21-6.84v-2.131l-.907.317v1.814h-1.037l.014.677h1.023v4.493c0 .595.153 1.056.461 1.382.307.317.72.475 1.238.475.278 0 .5-.029.662-.086.164-.048.26-.077.288-.087l-.172-.734c-.202.086-.399.13-.59.13-.337 0-.586-.106-.75-.317-.153-.211-.23-.5-.23-.864v-4.392h1.57l-.303-.677h-1.267zm9.233-.331c1.008 0 1.791.336 2.348 1.008.556.672.835 1.565.835 2.678-.01.701-.144 1.33-.403 1.887-.25.556-.62.993-1.109 1.31-.48.317-1.056.475-1.728.475-.576 0-1.167-.23-1.77-.691v3.5l-.894.158v-10.138h.59l.187.576c.28-.24.581-.428.908-.562a2.765 2.765 0 0 1 1.036-.202zm-.014 6.61c.74 0 1.301-.27 1.685-.807.393-.547.595-1.248.605-2.102 0-.903-.188-1.618-.562-2.146-.374-.538-.94-.806-1.699-.806-.384 0-.725.072-1.023.216a2.877 2.877 0 0 0-.82.604v4.292c.26.23.528.412.806.547s.614.201 1.008.201zm5.524-4.421a4.708 4.708 0 0 1 1.152-.893c.48-.269.926-.403 1.34-.403l-.246-.706c-.326 0-.71.12-1.152.36-.432.23-.81.48-1.137.749l-.259-1.109h-.59V216h.892v-4.982zm9.714 1.526c0 .7-.139 1.33-.418 1.886a3.17 3.17 0 0 1-1.195 1.296c-.518.308-1.123.461-1.814.461-.653 0-1.219-.158-1.699-.475a3.027 3.027 0 0 1-1.08-1.31c-.25-.567-.375-1.21-.375-1.93.01-.691.15-1.31.418-1.858a3.126 3.126 0 0 1 1.152-1.31c.51-.317 1.1-.475 1.771-.475 1.027 0 1.824.331 2.39.993.567.653.85 1.56.85 2.722zm-3.326 2.894c.748 0 1.334-.268 1.756-.806.432-.538.653-1.229.663-2.074 0-.892-.202-1.612-.605-2.16s-.984-.82-1.742-.82c-.749 0-1.34.268-1.772.806-.422.538-.638 1.229-.648 2.074 0 .892.202 1.612.605 2.16s.984.82 1.743.82zm5.361-7.948a.66.66 0 0 1-.489-.188c-.125-.134-.188-.297-.188-.49s.063-.35.188-.474a.635.635 0 0 1 .49-.202c.182 0 .34.067.474.202.144.124.216.283.216.475s-.072.355-.216.49a.673.673 0 0 1-.475.187zm.461 9.403c0 .432-.043.782-.13 1.051-.086.269-.249.5-.489.691-.23.202-.57.375-1.023.519l-.345-.62c.326-.124.561-.254.705-.388a.953.953 0 0 0 .303-.533c.057-.211.081-.523.072-.936v-7.661h.907v7.877zm7.702-4.335c0-1.132-.24-2.035-.72-2.707-.48-.681-1.215-1.022-2.203-1.022-.999 0-1.776.336-2.333 1.008-.547.672-.826 1.55-.835 2.635 0 1.133.297 2.035.892 2.707.596.672 1.48 1.008 2.65 1.008.5 0 .926-.057 1.282-.173a6.11 6.11 0 0 0 1.166-.49l-.302-.662a6.38 6.38 0 0 1-1.095.461c-.345.096-.71.144-1.094.144-.893 0-1.546-.259-1.959-.777-.412-.528-.624-1.239-.633-2.132h5.184zm-5.155-.619c.067-.72.283-1.291.648-1.713.364-.432.878-.648 1.54-.648 1.22 0 1.906.787 2.06 2.361h-4.248zm11.35 3.01a6.703 6.703 0 0 1-.908.389c-.23.067-.57.1-1.022.1-.759 0-1.34-.273-1.743-.82s-.605-1.268-.605-2.16c.01-.845.226-1.536.648-2.074.432-.538 1.023-.806 1.772-.806.432 0 .772.038 1.022.115.26.077.562.201.907.374l.288-.633c-.269-.173-.624-.317-1.065-.432-.442-.116-.812-.173-1.109-.173-.672 0-1.263.158-1.77.475-.51.307-.904.74-1.182 1.296-.279.557-.418 1.18-.418 1.872 0 .73.13 1.378.39 1.944.258.557.633.994 1.122 1.31.5.308 1.085.461 1.757.461.317 0 .696-.057 1.138-.173.441-.105.796-.244 1.065-.417l-.288-.648zm2.997-5.789v-2.131l-.907.317v1.814h-1.037l.014.677h1.023v4.493c0 .595.153 1.056.46 1.382.308.317.72.475 1.24.475.277 0 .498-.029.661-.086.163-.048.26-.077.288-.087l-.173-.734c-.2.086-.398.13-.59.13-.336 0-.586-.106-.749-.317-.153-.211-.23-.5-.23-.864v-4.392h1.57l-.303-.677h-1.267zm3.223 6.84a.652.652 0 0 0 .476-.202.668.668 0 0 0 .201-.49.605.605 0 0 0-.2-.46.652.652 0 0 0-.477-.202.665.665 0 0 0-.489.202.602.602 0 0 0-.202.46c0 .193.067.356.202.49a.665.665 0 0 0 .49.202z" fill="#fff"/><path d="M201.072 200.45l2.126-4.566c1.77-3.8 1.834-7.958.507-11.609a15.132 15.132 0 0 0-7.842-8.566c-7.59-3.544-16.613-.257-20.153 7.343l-6.394 13.728 37.558 17.533c-8.596 6.026-20.081 7.422-30.275 2.664-15.194-7.094-21.77-25.178-14.683-40.39 7.085-15.212 25.15-21.794 40.346-14.701 11.987 5.596 18.608 18.028 17.392 30.497l9.582 4.473c3.282-17.715-5.623-36.087-22.69-44.054-20.243-9.45-44.31-.681-53.75 19.585-9.44 20.266-.68 44.359 19.564 53.809 15.406 7.191 33.023 3.834 44.726-7.115a40.135 40.135 0 0 0 6.63-8.058L201.07 200.45zm-9.176-4.282l-9.135-4.265 2.14-4.596a5.039 5.039 0 0 1 9.304.406 5.034 5.034 0 0 1-.168 3.859l-2.141 4.596z" fill="#fff" fill-opacity=".9"/><defs><filter id="b" x="0" y="0" width="710" height="407" color-interpolation-filters="sRGB" filterUnits="userSpaceOnUse"><feFlood flood-opacity="0" result="BackgroundImageFix"/><feColorMatrix in="SourceAlpha" values="0 0 0 0 0 0 0 0 0 0 0 0 0 0 0 0 0 0 255 0"/><feOffset dx="4" dy="4"/><feGaussianBlur stdDeviation="5"/><feColorMatrix values="0 0 0 0 0 0 0 0 0 0 0 0 0 0 0 0 0 0 0.25 0"/><feBlend in2="BackgroundImageFix" result="effect1_dropShadow"/><feBlend in="SourceGraphic" in2="effect1_dropShadow" result="shape"/></filter><radialGradient id="a" cx=".5" cy=".5" r=".5" gradientTransform="matrix(1262 710 -1265.9 2250.1 28.946 -1465)" gradientUnits="userSpaceOnUse"><stop stop-color="#1A202C" offset="0"/><stop stop-color="#253047" offset="1"/></radialGradient></defs></svg>