<?xml version="1.0" encoding="UTF-8"?>
<svg fill="none" viewBox="0 0 287 192" xmlns="http://www.w3.org/2000/svg">
<g filter="url(#a)">
<path transform="translate(20.656 .89941)" d="m4.1679e-4 71.543c-5.7503e-4 -0.1364-5.7503e-4 -0.273 1.9168e-4 -0.4096 0.21193-39.162 55.318-71.01 123.08-71.133 67.738-0.12305 122.48 31.5 122.31 70.638 1e-3 0.1205 1e-3 0.2409 0 0.3615 1e-3 0.1214 1e-3 0.2428 0 0.3643 1e-3 0.1204 1e-3 0.2408 0 0.3614 1e-3 0.1213 1e-3 0.2427 0 0.3642 1e-3 0.1205 1e-3 0.2409 0 0.3615 1e-3 0.1213 1e-3 0.2427 0 0.3641 1e-3 0.1204 1e-3 0.2409 0 0.3615 1e-3 0.1213 1e-3 0.2426 0 0.3641 1e-3 0.1205 1e-3 0.241 0 0.3617 1e-3 0.1212 1e-3 0.2424 0 0.3636 1e-3 0.1208 1e-3 0.2416 0 0.3626 1e-3 0.1206 1e-3 0.2414 0 0.3622 1e-3 0.1218 1e-3 0.2435 0 0.3654 1e-3 0.1205 1e-3 0.241 0 0.3616 1e-3 0.1213 1e-3 0.2426 0 0.3641 1e-3 0.1204 1e-3 0.2409 0 0.3615 1e-3 0.1213 1e-3 0.2426 0 0.364 1e-3 0.1205 1e-3 0.2411 0 0.3617 1e-3 0.1213 1e-3 0.2425 0 0.3639 1e-3 0.1206 1e-3 0.2412 0 0.3619 1e-3 0.1211 1e-3 0.2422 0 0.3633 1e-3 0.1211 1e-3 0.2422 0 0.3634 1e-3 0.1201 1e-3 0.2403 0 0.3606 1e-3 0.1228 1e-3 0.2456 0 0.3685 1e-3 0.1361 1e-3 0.2724 0 0.4087v0.0629c-0.018 2.7795-4.954 4.6604-9.387 3.5968-9.694-2.3289-20.337-3.6047-31.512-3.5837-42.543 0.0792-77.707 19.013-81.678 43.038 0.784 4.75 2.787 9.293 5.829 13.521 0.401 0.558 0.56 1.129 0.515 1.682 0.01 0.121 0.01 0.242 0 0.362 0.01 0.122 0.01 0.243 0 0.363 0.01 0.122 0.01 0.243 0 0.363 0.01 0.122 0.01 0.243 0 0.363 0.01 0.121 0.01 0.242 0 0.363 0.01 0.121 0.01 0.242 0 0.363 0.01 0.121 0.01 0.242 0 0.362 0.01 0.122 0.01 0.243 0 0.363 0.01 0.122 0.01 0.243 0 0.363 0.01 0.122 0.01 0.243 0 0.363 0.01 0.121 0.01 0.242 0 0.362 0.01 0.122 0.01 0.243 0 0.363 0.01 0.122 0.01 0.244 0 0.364 0.01 0.122 0.01 0.243 0 0.364 0.01 0.121 0.01 0.242 0 0.362 0.01 0.122 0.01 0.243 0 0.363 0.01 0.122 0.01 0.243 0 0.363 0.01 0.121 0.01 0.242 0 0.362 0.01 0.122 0.01 0.243 0 0.363 0.01 0.122 0.01 0.243 0 0.363 0.01 0.122 0.01 0.243 0 0.363 0.01 0.122 0.01 0.243 0 0.363 0.01 0.121 0.01 0.242 0 0.363 0.01 0.122 0.01 0.243 0 0.364 0.174 2.133-2.743 4.1-6.735 4.108h-0.11c-67.736 0.123-122.48-31.5-122.31-70.644-5.1114e-4 -0.1211-5.1114e-4 -0.2423 0-0.3636-5.1114e-4 -0.1209-5.7503e-4 -0.2418-6.3892e-5 -0.3628-5.1114e-4 -0.1203-4.4724e-4 -0.2407 6.3892e-5 -0.3612-5.1114e-4 -0.1214-5.7503e-4 -0.2428-6.3892e-5 -0.3644-5.1114e-4 -0.1203-4.4724e-4 -0.2407 6.3892e-5 -0.3612-5.1114e-4 -0.1214-5.7503e-4 -0.2429-6.3892e-5 -0.3644-5.1114e-4 -0.1204-4.4724e-4 -0.2408 6.3892e-5 -0.3613-5.1114e-4 -0.1214-5.7503e-4 -0.2428-6.3892e-5 -0.3644-5.1114e-4 -0.1203-4.4724e-4 -0.2407 6.3892e-5 -0.3612-5.1114e-4 -0.1214-5.7503e-4 -0.2429-6.3892e-5 -0.3644-5.1114e-4 -0.1204-4.4724e-4 -0.2408 6.3892e-5 -0.3613-5.1114e-4 -0.1218-5.1114e-4 -0.2437 0-0.3657-5.1114e-4 -0.1209-5.7503e-4 -0.2419-6.3892e-5 -0.3629-5.1114e-4 -0.1204-4.4724e-4 -0.2407 6.3892e-5 -0.3612-5.1114e-4 -0.1214-5.7503e-4 -0.2428-6.3892e-5 -0.3644-5.1114e-4 -0.1204-4.4724e-4 -0.2408 6.3892e-5 -0.3613-5.1114e-4 -0.1214-5.7503e-4 -0.2428-6.3892e-5 -0.3644-5.1114e-4 -0.1203-4.4724e-4 -0.2407 6.3892e-5 -0.3612-5.1114e-4 -0.1214-5.7503e-4 -0.2429-6.3892e-5 -0.3644-5.1114e-4 -0.1204-4.4724e-4 -0.2408 6.3892e-5 -0.3613-5.1114e-4 -0.1214-5.7503e-4 -0.2428-6.3892e-5 -0.3644-5.1114e-4 -0.1203-4.4724e-4 -0.2407 6.3892e-5 -0.3612-5.1114e-4 -0.1214-5.7503e-4 -0.2429-6.3892e-5 -0.3644-5.1114e-4 -0.1204-4.4724e-4 -0.2408 6.3892e-5 -0.3613zm134.68-11.595c3.008-3.8795 9.742-6.5921 17.555-6.6075 7.771-0.0135 14.446 2.6455 17.436 6.4806-3.007 3.8794-9.741 6.5919-17.554 6.6074-7.771 0.0135-14.446-2.6455-17.437-6.4805z" clip-rule="evenodd" fill="#F0EFEF" fill-rule="evenodd"/>
<path transform="translate(20.656 .89941)" d="m6.1338e-4 71.133c-0.21198 39.165 54.546 70.811 122.31 70.688h0.11c4.81-0.011 8.06-2.864 6.22-5.426-4.03-5.601-6.236-11.754-6.202-18.209 0.141-26.066 36.95-47.341 82.051-47.425 11.175-0.021 21.818 1.2548 31.512 3.5838 4.433 1.0636 9.369-0.8174 9.387-3.5969v-0.0629c0.212-39.159-54.546-70.808-122.31-70.685-67.76 0.12313-122.87 31.971-123.08 71.133zm171.35-15.82c-0.034 6.1196-8.641 11.094-19.23 11.115-10.588 0.0183-19.143-4.925-19.112-11.045 0.034-6.1196 8.641-11.094 19.23-11.115 10.588-0.0209 19.143 4.9251 19.112 11.045z" fill="#fff"/>
<path transform="translate(198.38 29.464) rotate(-.31034)" d="m20.449 23.635c11.294 0 20.449-5.2909 20.449-11.818 0-6.5266-9.1555-11.818-20.449-11.818-11.294 0-20.449 5.2909-20.449 11.818 0 6.5266 9.1555 11.818 20.449 11.818z" fill="#2472BA" opacity=".4"/>
<path transform="translate(154.58 10.073) rotate(-.31034)" d="m20.449 23.635c11.294 0 20.449-5.2909 20.449-11.818 0-6.5266-9.1555-11.818-20.449-11.818-11.294 0-20.449 5.2909-20.449 11.818 0 6.5266 9.1555 11.818 20.449 11.818z" fill="#2472BA" opacity=".5"/>
<path transform="translate(99.301 8.7759) rotate(-.31034)" d="m20.449 23.635c11.294 0 20.449-5.2909 20.449-11.818 0-6.5266-9.1555-11.818-20.449-11.818-11.294 0-20.449 5.2909-20.449 11.818 0 6.5266 9.1555 11.818 20.449 11.818z" fill="#2472BA" opacity=".6"/>
<path transform="translate(52.532 26.048) rotate(-.31034)" d="m20.449 23.635c11.294 0 20.449-5.2909 20.449-11.818 0-6.5266-9.1555-11.818-20.449-11.818-11.294 0-20.449 5.2909-20.449 11.818 0 6.5266 9.1555 11.818 20.449 11.818z" fill="#2472BA" opacity=".7"/>
<path transform="translate(30.818 60.272) rotate(-.31034)" d="m20.449 23.635c11.294 0 20.449-5.2909 20.449-11.818 0-6.5266-9.1555-11.818-20.449-11.818-11.294 0-20.449 5.2909-20.449 11.818 0 6.5266 9.1555 11.818 20.449 11.818z" fill="#2472BA" opacity=".8"/>
<path transform="translate(47.295 90.748) rotate(-.31034)" d="m20.449 23.635c11.294 0 20.449-5.2909 20.449-11.818 0-6.5266-9.1555-11.817-20.449-11.817-11.294 0-20.449 5.2909-20.449 11.817 0 6.5266 9.1555 11.818 20.449 11.818z" fill="#2472BA" opacity=".9"/>
<path transform="translate(91.097 110.14) rotate(-.31034)" d="m20.449 23.635c11.294 0 20.449-5.2909 20.449-11.818 0-6.5266-9.1555-11.818-20.449-11.818-11.294 0-20.449 5.2909-20.449 11.818 0 6.5266 9.1555 11.818 20.449 11.818z" fill="#2472BA"/>
</g>
<defs>
<filter id="a" x=".65625" y=".89941" width="285.39" height="190.9" color-interpolation-filters="sRGB" filterUnits="userSpaceOnUse">
<feFlood flood-opacity="0" result="BackgroundImageFix"/>
<feColorMatrix in="SourceAlpha" values="0 0 0 0 0 0 0 0 0 0 0 0 0 0 0 0 0 0 255 0"/>
<feOffset dy="20"/>
<feGaussianBlur stdDeviation="10"/>
<feColorMatrix values="0 0 0 0 0 0 0 0 0 0 0 0 0 0 0 0 0 0 0.25 0"/>
<feBlend in2="BackgroundImageFix" result="effect1_dropShadow"/>
<feBlend in="SourceGraphic" in2="effect1_dropShadow" result="shape"/>
</filter>
</defs>
</svg>
