<svg fill="none" viewBox="0 0 340 249" xmlns="http://www.w3.org/2000/svg"><g filter="url(#c)"><path d="M320 52.587c.119-9.217-5.886-18.435-18.027-25.443a57.683 57.683 0 0 0-2.818-1.528c-14.762-7.524-34.307-10.266-52.614-8.222h-.003c-43.154-23.672-111.6-23.168-154.19 1.428-21.847 12.614-32.724 29.15-32.601 45.63a33.71 33.71 0 0 0 0 .55v.552a33.71 33.71 0 0 0 0 .551c-.001.185-.001.369 0 .553v.55c-.001.185-.001.369 0 .553a33.71 33.71 0 0 0 0 .55c-.001.185-.001.369 0 .553v.55c-.001.185-.001.37 0 .553a33.71 33.71 0 0 0 0 .551v.552c-.002.273-.001.545.003.817v.023a37.53 37.53 0 0 0-.003.815 33.77 33.77 0 0 0 0 .552v.55c-.001.185-.001.37 0 .553v.552.55c-.001.185-.001.37 0 .553a33.77 33.77 0 0 0 0 .551v.551c-.001.185-.001.369 0 .553a33.71 33.71 0 0 0 0 .55c-.001.185-.001.37 0 .553v.551.552.552.55c-.001.185-.001.37 0 .553a33.77 33.77 0 0 0 0 .552c-.006.952.023 1.904.089 2.855a82.32 82.32 0 0 0-2.113 1.177c-16.13 9.313-24.143 21.53-24.02 33.699-.002.183-.002.367 0 .55a26.73 26.73 0 0 0 0 .553c-.002.184-.002.367 0 .55a26.73 26.73 0 0 0 0 .553c-.002.184-.002.368 0 .55a26.73 26.73 0 0 0 0 .553 26.73 26.73 0 0 0 0 .552c-.002.184-.002.368 0 .55a26.73 26.73 0 0 0 0 .553c-.002.184-.002.367 0 .55-.002.186-.002.37 0 .554a26.44 26.44 0 0 0 0 .549 26.7 26.7 0 0 0 .003.738v.174c-.005.248-.005.496-.003.745-.002.184-.002.367 0 .55a26.73 26.73 0 0 0 0 .553c-.002.184-.002.368 0 .55a26.73 26.73 0 0 0 0 .553 26.73 26.73 0 0 0 0 .552 26.73 26.73 0 0 0 0 .552c-.001.146-.002.294 0 .44-9.236 6.644-13.803 14.727-13.696 22.779-.002.184-.002.367 0 .55-.002.185-.002.369 0 .553-.002.184-.002.367 0 .55-.002.185-.002.368 0 .552-.002.184-.002.368 0 .553-.002.184-.002.367 0 .552-.002.183-.002.367 0 .55-.002.185-.002.369 0 .553-.002.183-.002.367 0 .55-.002.185-.002.368 0 .552-.002.185-.002.369 0 .553-.002.183-.002.365 0 .548-.003.208-.002.415.001.623a19.22 19.22 0 0 0 0 .41c-.003.209-.004.416 0 .624-.003.184-.003.368 0 .553-.003.183-.003.367 0 .55-.003.185-.003.369 0 .553-.003.184-.003.367 0 .55-.003.185-.003.369 0 .553-.003.184-.003.367 0 .55-.003.185-.003.369 0 .553-.003.184-.003.368 0 .552-.003.184-.003.367 0 .55-.003.185-.003.368 0 .553-.003.184-.003.368 0 .552-.003.183-.003.367 0 .55-.003.184-.003.368 0 .552-.003.184-.003.368 0 .552-.003.184-.003.367 0 .55-.003.185-.003.37 0 .554-.003.183-.003.366 0 .549-.114 8.522 5.009 17.045 15.376 23.823a52.81 52.81 0 0 0 2.647 1.627c24.144 13.938 63.412 13.87 87.707-.158l175.96-101.59c12.32-7.112 18.424-16.447 18.301-25.74.002-.187.002-.374 0-.56a24.99 24.99 0 0 0 0-.548c.002-.185.002-.37 0-.554.002-.183.002-.367 0-.55.002-.185.002-.369 0-.553.002-.184.002-.367 0-.551.002-.184.002-.367 0-.55a25.42 25.42 0 0 0 0-.553c.002-.184.002-.368 0-.552.002-.184.002-.368 0-.552.002-.184.002-.367 0-.55.002-.185.002-.369 0-.553.002-.184.002-.368 0-.552.002-.184.002-.368 0-.552.002-.183.002-.366 0-.55a25.42 25.42 0 0 0 0-.552c.002-.184.002-.368 0-.552.002-.184.002-.368 0-.551a25.42 25.42 0 0 0 0-.552c.002-.184.002-.368 0-.552.002-.184.002-.368 0-.551.002-.184.002-.368 0-.552.002-.184.002-.368 0-.552.002-.183.002-.367 0-.55a25.42 25.42 0 0 0 0-.553c.002-.184.002-.368 0-.552.002-.184.002-.367 0-.55.002-.185.002-.369 0-.553.002-.184.002-.368 0-.552.002-.183.002-.367 0-.55a25.42 25.42 0 0 0 0-.553c.002-.184.002-.367 0-.551z" fill="#F0EFEF"/></g><path d="M301.97 27.144c24.144 13.937 24.021 36.613-.274 50.638l-175.96 101.59c-24.295 14.029-63.563 14.096-87.707.159a54.472 54.472 0 0 1-2.647-1.627c-20.68-13.521-20.493-33.986.496-47.53-6.278-15.35 1.016-32.216 21.842-44.241a84.33 84.33 0 0 1 6.747-3.488c-11.43-21.803-2.112-46.51 27.878-63.825 42.598-24.596 111.04-25.1 154.19-1.429h.004c18.306-2.044 37.85.698 52.613 8.223.965.488 1.897.996 2.818 1.528z" fill="#fff"/><g filter="url(#b)"><path d="M243.48 61.438c.056-7.866-3.863-15.765-11.938-22.626l-12.838 5.064.118.1-.118.046.12.103-.12.048.117.1-.117.047.12.103-.12.048.12.103-.12.048.117.1-.117.046.12.104-.12.047.12.103-.12.048.117.1-.117.047.12.103-.12.048.12.103-.12.047.117.1-.117.047.12.104-.12.047.12.103-.12.048.117.1-.117.047.12.103-.12.047.117.101-.117.046.12.104-.12.047.12.103-.12.048.117.1-.117.047.12.103-.12.047.12.104-.12.047.117.1-.117.047.12.103-.12.048.12.103-.12.048.117.1-.117.047.12.103-.12.047.117.1-.117.047.12.103-.12.048.12.103-.12.048.117.1-.117.047.12.103-.12.048.12.103-.12.047c5.388 4.58 8.396 9.754 9.113 14.996-.99 7.275-6.354 14.362-15.856 19.847-9.767 5.639-22.446 8.852-35.856 9.217l.568-.935-.098.011.098-.161-.098.01.098-.161-.096.01.096-.157-.098.01.098-.161-.098.011.098-.162-.096.01.096-.157-.098.011.098-.161-.096.01.096-.157-.098.01.098-.161-.098.01.098-.161-.096.01.096-.157-.098.011.098-.162-.098.011.098-.161-.096.01.096-.157-.098.01.098-.16-.098.01.098-.162-.096.011.096-.158-.098.011.098-.161-.096.01.096-.157-.098.01.098-.16-.098.01.098-.162-.096.011.096-.158-.098.011.098-.161-.098.01.098-.161-.096.01.096-.157-.098.011.098-.162-.098.011.098-.162-.096.011.096-.157-.098.01.098-.161-.098.01.098-.161-.096.01.096-.157-.098.011.098-.162-.095.011.096-.157-37.986 4.242.187.126-.188.02.193.13-.193.022.188.125-.188.021.193.13-.193.021.193.13-.193.02.188.127-.188.02.193.13-.193.022.193.129-.193.021.188.126-.188.021.193.13-.193.021.193.13-.193.02.188.127-.188.02.193.13-.193.022.193.129-.193.021.188.126-.188.021.193.13-.193.02.188.127-.188.02.193.13-.193.022.193.129-.193.021.188.126-.188.021.193.13-.193.02.193.13-.193.022.188.126-.188.02.193.13-.193.021.193.13-.193.021.188.126-.188.021.193.13-.193.02.188.127-.188.02.193.13-.193.021.193.13-.193.021.188.126-.188.021.193.13-.193.02.193.13-.193.022 25.152 16.85 3.881-6.381c9.164.42 18.497-.21 27.235-1.854 10.445-1.96 20.104-5.381 27.93-9.901 13.621-7.865 20.628-18.293 20.594-28.761v-4.687z" fill="#1A5A85"/></g><path d="M231.544 38.812c18.739 15.922 15.096 37.431-8.655 51.146-7.826 4.52-17.485 7.94-27.93 9.901-8.739 1.643-18.072 2.274-27.236 1.854l-3.881 6.38-25.152-16.85 37.986-4.241-3.588 5.897c14.517.067 28.378-3.19 38.875-9.25 18.477-10.668 21.311-27.395 6.743-39.773l12.838-5.064z" fill="#1B75BC"/><g filter="url(#a)"><path d="M208.73 31.874l-25.152-16.85-3.885 6.381c-9.163-.42-18.497.21-27.236 1.854-10.445 1.96-20.104 5.38-27.93 9.9-13.585 7.844-20.591 18.237-20.596 28.676v1.692c-.005.235-.006.47-.003.704-.003.244-.002.489.002.733V66.7c-.025 7.836 3.896 15.7 11.94 22.533l12.842-5.063-.117-.1.117-.047-.12-.103.12-.048-.12-.103.12-.048-.117-.1.117-.047-.12-.103.12-.048-.117-.1.117-.046-.12-.104.12-.047-.12-.103.12-.048-.117-.1.117-.047-.12-.103.12-.047-.12-.104.12-.047-.117-.1.117-.047-.12-.103.12-.048-.12-.103.12-.048-.118-.101.114-.046-.12-.102.124-.048-.117-.1.117-.047-.12-.103.12-.048-.118-.101.114-.046-.12-.102.124-.049-.12-.103.12-.047-.12-.104.12-.047-.117-.1.117-.047-.12-.103.12-.048-.12-.103.12-.048-.117-.1.117-.047-.12-.103.12-.047-.12-.104.12-.047-.117-.1.117-.047-.12-.103.12-.048-.117-.1.117-.047-.12-.103.12-.047-.12-.103.12-.048c-5.387-4.578-8.395-9.751-9.112-14.992.989-7.276 6.354-14.365 15.854-19.851 9.768-5.638 22.447-8.852 35.856-9.217l-.568.935.098-.011-.098.161.098-.01-.098.161.096-.01-.096.157.098-.01-.098.16.095-.01-.095.158.098-.011-.098.161.098-.01-.098.161.095-.01-.095.157.098-.011-.098.162.098-.011-.098.162.095-.011-.095.157.098-.01-.098.161.098-.01-.098.161.094-.01-.098.161.1-.01-.096.157.098-.011-.098.162.095-.011-.095.157.094-.01-.098.161.1-.011-.096.158.098-.011-.098.162.098-.011-.098.162.095-.011-.095.157.098-.01-.098.161.098-.01-.098.161.095-.01-.095.157.098-.011-.098.162.098-.011-.098.161.095-.01-.095.157.098-.01-.098.161.095-.01-.095.157.098-.01-.098.16.098-.01-.098.162.095-.01-.095.156 37.986-4.242-.187-.125.187-.021-.193-.13.193-.022-.193-.129.193-.021-.188-.126.188-.021-.193-.13.193-.021-.187-.126.187-.02-.193-.13.193-.022-.193-.129.193-.021-.188-.126.188-.021-.193-.13.193-.02-.193-.13.193-.022-.187-.125.187-.021-.193-.13.193-.021-.193-.13.193-.021-.187-.126.187-.02-.193-.13.193-.022-.187-.126.187-.02-.193-.13.193-.021-.193-.13.193-.021-.188-.126.188-.021-.193-.13.193-.02-.193-.13.193-.022-.187-.126.187-.02-.193-.13.193-.021-.193-.13.193-.021-.187-.126.187-.021-.193-.13.193-.02-.193-.13.193-.022-.188-.126.188-.02-.193-.13.193-.021-.188-.126.188-.021-.193-.13.193-.02-.193-.13.194-.022z" fill="#1A5A85"/></g><path d="M183.586 15.024l25.152 16.85-37.986 4.242 3.587-5.897c-14.516-.067-28.377 3.19-38.874 9.25-18.477 10.668-21.311 27.395-6.743 39.773l-12.842 5.063c-18.739-15.922-15.1-37.43 8.655-51.146 7.826-4.52 17.485-7.94 27.93-9.901 8.739-1.643 18.072-2.274 27.236-1.853l3.885-6.382z" fill="#1B75BC"/><defs><filter id="c" x="0" y="0" width="340" height="248.14" color-interpolation-filters="sRGB" filterUnits="userSpaceOnUse"><feFlood flood-opacity="0" result="BackgroundImageFix"/><feColorMatrix in="SourceAlpha" values="0 0 0 0 0 0 0 0 0 0 0 0 0 0 0 0 0 0 255 0"/><feOffset dy="20"/><feGaussianBlur stdDeviation="10"/><feColorMatrix values="0 0 0 0 0 0 0 0 0 0 0 0 0 0 0 0 0 0 0.25 0"/><feBlend in2="BackgroundImageFix" result="effect1_dropShadow"/><feBlend in="SourceGraphic" in2="effect1_dropShadow" result="shape"/></filter><filter id="b" x="128.69" y="38.812" width="124.79" height="94.21" color-interpolation-filters="sRGB" filterUnits="userSpaceOnUse"><feFlood flood-opacity="0" result="BackgroundImageFix"/><feColorMatrix in="SourceAlpha" values="0 0 0 0 0 0 0 0 0 0 0 0 0 0 0 0 0 0 255 0"/><feOffset dy="10"/><feGaussianBlur stdDeviation="5"/><feColorMatrix values="0 0 0 0 0 0 0 0 0 0 0 0 0 0 0 0 0 0 0.25 0"/><feBlend in2="BackgroundImageFix" result="effect1_dropShadow"/><feBlend in="SourceGraphic" in2="effect1_dropShadow" result="shape"/></filter><filter id="a" x="93.931" y="15.024" width="124.8" height="94.21" color-interpolation-filters="sRGB" filterUnits="userSpaceOnUse"><feFlood flood-opacity="0" result="BackgroundImageFix"/><feColorMatrix in="SourceAlpha" values="0 0 0 0 0 0 0 0 0 0 0 0 0 0 0 0 0 0 255 0"/><feOffset dy="10"/><feGaussianBlur stdDeviation="5"/><feColorMatrix values="0 0 0 0 0 0 0 0 0 0 0 0 0 0 0 0 0 0 0.25 0"/><feBlend in2="BackgroundImageFix" result="effect1_dropShadow"/><feBlend in="SourceGraphic" in2="effect1_dropShadow" result="shape"/></filter></defs></svg>