<svg fill="none" viewBox="0 0 400 259" xmlns="http://www.w3.org/2000/svg"><g filter="url(#c)"><path d="M379.85 104.413l.15-.087L200.56.916 20 104.976l.15.087-.15.087.148.085-.148.085.15.087-.15.087.148.085-.148.086.15.086-.15.087.15.087-.15.086.148.086-.148.085.15.087-.15.086.148.086-.148.085.15.087-.15.087.15.086-.15.087.148.085-.148.086.15.087-.15.086.15.087-.15.087.148.085-.148.085.15.087-.15.087.148.085-.148.086.15.086-.15.087.15.087-.15.086.148.086-.148.085.15.087-.15.087.148.085-.148.085.15.087-.15.087.15.086-.15.087.148.086-.148.085.15.087-.15.086.148.086-.148.085.15.087-.15.086.15.087-.15.087.148.085-.148.086.15.086-.15.087.148.085-.148.086.15.087-.15.086.15.087-.15.087.148.085-.148.085.15.087-.15.087.15.086-.15.087.148.086-.148.085.15.087-.15.086.148.086-.148.085.15.087-.15.087.15.086-.15.087.148.085-.148.086.15.086-.15.087.148.085-.148.086.15.087-.15.086.15.087-.15.087.148.085-.148.085.15.087-.15.087.148.085-.148.086.15.086-.15.087.15.087-.15.086.148.086-.148.085.15.087-.15.087.15.086-.15.087.148.085-.148.086.15.086-.15.087.148.085-.148.086.15.087-.15.086.15.087-.15.087.148.085-.148.085L199.44 218.9 380 114.84l-.148-.085.148-.086-.15-.086.15-.087-.148-.085.148-.086-.15-.087.15-.086-.15-.087.15-.087-.148-.085.148-.085-.15-.087.15-.087-.148-.085.148-.086-.15-.086.15-.087-.15-.087.15-.086-.148-.086.148-.085-.15-.087.15-.087-.148-.085.148-.085-.15-.087.15-.087-.15-.086.15-.087-.148-.086.148-.085-.15-.087.15-.086-.148-.086.148-.085-.15-.087.15-.086-.15-.087.15-.087-.148-.085.148-.086-.15-.086.15-.087-.15-.087.15-.086-.148-.086.148-.085-.15-.087.15-.087-.148-.085.148-.085-.15-.087.15-.087-.15-.086.15-.087-.148-.085.148-.086-.15-.087.15-.086-.148-.086.148-.085-.15-.087.15-.087-.15-.086.15-.087-.148-.085.148-.086-.15-.086.15-.087-.148-.085.148-.086-.15-.087.15-.086-.15-.087.15-.087-.148-.085.148-.085-.15-.087.15-.087-.148-.085.148-.085-.15-.087.15-.087-.15-.087.15-.086-.148-.086.148-.085-.15-.087.15-.087-.15-.086.15-.087-.148-.085.148-.086-.15-.086.15-.087-.148-.085.148-.086-.15-.087.15-.086-.15-.087.15-.087-.148-.085.148-.085-.15-.087.15-.087-.148-.085.148-.086-.15-.086.15-.087-.15-.087.15-.086-.148-.086.148-.085-.15-.087.15-.087-.148-.085.148-.085-.15-.087.15-.087-.15-.086z" fill="#F0EFEF"/><path d="M380 104.32L199.438 208.38 20 104.97 200.565.913 380 104.32z" fill="#fff"/><path d="M241.56 46.225L98.62 128.599c-2.08 1.198-5.712 1.049-8.115-.336l-36.164-20.842c-2.402-1.385-2.663-3.477-.583-4.677l142.94-82.371c2.08-1.198 5.712-1.049 8.115.336l36.164 20.84c2.399 1.383 2.66 3.478.58 4.675z" fill="#F0EFEF"/><path d="M293.9 76.385l-142.94 82.374c-2.08 1.198-5.712 1.049-8.115-.336l-36.16-20.839c-2.403-1.385-2.664-3.477-.584-4.677l142.94-82.374c2.08-1.198 5.712-1.049 8.115.336l36.164 20.84c2.402 1.383 2.663 3.478.583 4.675z" stroke="#D1D3D4" stroke-dasharray="5 5"/><path d="M191.231 40.759L89.141 99.595c-.893.515-2.457.45-3.489-.144-1.031-.596-1.145-1.496-.25-2.01l102.09-58.837c.894-.514 2.458-.45 3.489.144 1.032.596 1.143 1.496.25 2.01zM200.585 46.146L98.495 104.98c-.893.515-2.457.45-3.489-.144-1.031-.596-1.145-1.496-.25-2.01l102.09-58.835c.895-.514 2.458-.45 3.49.144 1.032.596 1.143 1.496.25 2.01zM209.92 51.53l-102.09 58.836c-.893.515-2.457.45-3.488-.144-1.032-.596-1.146-1.496-.25-2.01l102.09-58.837c.893-.514 2.457-.45 3.488.144 1.032.596 1.143 1.496.25 2.01z" fill="#D1D3D4"/><path d="M346.24 106.546L203.3 188.92c-2.08 1.197-5.712 1.048-8.115-.336l-36.164-20.842c-2.402-1.385-2.663-3.477-.583-4.677l142.94-82.374c2.08-1.198 5.712-1.049 8.115.336l36.164 20.84c2.405 1.386 2.666 3.48.586 4.678z" fill="#F0EFEF"/><path d="M295.91 101.08l-102.09 58.836c-.893.515-2.457.45-3.489-.144-1.031-.596-1.145-1.496-.25-2.01l102.09-58.837c.894-.514 2.458-.45 3.489.144 1.035.596 1.146 1.496.253 2.01zM305.25 106.462l-102.09 58.836c-.893.515-2.457.45-3.489-.144-1.031-.596-1.145-1.496-.25-2.01l102.09-58.837c.894-.514 2.458-.45 3.489.144 1.032.596 1.146 1.496.25 2.01zM314.6 111.855l-102.09 58.834c-.893.514-2.457.45-3.488-.144-1.032-.596-1.146-1.496-.25-2.01l102.09-58.837c.893-.515 2.457-.45 3.488.144 1.035.596 1.146 1.496.253 2.013z" fill="#D1D3D4"/><path transform="translate(104.7 20.815)" d="M.013 85.441c-.1-.842.356-1.66 1.39-2.258L144.344.81c2.08-1.197 5.713-1.048 8.116.336l36.164 20.841c1.419.818 2.09 1.885 1.97 2.868.019.151.019.302 0 .45a1.89 1.89 0 0 1 0 .451c.019.151.019.302 0 .45.019.152.019.302 0 .45.019.152.019.302 0 .45.019.152.019.302 0 .45.019.152.019.302 0 .45.019.152.019.303 0 .452.019.151.019.302 0 .45.019.151.019.302 0 .45a1.88 1.88 0 0 1 0 .45 1.88 1.88 0 0 1 0 .45c.019.151.019.302 0 .45a1.9 1.9 0 0 1 0 .452c.019.151.019.301 0 .45.019.15.019.302 0 .45.019.152.019.302 0 .45.019.152.019.301 0 .45.019.151.019.302 0 .451.019.152.019.302 0 .45.019.152.019.302 0 .45.019.152.019.302 0 .45.019.152.019.303 0 .452a1.88 1.88 0 0 1 0 .45 1.88 1.88 0 0 1 0 .449c.019.151.019.302 0 .45a1.89 1.89 0 0 1 0 .451c.019.151.019.302 0 .45.019.152.019.302 0 .451.019.151.019.302 0 .45.019.15.019.3 0 .449a1.9 1.9 0 0 1 0 .452 1.88 1.88 0 0 1 0 .45 1.88 1.88 0 0 1 0 .45c.019.15.019.302 0 .45.019.152.019.302 0 .45.019.152.019.302 0 .45.019.152.019.302 0 .45.019.152.019.303 0 .451.019.151.019.302 0 .45.019.152.019.302 0 .451.019.151.019.302 0 .45.019.152.019.302 0 .45.019.151.019.3 0 .449.019.152.019.303 0 .452a1.88 1.88 0 0 1 0 .45c.019.151.019.301 0 .45.019.151.019.302 0 .45.019.152.019.303 0 .451.019.151.019.301 0 .45.019.15.019.301 0 .45.019.151.019.302 0 .45.019.152.019.302 0 .45.019.152.019.303 0 .451.019.152.019.302 0 .45.019.152.019.302 0 .45.019.151.019.301 0 .45.019.152.019.303 0 .452.019.151.019.301 0 .45.019.15.019.301 0 .45.1.842-.354 1.66-1.39 2.257l-142.94 82.374c-2.079 1.198-5.711 1.049-8.114-.336L1.99 115.327c-1.423-.819-2.095-1.887-1.975-2.87a1.892 1.892 0 0 1 0-.452 1.88 1.88 0 0 1 0-.449 1.89 1.89 0 0 1 0-.45 1.89 1.89 0 0 1 0-.45 1.89 1.89 0 0 1 0-.45 1.89 1.89 0 0 1 0-.45 1.884 1.884 0 0 1 0-.451 1.884 1.884 0 0 1 0-.451 1.886 1.886 0 0 1 0-.45 1.89 1.89 0 0 1 0-.45 1.89 1.89 0 0 1 0-.45 1.89 1.89 0 0 1 0-.45 1.884 1.884 0 0 1 0-.451 1.884 1.884 0 0 1 0-.451 1.886 1.886 0 0 1 0-.45 1.89 1.89 0 0 1 0-.45 1.89 1.89 0 0 1 0-.45 1.88 1.88 0 0 1 0-.449 1.89 1.89 0 0 1 0-.45 1.884 1.884 0 0 1 0-.451 1.892 1.892 0 0 1 0-.452 1.88 1.88 0 0 1 0-.449 1.886 1.886 0 0 1 0-.45 1.89 1.89 0 0 1 0-.45 1.886 1.886 0 0 1 0-.45 1.887 1.887 0 0 1 0-.451 1.884 1.884 0 0 1 0-.451 1.887 1.887 0 0 1 0-.45 1.887 1.887 0 0 1 0-.45 1.887 1.887 0 0 1 0-.45 1.887 1.887 0 0 1 0-.45 1.885 1.885 0 0 1 0-.45 1.885 1.885 0 0 1 0-.452 1.886 1.886 0 0 1 0-.45 1.887 1.887 0 0 1 0-.45 1.887 1.887 0 0 1 0-.45 1.888 1.888 0 0 1 0-.45 1.887 1.887 0 0 1 0-.45 1.885 1.885 0 0 1 0-.45 1.884 1.884 0 0 1 0-.451 1.886 1.886 0 0 1 0-.45 1.887 1.887 0 0 1 0-.45 1.887 1.887 0 0 1 0-.45 1.887 1.887 0 0 1 0-.45 1.885 1.885 0 0 1 0-.451 1.886 1.886 0 0 1 0-.451 1.887 1.887 0 0 1 0-.45 1.886 1.886 0 0 1 0-.45 1.887 1.887 0 0 1 0-.45 1.888 1.888 0 0 1 0-.45 1.884 1.884 0 0 1 0-.45 1.887 1.887 0 0 1 0-.452 1.886 1.886 0 0 1 0-.45 1.888 1.888 0 0 1 0-.45 1.887 1.887 0 0 1 0-.45 1.888 1.888 0 0 1 0-.45 1.887 1.887 0 0 1 0-.45 1.885 1.885 0 0 1 0-.45 1.885 1.885 0 0 1 0-.451 1.886 1.886 0 0 1 0-.45z" fill="url(#b)" opacity=".2"/><path d="M104.7 106.083c-.021-.78.44-1.529 1.404-2.085l142.94-82.374c2.08-1.198 5.712-1.049 8.115.336l36.164 20.841c1.337.77 2.01 1.762 1.984 2.697v.319a1.93 1.93 0 0 1 0 .108v.212a1.93 1.93 0 0 1 0 .108v.426a1.89 1.89 0 0 1 0 .107v.532a1.92 1.92 0 0 1 0 .108 1.89 1.89 0 0 1 0 .106v.106a1.92 1.92 0 0 1 0 .107 1.89 1.89 0 0 1 0 .107v.746a1.93 1.93 0 0 1 0 .107v.532a1.93 1.93 0 0 1 0 .108v.106a1.89 1.89 0 0 1 0 .106v.214a1.89 1.89 0 0 1 0 .106v.214a1.89 1.89 0 0 1 0 .106v.533a1.92 1.92 0 0 1 0 .107 1.89 1.89 0 0 1 0 .107v.106a1.92 1.92 0 0 1 0 .107 1.89 1.89 0 0 1 0 .107v.64c.022.78-.44 1.528-1.403 2.083l-142.94 82.376c-2.08 1.198-5.712 1.05-8.115-.336l-36.16-20.84c-1.34-.773-2.014-1.765-1.988-2.7a1.868 1.868 0 0 1 0-.106 1.895 1.895 0 0 1 0-.107 1.905 1.905 0 0 1 0-.106v-.107a1.916 1.916 0 0 1 0-.107 1.895 1.895 0 0 1 0-.106v-.107a1.909 1.909 0 0 1 0-.106 1.895 1.895 0 0 1 0-.107v-.106a1.905 1.905 0 0 1 0-.107 1.898 1.898 0 0 1 0-.106v-.107a1.906 1.906 0 0 1 0-.107 1.905 1.905 0 0 1 0-.106v-.107a1.913 1.913 0 0 1 0-.107 1.895 1.895 0 0 1 0-.106v-.107a1.905 1.905 0 0 1 0-.106 1.882 1.882 0 0 1 0-.108 1.895 1.895 0 0 1 0-.106 1.902 1.902 0 0 1 0-.107v-.106a1.916 1.916 0 0 1 0-.107 1.895 1.895 0 0 1 0-.107v-.106a1.905 1.905 0 0 1 0-.107 1.898 1.898 0 0 1 0-.106v-.107a1.905 1.905 0 0 1 0-.107 1.898 1.898 0 0 1 0-.106v-.107a1.905 1.905 0 0 1 0-.106 1.898 1.898 0 0 1 0-.107v-.107a1.909 1.909 0 0 1 0-.106 1.902 1.902 0 0 1 0-.107v-.106a1.916 1.916 0 0 1 0-.107 1.895 1.895 0 0 1 0-.106v-.107a1.905 1.905 0 0 1 0-.107 1.898 1.898 0 0 1 0-.106v-.107a1.905 1.905 0 0 1 0-.106 1.898 1.898 0 0 1 0-.107v-.107a1.905 1.905 0 0 1 0-.106 1.902 1.902 0 0 1 0-.107v-.106a1.913 1.913 0 0 1 0-.107 1.879 1.879 0 0 1 0-.108 1.891 1.891 0 0 1 0-.106 1.905 1.905 0 0 1 0-.107v-.106a1.913 1.913 0 0 1 0-.107 1.895 1.895 0 0 1 0-.106v-.107a1.902 1.902 0 0 1 0-.107z" fill="#1B212B"/><path transform="translate(104.7 20.815)" d="M189.2 26.661L46.26 109.038c-2.08 1.197-5.712 1.048-8.115-.336L1.985 87.86C-.419 86.475-.68 84.383 1.4 83.183L144.34.809c2.08-1.198 5.712-1.049 8.115.336l36.164 20.84c2.399 1.383 2.66 3.478.58 4.675z" fill="url(#a)"/></g><defs><filter id="c" x="0" y=".913" width="400" height="257.98" color-interpolation-filters="sRGB" filterUnits="userSpaceOnUse"><feFlood flood-opacity="0" result="BackgroundImageFix"/><feColorMatrix in="SourceAlpha" values="0 0 0 0 0 0 0 0 0 0 0 0 0 0 0 0 0 0 255 0"/><feOffset dy="20"/><feGaussianBlur stdDeviation="10"/><feColorMatrix values="0 0 0 0 0 0 0 0 0 0 0 0 0 0 0 0 0 0 0.25 0"/><feBlend in2="BackgroundImageFix" result="effect1_dropShadow"/><feBlend in="SourceGraphic" in2="effect1_dropShadow" result="shape"/></filter><linearGradient id="b" x2="1" gradientTransform="matrix(19.004 66.527 -92.349 26.284 128.85 23.592)" gradientUnits="userSpaceOnUse"><stop stop-color="#1B212B" offset="0"/><stop stop-color="#1B212B" stop-opacity="0" offset="1"/></linearGradient><linearGradient id="a" x2="1" gradientTransform="matrix(190.6 0 0 63.421 -.005 23.213)" gradientUnits="userSpaceOnUse"><stop stop-color="#2472BA" offset="0"/><stop stop-color="#2472BA" stop-opacity=".7" offset="1"/></linearGradient></defs></svg>