<svg fill="none" viewBox="0 0 400 259" xmlns="http://www.w3.org/2000/svg"><g filter="url(#d)"><path d="M379.85 103.68l.15-.087L200.56-.007 20 104.243l.15.087-.15.087.148.085-.148.086.15.086-.15.087.148.086-.148.085.15.087-.15.087.15.087-.15.087.148.085-.148.086.15.087-.15.087.148.085-.148.086.15.087-.15.086.15.087-.15.087.148.086-.148.085.15.087-.15.087.15.087-.15.087.148.085-.148.086.15.087-.15.086.148.086-.148.086.15.087-.15.086.15.087-.15.087.148.085-.148.086.15.087-.15.087.148.085-.148.086.15.087-.15.086.15.087-.15.087.148.086-.148.085.15.087-.15.087.148.085-.148.086.15.087-.15.087.15.087-.15.087.148.085-.148.086.15.087-.15.086.148.086-.148.085.15.087-.15.087.15.087-.15.087.148.085-.148.086.15.087-.15.087.15.086-.15.087.148.086-.148.086.15.086-.15.087.148.086-.148.085.15.087-.15.087.15.087-.15.087.148.085-.148.086.15.087-.15.086.148.086-.148.086.15.086-.15.087.15.087-.15.087.148.085-.148.086.15.087-.15.087.148.085-.148.086.15.087-.15.087.15.087-.15.086.148.086-.148.085.15.087-.15.087.15.087-.15.087.148.085-.148.086.15.087-.15.087.148.085-.148.086.15.087-.15.087.15.086-.15.087.148.086-.148.085 179.44 103.6L380 114.126l-.148-.086.148-.086-.15-.086.15-.087-.148-.086.148-.085-.15-.087.15-.087-.15-.087.15-.087-.148-.085.148-.086-.15-.086.15-.087-.148-.086.148-.086-.15-.086.15-.087-.15-.087.15-.087-.148-.085.148-.086-.15-.087.15-.087-.148-.085.148-.086-.15-.087.15-.087-.15-.086.15-.087-.148-.086.148-.085-.15-.087.15-.087-.148-.086.148-.085-.15-.087.15-.087-.15-.087.15-.087-.148-.085.148-.086-.15-.087.15-.086-.15-.087.15-.087-.148-.086.148-.085-.15-.087.15-.087-.148-.085.148-.086-.15-.087.15-.087-.15-.086.15-.087-.148-.086.148-.085-.15-.087.15-.087-.148-.086.148-.085-.15-.087.15-.087-.15-.087.15-.087-.148-.085.148-.086-.15-.087.15-.087-.148-.085.148-.086-.15-.087.15-.086-.15-.087.15-.087-.148-.086.148-.085-.15-.087.15-.087-.148-.085.148-.086-.15-.087.15-.087-.15-.087.15-.086-.148-.086.148-.085-.15-.087.15-.087-.15-.087.15-.087-.148-.085.148-.086-.15-.087.15-.087-.148-.085.148-.086-.15-.087.15-.086-.15-.087.15-.087-.148-.086.148-.085-.15-.087.15-.087-.148-.085.148-.086-.15-.087.15-.087-.15-.087.15-.087-.148-.085.148-.086-.15-.087.15-.086-.148-.086.148-.085-.15-.087.15-.087-.15-.087z" fill="#F0EFEF"/></g><path d="M380 103.926l-180.56 104.25L20 104.576 200.56.326 380 103.926z" fill="#fff"/><g filter="url(#c)"><path d="M52.361 100.625c-.022-.782.44-1.531 1.403-2.089l142.94-82.522c2.08-1.2 5.713-1.05 8.115.337l140.83 81.31c1.344.775 2.017 1.773 1.986 2.712v.223a2.25 2.25 0 0 1 0 .116V101.403a2.22 2.22 0 0 1 0 .116v.461a2.22 2.22 0 0 1 0 .116v.23a2.22 2.22 0 0 1 0 .116v.115a2.22 2.22 0 0 1 0 .116V103.25a2.22 2.22 0 0 1 0 .115v.115a2.22 2.22 0 0 1 0 .116v.463c.024.783-.438 1.534-1.403 2.092l-142.94 82.525c-2.08 1.2-5.712 1.05-8.115-.337L54.347 107.03c-1.341-.775-2.015-1.77-1.986-2.709a2.172 2.172 0 0 1 0-.112 1.87 1.87 0 0 1 0-.117 2.226 2.226 0 0 1 0-.115 2.277 2.277 0 0 1 0-.115 1.838 1.838 0 0 1 0-.116 2.265 2.265 0 0 1 0-.115 1.828 1.828 0 0 1 0-.116 2.218 2.218 0 0 1 0-.114 1.885 1.885 0 0 1 0-.118 2.207 2.207 0 0 1 0-.113 1.876 1.876 0 0 1 0-.117 2.203 2.203 0 0 1 0-.114 1.844 1.844 0 0 1 0-.116 2.265 2.265 0 0 1 0-.115 1.828 1.828 0 0 1 0-.116 2.218 2.218 0 0 1 0-.114 1.885 1.885 0 0 1 0-.118 2.207 2.207 0 0 1 0-.113 1.876 1.876 0 0 1 0-.118 2.203 2.203 0 0 1 0-.113 1.844 1.844 0 0 1 0-.116 2.265 2.265 0 0 1 0-.116 1.828 1.828 0 0 1 0-.115 2.218 2.218 0 0 1 0-.114 1.886 1.886 0 0 1 0-.118 2.199 2.199 0 0 1 0-.113 1.876 1.876 0 0 1 0-.117 2.199 2.199 0 0 1 0-.114 1.844 1.844 0 0 1 0-.116 2.27 2.27 0 0 1 0-.115 1.828 1.828 0 0 1 0-.116 1.689 1.689 0 0 1 0-.122z" fill="#155680"/></g><path transform="translate(52.36 15.204)" d="M293.88 87.141l-142.94 82.525c-2.08 1.2-5.712 1.051-8.115-.337L1.995 88.018c-2.403-1.387-2.663-3.483-.584-4.686L144.351.81c2.08-1.2 5.712-1.05 8.115.337l140.83 81.31c2.403 1.386 2.663 3.484.584 4.684z" fill="url(#a)"/><path d="M150 62.5V26M130.5 54.5v-37" stroke="#1B212B" stroke-dasharray="3 3" stroke-miterlimit="10" stroke-width="1.5"/><path d="M133.5 18.705l13.558 6.027" stroke="#1B212B" stroke-miterlimit="10" stroke-width="1.5"/><path d="M130.5 17.375c1.175 1.148 2.527 2.818 3.193 4.243l.195-2.739 1.903-1.979c-1.504.464-3.649.578-5.291.475zM150.048 26.062c-1.642-.103-3.787.011-5.288.475l1.903-1.979.195-2.739c.663 1.425 2.015 3.095 3.19 4.243z" fill="#1B212B"/><path d="M269.5 54V17.5M249.95 62V26" stroke="#1B212B" stroke-dasharray="3 3" stroke-miterlimit="10" stroke-width="1.5"/><path d="M252.95 24.732l13.558-6.027" stroke="#1B212B" stroke-miterlimit="10" stroke-width="1.5"/><path d="M249.95 26.062c1.643-.103 3.787.011 5.288.475l-1.903-1.979-.195-2.739c-.66 1.425-2.012 3.095-3.19 4.243zM269.501 17.375c-1.175 1.148-2.527 2.818-3.192 4.243l-.196-2.739-1.903-1.979c1.507.464 3.651.578 5.291.475z" fill="#1B212B"/><g filter="url(#b)"><path d="M89.86 98.448c-.02-.78.442-1.527 1.403-2.083l105.32-60.806c2.079-1.2 5.712-1.05 8.115.336l103.45 59.728c1.34.773 2.014 1.767 1.99 2.702.001.032.001.063 0 .094a1.51 1.51 0 0 1 0 .095v.096a1.48 1.48 0 0 1 0 .095 1.52 1.52 0 0 1 0 .095 1.48 1.48 0 0 1 0 .094 1.51 1.51 0 0 1 0 .095v.096a1.48 1.48 0 0 1 0 .095 1.52 1.52 0 0 1 0 .095 1.48 1.48 0 0 1 0 .094 1.51 1.51 0 0 1 0 .096v.095c.001.032.001.063 0 .094a1.52 1.52 0 0 1 0 .096 1.48 1.48 0 0 1 0 .094 1.51 1.51 0 0 1 0 .095v.096c.001.031.001.063 0 .094a1.51 1.51 0 0 1 0 .095c.001.032.001.063 0 .094a1.52 1.52 0 0 1 0 .096v.095a1.48 1.48 0 0 1 0 .094v.096c.001.032.001.063 0 .094v.096a1.48 1.48 0 0 1 0 .094v.096c.001.032.001.063 0 .094v.189c.019.779-.442 1.526-1.403 2.08l-105.32 60.807c-2.079 1.2-5.711 1.05-8.114-.337l-103.45-59.726c-1.337-.772-2.01-1.763-1.987-2.697a1.563 1.563 0 0 1 0-.096 1.524 1.524 0 0 1 0-.095 1.563 1.563 0 0 1 0-.095 1.515 1.515 0 0 1 0-.095 1.563 1.563 0 0 1 0-.095 1.524 1.524 0 0 1 0-.095 1.563 1.563 0 0 1 0-.095 1.515 1.515 0 0 1 0-.095 1.563 1.563 0 0 1 0-.095 1.518 1.518 0 0 1 0-.095 1.563 1.563 0 0 1 0-.095 1.521 1.521 0 0 1 0-.095 1.567 1.567 0 0 1 0-.096 1.515 1.515 0 0 1 0-.094 1.563 1.563 0 0 1 0-.095 1.524 1.524 0 0 1 0-.095 1.563 1.563 0 0 1 0-.096 1.515 1.515 0 0 1 0-.094 1.563 1.563 0 0 1 0-.096 1.518 1.518 0 0 1 0-.094 1.563 1.563 0 0 1 0-.096 1.521 1.521 0 0 1 0-.094 1.563 1.563 0 0 1 0-.096 1.518 1.518 0 0 1 0-.094 1.563 1.563 0 0 1 0-.096 1.524 1.524 0 0 1 0-.094 1.563 1.563 0 0 1 0-.096 1.515 1.515 0 0 1 0-.094 1.563 1.563 0 0 1 0-.096 1.515 1.515 0 0 1 0-.094 1.567 1.567 0 0 1 0-.096 1.521 1.521 0 0 1 0-.094z" fill="#D1D3D4"/></g><path d="M308.74 100.309l-105.32 60.807c-2.079 1.2-5.712 1.05-8.114-.337l-103.45-59.728c-2.403-1.387-2.663-3.483-.584-4.686l105.32-60.806c2.08-1.2 5.712-1.05 8.114.337l103.45 59.729c2.405 1.387 2.666 3.486.586 4.686z" fill="#F0EFEF"/><defs><filter id="d" x="0" y="0" width="400" height="258.38" color-interpolation-filters="sRGB" filterUnits="userSpaceOnUse"><feFlood flood-opacity="0" result="BackgroundImageFix"/><feColorMatrix in="SourceAlpha" values="0 0 0 0 0 0 0 0 0 0 0 0 0 0 0 0 0 0 255 0"/><feOffset dy="20"/><feGaussianBlur stdDeviation="10"/><feColorMatrix values="0 0 0 0 0 0 0 0 0 0 0 0 0 0 0 0 0 0 0.25 0"/><feBlend in2="BackgroundImageFix" result="effect1_dropShadow"/><feBlend in="SourceGraphic" in2="effect1_dropShadow" result="shape"/></filter><filter id="c" x="42.36" y="15.204" width="315.28" height="194.28" color-interpolation-filters="sRGB" filterUnits="userSpaceOnUse"><feFlood flood-opacity="0" result="BackgroundImageFix"/><feColorMatrix in="SourceAlpha" values="0 0 0 0 0 0 0 0 0 0 0 0 0 0 0 0 0 0 255 0"/><feOffset dy="10"/><feGaussianBlur stdDeviation="5"/><feColorMatrix values="0 0 0 0 0 0 0 0 0 0 0 0 0 0 0 0 0 0 0.25 0"/><feBlend in2="BackgroundImageFix" result="effect1_dropShadow"/><feBlend in="SourceGraphic" in2="effect1_dropShadow" result="shape"/></filter><filter id="b" x="79.859" y="34.748" width="240.28" height="150.31" color-interpolation-filters="sRGB" filterUnits="userSpaceOnUse"><feFlood flood-opacity="0" result="BackgroundImageFix"/><feColorMatrix in="SourceAlpha" values="0 0 0 0 0 0 0 0 0 0 0 0 0 0 0 0 0 0 255 0"/><feOffset dy="10"/><feGaussianBlur stdDeviation="5"/><feColorMatrix values="0 0 0 0 0 0 0 0 0 0 0 0 0 0 0 0 0 0 0.25 0"/><feBlend in2="BackgroundImageFix" result="effect1_dropShadow"/><feBlend in="SourceGraphic" in2="effect1_dropShadow" result="shape"/></filter><linearGradient id="a" x2="1" gradientTransform="matrix(295.28 0 0 98.428 -.004 36.025)" gradientUnits="userSpaceOnUse"><stop stop-color="#2472BA" offset="0"/><stop stop-color="#2472BA" stop-opacity=".7" offset="1"/></linearGradient></defs></svg>